<svg width="138" height="101" viewBox="0 0 138 101" fill="none" xmlns="http://www.w3.org/2000/svg">
<rect x="1.21875" y="0.90625" width="135" height="98.4375" rx="5.34375" fill="white" stroke="#C4C4C4" stroke-width="1.6875"/>
<path fill-rule="evenodd" clip-rule="evenodd" d="M72.0175 7.85714H102.006C107.388 7.85714 111.75 8.08591 111.75 13.2253C111.75 16.2075 109.219 18.625 106.096 18.625H66.1875H26.279C23.1564 18.625 20.625 16.2075 20.625 13.2253C20.625 8.08591 24.9875 7.85714 30.3688 7.85714H60.3575C61.9011 6.50849 63.9452 5.6875 66.1875 5.6875C68.4298 5.6875 70.4739 6.50849 72.0175 7.85714Z" fill="#C4C4C4"/>
<rect x="111.75" y="19.1875" width="16.3125" height="16.3125" fill="#C4C4C4"/>
<rect x="4.3125" y="45.0625" width="123.75" height="2.25" fill="#C4C4C4"/>
<rect x="4.3125" y="51.8125" width="45.5625" height="2.25" fill="#C4C4C4"/>
<rect x="4.3125" y="63.625" width="45.5625" height="2.25" fill="#C4C4C4"/>
<rect x="69" y="63.625" width="57.375" height="2.25" fill="#C4C4C4"/>
<rect x="4.3125" y="68.125" width="45.5625" height="2.25" fill="#C4C4C4"/>
<rect x="69" y="68.125" width="57.375" height="2.25" fill="#C4C4C4"/>
<rect x="4.3125" y="72.625" width="45.5625" height="2.25" fill="#C4C4C4"/>
<rect x="69" y="72.625" width="57.375" height="2.25" fill="#C4C4C4"/>
<rect x="4.3125" y="77.125" width="45.5625" height="2.25" fill="#C4C4C4"/>
<rect x="69" y="77.125" width="57.375" height="2.25" fill="#C4C4C4"/>
<rect x="4.3125" y="81.625" width="45.5625" height="2.25" fill="#C4C4C4"/>
<rect x="69" y="81.625" width="57.375" height="2.25" fill="#C4C4C4"/>
<rect x="4.3125" y="86.125" width="45.5625" height="2.25" fill="#C4C4C4"/>
<rect x="69" y="86.125" width="57.375" height="2.25" fill="#C4C4C4"/>
<rect x="106.125" y="51.8125" width="12.9375" height="2.25" fill="#C4C4C4"/>
<circle cx="71.8125" cy="82.75" r="13.5" fill="#8B91C1"/>
</svg>
