<svg xmlns="http://www.w3.org/2000/svg" width="111.78" height="13.93" viewBox="0 0 111.78 13.93"><g id="fcb92cc6-cabc-49a1-be9d-f77aadf2a1bc" data-name="Слой 2"><g id="a29c3ef5-3dbe-4740-879f-f43b6ab1eea5" data-name="Work"><g style="opacity:0.4"><path d="M1.17,8.45V2.85H3.53V8.69c0,2,.64,2.75,1.81,2.75s1.85-.71,1.85-2.75V2.85H9.46v5.6c0,3.5-1.42,5-4.12,5S1.17,12,1.17,8.45Z" transform="translate(-1.17 -1.92)" style="fill:#fff"/><path d="M11.21,11.86l4.61-7H11.65v-2h7.08V4.27l-4.61,7h4.65v2H11.21Z" transform="translate(-1.17 -1.92)" style="fill:#fff"/><path d="M19.71,8.12c0-3.46,2.29-5.46,4.93-5.46A4.41,4.41,0,0,1,27.78,4L26.53,5.52a2.59,2.59,0,0,0-1.84-.83C23.26,4.69,22.13,6,22.13,8s1,3.4,2.52,3.4a2.76,2.76,0,0,0,2-1l1.25,1.48a4.29,4.29,0,0,1-3.37,1.53C21.92,13.47,19.71,11.64,19.71,8.12Z" transform="translate(-1.17 -1.92)" style="fill:#fff"/><path d="M31.46,2.85h2.82l3.28,10.43h-2.5L33.7,8c-.29-1-.57-2.28-.85-3.37h-.06C32.53,5.73,32.25,7,32,8l-1.37,5.28H28.18ZM30.34,9h5v1.83h-5Z" transform="translate(-1.17 -1.92)" style="fill:#fff"/><path d="M38.56,2.85h3.76c2.21,0,4,.77,4,3.25s-1.81,3.43-4,3.43h-1.4v3.75H38.56Zm3.57,4.8c1.24,0,1.9-.53,1.9-1.55s-.66-1.38-1.9-1.38H40.92V7.65ZM41.89,8.9l1.63-1.51,3.33,5.89H44.21Z" transform="translate(-1.17 -1.92)" style="fill:#fff"/><path d="M48.37,2.85h3c3.18,0,5.24,1.58,5.24,5.17s-2.06,5.26-5.11,5.26H48.37Zm2.8,8.53c1.77,0,3-.87,3-3.36s-1.2-3.27-3-3.27h-.44v6.63Z" transform="translate(-1.17 -1.92)" style="fill:#fff"/><path d="M63.92,1.92h1.54L62.24,15.84H60.7Z" transform="translate(-1.17 -1.92)" style="fill:#fff"/><path d="M70.35,2.85h2.36v4h3.6v-4h2.36V13.28H76.31V8.92h-3.6v4.36H70.35Z" transform="translate(-1.17 -1.92)" style="fill:#fff"/><path d="M81.08,8.45V2.85h2.35V8.69c0,2,.65,2.75,1.82,2.75s1.84-.71,1.84-2.75V2.85h2.28v5.6c0,3.5-1.42,5-4.12,5S81.08,12,81.08,8.45Z" transform="translate(-1.17 -1.92)" style="fill:#fff"/><path d="M91.77,2.85h2.58L96,7.48c.21.62.39,1.29.6,1.93h.07c.2-.64.38-1.31.59-1.93l1.64-4.63h2.57V13.28H99.37V9.45c0-1,.19-2.53.3-3.54H99.6l-.85,2.47-1.48,4H96l-1.48-4-.83-2.47h-.06c.11,1,.3,2.52.3,3.54v3.83H91.77Z" transform="translate(-1.17 -1.92)" style="fill:#fff"/><path d="M103.47,8c0-3.41,1.93-5.36,4.74-5.36S113,4.62,113,8s-1.93,5.45-4.74,5.45S103.47,11.43,103.47,8Zm7.06,0c0-2.09-.9-3.33-2.32-3.33S105.89,5.93,105.89,8s.9,3.42,2.32,3.42S110.53,10.11,110.53,8Z" transform="translate(-1.17 -1.92)" style="fill:#fff"/></g></g></g></svg>