<svg xmlns="http://www.w3.org/2000/svg" viewBox="0 0 80 70.53"><defs><style>.cls-1{fill:#fff;}</style></defs><title>noimage</title><g id="Слой_2" data-name="Слой 2"><g id="Work"><path class="cls-1" d="M66.78,15.18H13.22a1.34,1.34,0,0,0-1.34,1.34V54a1.34,1.34,0,0,0,1.34,1.34H66.78A1.34,1.34,0,0,0,68.12,54V16.52A1.34,1.34,0,0,0,66.78,15.18Zm-51,37.49,10.79-15.1,5.91,8.25-4,6.85Zm15.8,0L48,24.53,64.45,52.67ZM65.44,17.86v31.2L49.19,21.21a1.39,1.39,0,0,0-1.93-.38,1.37,1.37,0,0,0-.38.38L34,43.3,27.7,34.5a1.33,1.33,0,0,0-2.18,0l-11,15.34v-32Z"/><path class="cls-1" d="M79.87,49.54,76.15,35.67V11.16a4,4,0,0,0-4-4H68.5L67.39,3A4,4,0,0,0,62.47.14l-26.18,7H7.87a4,4,0,0,0-4,4v4.68L3,16.07A4,4,0,0,0,.13,21L3.85,34.86V59.37a4,4,0,0,0,4,4H11.5l1.11,4.18a4,4,0,0,0,4.92,2.83h0l26.18-7H72.13a4,4,0,0,0,4-4V54.69l.87-.23A4,4,0,0,0,79.87,49.54ZM63.16,2.73a1.35,1.35,0,0,1,1.64.94l.93,3.48H46.64ZM2.72,20.3a1.35,1.35,0,0,1,.95-1.64l.18-.05v5.91ZM16.84,67.81a1.35,1.35,0,0,1-1.64-.94l-.93-3.49H33.36Zm56.63-8.44a1.33,1.33,0,0,1-1.34,1.33H7.87a1.33,1.33,0,0,1-1.34-1.33V11.16A1.33,1.33,0,0,1,7.87,9.83H72.13a1.33,1.33,0,0,1,1.34,1.33Zm2.86-7.5-.18.05V46l1.13,4.22A1.36,1.36,0,0,1,76.33,51.87Z"/><path class="cls-1" d="M32,32.59a5.36,5.36,0,1,0-5.36-5.36A5.36,5.36,0,0,0,32,32.59Zm0-8a2.68,2.68,0,1,1-2.68,2.68A2.68,2.68,0,0,1,32,24.55Z"/></g></g></svg>