<svg width="198" height="165" viewBox="0 0 198 165" fill="none" xmlns="http://www.w3.org/2000/svg">
<path d="M34.6402 41.2872C34.0418 41.3995 33.4436 41.4699 32.8452 41.5367C32.2469 41.6038 31.6486 41.648 31.0503 41.6857C29.8553 41.7645 28.6571 41.7823 27.4603 41.7392L27.3961 41.7362C27.2525 41.7295 27.1155 41.674 27.0079 41.5789C26.9004 41.4839 26.8286 41.355 26.8047 41.2137L26.8046 41.2129C26.6255 40.1085 26.2688 39.0402 25.7483 38.049C25.498 37.6083 25.1625 37.2214 24.7612 36.9107C24.36 36.5999 23.9009 36.3715 23.4106 36.2387C22.9529 36.1312 22.4743 36.1523 22.0279 36.2996C21.5815 36.4469 21.1849 36.7147 20.882 37.0732C20.3376 37.7844 20.3388 38.9099 20.4437 40.06L19.1069 40.0544C19.1599 39.4817 19.0123 38.9084 18.6893 38.4318C18.5377 38.2089 18.3392 38.0216 18.1077 37.8828C17.8762 37.7439 17.6171 37.657 17.3485 37.628C17.0985 37.5886 16.8426 37.614 16.6053 37.7017C16.368 37.7894 16.1573 37.9365 15.9935 38.1288C15.8365 38.3133 15.7313 38.5359 15.6889 38.7741C15.6464 39.0122 15.6681 39.2574 15.7518 39.4844L14.5241 40.0242C14.5241 40.0242 14.5121 40.0004 14.4492 39.9744C14.3785 39.9503 14.3026 39.9461 14.2296 39.9621C14.1304 40.0038 14.041 40.0656 13.9671 40.1437C13.8932 40.2217 13.8365 40.3143 13.8005 40.4154C13.6797 40.6993 13.6284 41.0078 13.6507 41.3153C13.6694 41.6308 13.7595 41.9379 13.9143 42.2137L13.9222 42.228C13.9651 42.306 13.9923 42.3916 14.002 42.4799C14.0118 42.5683 14.004 42.6578 13.9791 42.7432C13.9542 42.8286 13.9126 42.9082 13.8568 42.9776C13.801 43.047 13.7321 43.1047 13.6539 43.1476C13.5575 43.1995 13.4503 43.2281 13.3408 43.2311C11.152 43.2841 8.96322 43.2255 6.77446 43.1385C4.58571 43.0564 2.39696 42.9484 0.208206 42.7858C0.151602 42.7816 0.098687 42.7562 0.0600728 42.7147C0.0214586 42.6733 0 42.6188 0 42.5622C0 42.5056 0.0214586 42.4511 0.0600728 42.4097C0.098687 42.3682 0.151602 42.3428 0.208206 42.3386C2.39696 42.176 4.58571 42.068 6.77446 41.9859C8.96322 41.8989 11.152 41.8403 13.3408 41.8933L12.7594 42.8963L12.7464 42.8722C12.4914 42.42 12.3426 41.916 12.3114 41.3982C12.2748 40.8727 12.3663 40.3461 12.5782 39.8635C12.6955 39.5765 12.8761 39.3195 13.1067 39.1117C13.3373 38.9039 13.6119 38.7506 13.9102 38.6632C14.2457 38.5825 14.5978 38.6032 14.9215 38.7226C15.1037 38.7887 15.2708 38.8901 15.4134 39.021C15.5559 39.1519 15.6711 39.3096 15.7521 39.4851L15.7551 39.4919C15.7908 39.5724 15.8103 39.6591 15.8123 39.7471C15.8143 39.835 15.7989 39.9225 15.7669 40.0045C15.735 40.0865 15.6871 40.1615 15.626 40.225C15.565 40.2885 15.4919 40.3394 15.4111 40.3748C15.3302 40.4101 15.2432 40.4292 15.1549 40.431C15.0667 40.4328 14.9789 40.4171 14.8967 40.385C14.8145 40.3529 14.7395 40.305 14.676 40.2439C14.6124 40.1829 14.5615 40.1099 14.5263 40.0292L14.5244 40.0249C14.3898 39.6866 14.3243 39.3249 14.3318 38.961C14.3393 38.5972 14.4197 38.2385 14.5682 37.906C14.7167 37.5735 14.9303 37.274 15.1965 37.0248C15.4627 36.7757 15.7761 36.5821 16.1184 36.4554C16.5608 36.2985 17.0335 36.2451 17.5 36.2991C17.9577 36.3504 18.399 36.4991 18.7941 36.7351C19.1892 36.9711 19.5288 37.2889 19.79 37.6669C20.2945 38.4017 20.5256 39.2892 20.4432 40.1758C20.4285 40.3428 20.3513 40.4982 20.227 40.6112C20.1027 40.7242 19.9404 40.7865 19.7722 40.7858C19.6039 40.7851 19.4421 40.7214 19.3188 40.6074C19.1955 40.4933 19.1197 40.3373 19.1064 40.1701C19.0395 39.5368 19.0319 38.8986 19.0835 38.2639C19.1395 37.5477 19.3892 36.8599 19.8062 36.2739C20.263 35.7065 20.8717 35.2796 21.5617 35.0425C22.2518 34.8054 22.9951 34.7678 23.7057 34.934C24.3728 35.1058 24.9986 35.4087 25.5466 35.8249C26.0946 36.2411 26.5537 36.7621 26.8969 37.3575C27.4957 38.4727 27.9074 39.6781 28.1155 40.9259L28.1157 40.9267L27.4603 40.4014C28.6571 40.3583 29.8553 40.3761 31.0502 40.4549C31.6486 40.4925 32.2469 40.5368 32.8452 40.6039C33.4435 40.6707 34.0418 40.7411 34.6402 40.8534C34.6909 40.8629 34.7367 40.8898 34.7696 40.9294C34.8026 40.969 34.8206 41.0188 34.8206 41.0703C34.8206 41.1217 34.8026 41.1716 34.7696 41.2112C34.7367 41.2508 34.6909 41.2776 34.6402 41.2872L34.6402 41.2872Z" fill="#333333"/>
<path d="M128.915 5.50077C129.459 5.38843 130.002 5.31809 130.545 5.25134C131.088 5.18416 131.632 5.13996 132.175 5.10229C133.259 5.02352 134.347 5.00564 135.434 5.04874L134.779 5.5741L134.779 5.57279C134.969 4.43337 135.346 3.33271 135.893 2.31454C136.209 1.76689 136.631 1.28767 137.136 0.905031C137.64 0.522387 138.216 0.244033 138.83 0.0863164C139.486 -0.0672864 140.173 -0.0323472 140.811 0.187089C141.449 0.406525 142.011 0.801484 142.433 1.32624C142.818 1.86716 143.049 2.50206 143.101 3.16335C143.148 3.74343 143.141 4.32664 143.08 4.90544C143.067 5.0726 142.991 5.22868 142.868 5.34273C142.745 5.45678 142.583 5.52047 142.414 5.52118C142.246 5.52189 142.084 5.45956 141.96 5.34656C141.835 5.23355 141.758 5.07812 141.743 4.91108C141.667 4.09167 141.881 3.27151 142.347 2.59249C142.59 2.24207 142.904 1.94755 143.271 1.72883C143.637 1.51011 144.046 1.37227 144.47 1.32464C144.903 1.27447 145.342 1.32415 145.753 1.46986C146.072 1.58784 146.363 1.7681 146.611 2.00006C146.859 2.23202 147.058 2.51101 147.196 2.82062C147.334 3.13024 147.409 3.46424 147.415 3.80301C147.422 4.14178 147.361 4.47848 147.235 4.79333C147.201 4.87426 147.15 4.94759 147.087 5.00912C147.024 5.07064 146.95 5.11916 146.868 5.15188C146.786 5.18461 146.698 5.20089 146.61 5.19981C146.522 5.19873 146.434 5.1803 146.353 5.14559C146.272 5.11087 146.199 5.06054 146.137 4.99748C146.076 4.93443 146.027 4.85989 145.995 4.77814C145.962 4.69638 145.946 4.60902 145.947 4.52106C145.949 4.43309 145.967 4.34626 146.002 4.26552L146.004 4.26088L146.008 4.25352C146.084 4.08674 146.194 3.93679 146.329 3.81236C146.465 3.68792 146.623 3.59145 146.796 3.52854C147.102 3.41567 147.434 3.39605 147.751 3.47219C148.031 3.55365 148.289 3.69699 148.505 3.89155C148.722 4.0861 148.891 4.32686 149.002 4.59588C149.198 5.04308 149.283 5.53108 149.25 6.01819C149.221 6.49753 149.083 6.9641 148.848 7.3828L148.835 7.4062L148.253 6.4032C150.241 6.35023 152.228 6.40884 154.215 6.49581C156.202 6.57793 158.189 6.68592 160.177 6.84853C160.233 6.85314 160.286 6.8787 160.324 6.92012C160.362 6.96154 160.383 7.01579 160.383 7.0721C160.383 7.12842 160.362 7.18267 160.324 7.22409C160.286 7.26551 160.233 7.29106 160.177 7.29568C158.189 7.45828 156.202 7.56627 154.215 7.64844C152.228 7.73541 150.241 7.79398 148.253 7.74104L148.248 7.74088C148.159 7.73851 148.071 7.71867 147.99 7.68251C147.908 7.64634 147.835 7.59455 147.774 7.53009C147.712 7.46562 147.664 7.38976 147.632 7.30682C147.601 7.22388 147.585 7.1355 147.588 7.04671C147.591 6.9386 147.62 6.83279 147.672 6.73792L147.679 6.72478C147.815 6.48251 147.894 6.21275 147.91 5.93572C147.93 5.66656 147.885 5.39664 147.78 5.14809C147.75 5.06497 147.705 4.98867 147.645 4.92386C147.585 4.85905 147.512 4.80711 147.432 4.77122C147.378 4.75966 147.321 4.76277 147.269 4.78024C147.224 4.79954 147.23 4.80876 147.236 4.79269L146.008 4.25284C146.079 4.05704 146.097 3.84592 146.06 3.64093C146.023 3.43593 145.932 3.24436 145.797 3.08569C145.655 2.91911 145.472 2.79183 145.266 2.71613C145.06 2.64042 144.838 2.61884 144.622 2.65347C144.387 2.6788 144.16 2.75488 143.957 2.87643C143.754 2.99798 143.581 3.16208 143.448 3.3573C143.163 3.77807 143.033 4.28414 143.08 4.78965L141.743 4.79532C141.839 3.75195 141.834 2.74573 141.357 2.12544C141.089 1.8096 140.739 1.5738 140.345 1.44416C139.951 1.31453 139.529 1.29611 139.125 1.39096C138.688 1.50974 138.279 1.71362 137.921 1.99085C137.563 2.26807 137.265 2.61313 137.042 3.00611C136.573 3.9002 136.251 4.8638 136.09 5.85982L136.09 5.86108C136.067 6.00154 135.996 6.12994 135.89 6.22491C135.784 6.31988 135.648 6.3757 135.505 6.38309L135.434 6.38656C134.347 6.42966 133.259 6.41178 132.175 6.33301C131.632 6.29538 131.088 6.25114 130.545 6.184C130.002 6.11719 129.459 6.04682 128.915 5.93458C128.865 5.92423 128.82 5.89701 128.788 5.85751C128.756 5.818 128.738 5.76862 128.738 5.71769C128.738 5.66675 128.756 5.61737 128.788 5.57787C128.82 5.53836 128.865 5.51115 128.915 5.5008L128.915 5.50077Z" fill="#333333"/>
<g opacity="0.7">
<path opacity="0.7" d="M97.3711 21.3652V25.9483" stroke="#FF7643" stroke-width="2.3278" stroke-linecap="round" stroke-linejoin="round"/>
<path opacity="0.7" d="M99.6707 23.6562H95.0723" stroke="#FF7643" stroke-width="2.3278" stroke-linecap="round" stroke-linejoin="round"/>
</g>
<path d="M127.645 23.617C128.47 23.617 129.139 22.9502 129.139 22.1278C129.139 21.3054 128.47 20.6387 127.645 20.6387C126.819 20.6387 126.15 21.3054 126.15 22.1278C126.15 22.9502 126.819 23.617 127.645 23.617Z" stroke="#FF7643" stroke-width="1.96338" stroke-linecap="round" stroke-linejoin="round"/>
<path d="M195.848 77.8416C196.673 77.8416 197.342 77.1748 197.342 76.3524C197.342 75.53 196.673 74.8633 195.848 74.8633C195.022 74.8633 194.354 75.53 194.354 76.3524C194.354 77.1748 195.022 77.8416 195.848 77.8416Z" stroke="#FF7643" stroke-width="1.96338" stroke-linecap="round" stroke-linejoin="round"/>
<g opacity="0.7">
<path opacity="0.7" d="M160.355 57.5273V63.8584" stroke="#FF7643" stroke-width="2.3278" stroke-linecap="round" stroke-linejoin="round"/>
<path opacity="0.7" d="M163.532 60.6934H157.18" stroke="#FF7643" stroke-width="2.3278" stroke-linecap="round" stroke-linejoin="round"/>
</g>
<path d="M170.322 81.0478C171.031 81.0478 171.605 80.4753 171.605 79.769C171.605 79.0628 171.031 78.4902 170.322 78.4902C169.614 78.4902 169.039 79.0628 169.039 79.769C169.039 80.4753 169.614 81.0478 170.322 81.0478Z" stroke="#FF7643" stroke-width="2.3278" stroke-linecap="round" stroke-linejoin="round"/>
<path d="M177.759 14.5662L178.385 16.8496L180.676 16.2259L180.05 13.9425L177.759 14.5662Z" stroke="#FF7643" stroke-width="1.47694" stroke-linecap="round" stroke-linejoin="round"/>
<g opacity="0.7">
<path opacity="0.7" d="M27.6934 12.709V19.0401" stroke="#FF7643" stroke-width="2.3278" stroke-linecap="round" stroke-linejoin="round"/>
<path opacity="0.7" d="M30.8698 15.875H24.5176" stroke="#FF7643" stroke-width="2.3278" stroke-linecap="round" stroke-linejoin="round"/>
</g>
<g opacity="0.7">
<path opacity="0.7" d="M8.66406 64.2832V68.459" stroke="#FF7643" stroke-width="2.3278" stroke-linecap="round" stroke-linejoin="round"/>
<path opacity="0.7" d="M10.7581 66.3711H6.56836" stroke="#FF7643" stroke-width="2.3278" stroke-linecap="round" stroke-linejoin="round"/>
</g>
<path d="M69.0487 12.0947C69.7573 12.0947 70.3317 11.5221 70.3317 10.8159C70.3317 10.1096 69.7573 9.53711 69.0487 9.53711C68.3401 9.53711 67.7656 10.1096 67.7656 10.8159C67.7656 11.5221 68.3401 12.0947 69.0487 12.0947Z" stroke="#FF7643" stroke-width="2.3278" stroke-linecap="round" stroke-linejoin="round"/>
<path d="M30.8905 52.6708C31.5991 52.6708 32.1735 52.0983 32.1735 51.3921C32.1735 50.6858 31.5991 50.1133 30.8905 50.1133C30.1819 50.1133 29.6074 50.6858 29.6074 51.3921C29.6074 52.0983 30.1819 52.6708 30.8905 52.6708Z" stroke="#FF7643" stroke-width="1.96338" stroke-linecap="round" stroke-linejoin="round"/>
<path d="M92.9484 3.75375L93.5742 6.03711L95.8652 5.4134L95.2394 3.13004L92.9484 3.75375Z" stroke="#FF7643" stroke-width="1.47694" stroke-linecap="round" stroke-linejoin="round"/>
<path d="M191.799 130.775C190.705 141.911 184.375 153.066 182.748 154.367C181.045 155.728 178.173 154.956 176.133 154.956L14.4773 154.956C14.4168 154.847 14.384 154.787 14.384 154.787C10.3717 147.788 5.81081 140.996 3.53467 133.165C-2.80471 111.356 17.3979 96.6045 30.4581 82.6455C37.9347 74.6545 38.5032 63.1468 44.9727 54.6148C53.8336 42.9293 68.8154 36.8424 83.1186 35.8915C99.5565 34.7988 113.535 40.7008 123.522 53.9751C131.738 64.8962 136.418 81.7993 149.329 88.3704C153.958 90.726 159.323 91.015 164.338 92.3564C180.696 96.7315 193.486 113.615 191.799 130.775Z" fill="#FF7643"/>
<path d="M23.5887 155.65H22.9674C20.6865 155.65 18.499 154.746 16.8861 153.139C15.2733 151.531 14.3672 149.351 14.3672 147.078V144.255H25.6588V80.7489C25.6588 79.3102 26.2322 77.9304 27.253 76.9131C28.2737 75.8957 29.6581 75.3242 31.1016 75.3242H39.2558L57.8869 131.031L40.9495 149.178L23.5887 155.65Z" fill="#FF7643"/>
<path d="M130.981 71.0273H153.758C154.459 71.0273 155.153 71.1649 155.8 71.4323C156.448 71.6996 157.036 72.0914 157.532 72.5854C158.027 73.0794 158.42 73.6658 158.689 74.3112C158.957 74.9566 159.095 75.6483 159.095 76.3469V149.193H31.9375V76.3469C31.9375 75.6483 32.0756 74.9566 32.3438 74.3112C32.612 73.6658 33.0052 73.0794 33.5008 72.5854C33.9964 72.0914 34.5848 71.6996 35.2323 71.4323C35.8799 71.1649 36.574 71.0273 37.2749 71.0273H130.981Z" fill="#FF7643"/>
<path d="M160.168 147.874V149.528C160.168 149.794 160.062 150.049 159.873 150.237C159.685 150.425 159.429 150.531 159.162 150.531H32.0044C31.7387 150.531 31.4838 150.426 31.2953 150.239C31.1067 150.053 30.9999 149.799 30.998 149.535L30.9979 149.528C30.9523 142.699 30.964 135.87 31.033 129.042C31.051 125.628 31.0922 122.213 31.1568 118.799C31.2164 115.385 31.3123 111.971 31.4445 108.556C31.4501 108.412 31.5115 108.276 31.6159 108.176C31.7203 108.075 31.8595 108.02 32.0044 108.02C32.1492 108.02 32.2884 108.075 32.3928 108.176C32.4972 108.276 32.5586 108.412 32.5642 108.556C32.6964 111.971 32.7923 115.385 32.8519 118.799C32.9108 122.213 32.952 125.628 32.9756 129.042C33.0414 135.87 33.0531 142.699 33.0107 149.528L32.0044 148.525H159.162L158.155 149.528V147.874C158.155 147.608 158.261 147.353 158.45 147.165C158.639 146.977 158.895 146.871 159.162 146.871C159.429 146.871 159.685 146.977 159.873 147.165C160.062 147.353 160.168 147.608 160.168 147.874Z" fill="#333333"/>
<path d="M131.048 70.9988C134.968 70.8673 138.887 70.7663 142.807 70.6958L148.686 70.5884L151.626 70.5478L153.096 70.5275L153.832 70.5176C154.116 70.5183 154.399 70.5365 154.68 70.5719C155.824 70.7129 156.904 71.1705 157.8 71.893C158.695 72.6154 159.369 73.5736 159.745 74.6587C159.938 75.2001 160.051 75.7662 160.082 76.3397C160.104 76.6428 160.103 76.8805 160.105 77.1222L160.11 77.8547L160.134 80.7846C160.158 84.6911 160.216 88.5976 160.211 92.5041C160.233 100.317 160.168 108.13 160.075 115.943C160.044 119.85 159.975 123.756 159.894 127.663C159.828 131.569 159.721 135.476 159.595 139.382C159.592 139.495 159.545 139.601 159.464 139.679C159.383 139.757 159.275 139.801 159.162 139.801C159.049 139.801 158.941 139.757 158.86 139.679C158.78 139.601 158.732 139.495 158.729 139.382C158.603 135.476 158.496 131.569 158.43 127.663C158.349 123.756 158.281 119.85 158.249 115.943C158.156 108.13 158.091 100.317 158.113 92.5041C158.108 88.5976 158.166 84.6911 158.19 80.7846L158.214 77.8547L158.22 77.1222C158.223 76.8755 158.225 76.6248 158.212 76.4404C158.198 76.0372 158.125 75.6381 157.996 75.2559C157.737 74.4802 157.268 73.7905 156.642 73.2625C156.016 72.7345 155.256 72.3885 154.445 72.2627C154.241 72.2311 154.036 72.2116 153.83 72.2041L153.096 72.1937L151.626 72.1734L148.686 72.1327L142.807 72.0253C138.887 71.9492 134.968 71.8481 131.048 71.7223C130.954 71.7191 130.865 71.6796 130.799 71.6121C130.734 71.5446 130.697 71.4544 130.697 71.3605C130.697 71.2667 130.734 71.1764 130.799 71.1089C130.865 71.0415 130.954 71.002 131.048 70.9988Z" fill="#333333"/>
<path d="M31.7486 98.6861C31.4242 96.2982 31.2257 93.8951 31.1537 91.4865C31.0712 89.0867 31.1325 86.6868 31.1065 84.287L31.0859 77.0875L31.0868 76.6302L31.1121 76.1041C31.1457 75.7537 31.2083 75.4066 31.299 75.0664C31.5704 74.0384 32.1013 73.0967 32.8413 72.3312C33.5812 71.5656 34.5055 71.0016 35.5261 70.693C36.1933 70.4986 36.8864 70.4064 37.5814 70.4197L39.3873 70.4146L42.9991 70.4043L50.2227 70.3838L64.6699 70.3687C74.3014 70.3813 83.9328 70.3218 93.5643 70.3936C103.196 70.4544 112.827 70.6086 122.459 70.8564C122.591 70.8597 122.716 70.9143 122.809 71.0086C122.901 71.1028 122.952 71.2293 122.952 71.3609C122.952 71.4926 122.901 71.619 122.809 71.7133C122.716 71.8075 122.591 71.8621 122.459 71.8654C112.827 72.0976 103.196 72.2519 93.5643 72.3283C83.9328 72.4 74.3014 72.3406 64.6699 72.3532L50.2227 72.338L42.9991 72.3175L39.3873 72.3073L37.5814 72.3022C37.3192 72.298 37.057 72.3098 36.7962 72.3375C36.5503 72.3676 36.3072 72.417 36.0691 72.4852C35.3509 72.6982 34.6995 73.0909 34.1769 73.6261C33.6543 74.1612 33.278 74.8209 33.0839 75.5422C33.0185 75.7814 32.9727 76.0255 32.9469 76.2722L32.9267 76.6449L32.9233 77.0874L32.9027 84.287C32.8767 86.6868 32.938 89.0867 32.8555 91.4865C32.7835 93.8951 32.5849 96.2982 32.2606 98.686C32.2519 98.7475 32.2212 98.8037 32.1741 98.8444C32.1271 98.8851 32.0669 98.9075 32.0046 98.9075C31.9423 98.9075 31.8821 98.8851 31.8351 98.8444C31.788 98.8037 31.7573 98.7475 31.7486 98.686V98.6861Z" fill="#333333"/>
<path d="M30.9975 104.179C30.9897 103.954 30.9956 103.728 31.0151 103.504C31.0518 103.269 31.1717 103.055 31.353 102.9C31.5343 102.745 31.7652 102.66 32.0039 102.66C32.2426 102.66 32.4734 102.745 32.6548 102.9C32.8361 103.055 32.9559 103.269 32.9927 103.504C33.0122 103.728 33.0181 103.954 33.0103 104.179C33.0151 104.31 32.9939 104.442 32.9477 104.566C32.9015 104.689 32.8313 104.803 32.7411 104.899C32.6508 104.996 32.5424 105.074 32.4219 105.129C32.3014 105.184 32.1713 105.214 32.0389 105.219C31.9066 105.223 31.7746 105.202 31.6506 105.155C31.5266 105.109 31.413 105.039 31.3162 104.949C31.2195 104.859 31.1416 104.75 31.0869 104.63C31.0322 104.51 31.0018 104.38 30.9975 104.248C30.9967 104.226 30.9968 104.201 30.9975 104.179Z" fill="#333333"/>
<path d="M168.669 144.883V148.439C168.67 148.642 168.66 148.845 168.639 149.047C168.486 150.723 167.71 152.282 166.464 153.417C165.217 154.553 163.59 155.183 161.902 155.184H29.2636C27.5746 155.184 25.9467 154.554 24.6999 153.419C23.4532 152.283 22.6778 150.723 22.5263 149.047C22.505 148.845 22.4949 148.642 22.4962 148.439V144.883H80.7003C80.7168 145.496 80.9732 146.079 81.4148 146.506C81.8565 146.934 82.4483 147.173 83.064 147.171H108.101C108.728 147.171 109.329 146.922 109.772 146.481C110.204 146.059 110.453 145.485 110.465 144.883H168.669Z" fill="#F79172"/>
<path d="M128.391 144.879H128.885" stroke="#333333" stroke-width="2" stroke-linecap="round" stroke-linejoin="round"/>
<path d="M189.23 154.767C189.835 154.56 190.474 154.473 191.112 154.511C191.744 154.509 192.375 154.571 192.995 154.694C193.121 154.721 193.234 154.79 193.316 154.89C193.397 154.99 193.441 155.115 193.441 155.244C193.441 155.372 193.397 155.497 193.316 155.597C193.234 155.697 193.121 155.766 192.995 155.793C192.375 155.916 191.744 155.978 191.112 155.977C190.474 156.015 189.835 155.927 189.23 155.72C189.134 155.683 189.051 155.617 188.992 155.532C188.934 155.447 188.902 155.347 188.902 155.244C188.902 155.141 188.934 155.04 188.992 154.955C189.051 154.87 189.134 154.805 189.23 154.767Z" fill="#333333"/>
<path d="M17.3774 154.792C24.4227 154.586 31.4681 154.553 38.5135 154.558L59.6495 154.541L101.921 154.508L144.194 154.474L165.33 154.457C172.375 154.463 179.42 154.478 186.466 154.654C186.62 154.658 186.766 154.722 186.874 154.832C186.982 154.942 187.042 155.09 187.042 155.243C187.042 155.397 186.982 155.545 186.874 155.655C186.766 155.765 186.62 155.829 186.466 155.832C179.42 156.009 172.375 156.024 165.33 156.03L144.194 156.013L101.921 155.979L59.6495 155.946L38.5135 155.929C31.4681 155.933 24.4227 155.9 17.3774 155.695C17.2596 155.691 17.1477 155.642 17.0656 155.558C16.9834 155.474 16.9375 155.361 16.9375 155.243C16.9375 155.126 16.9834 155.013 17.0656 154.929C17.1477 154.844 17.2596 154.795 17.3774 154.792Z" fill="#333333"/>
<path d="M13.2164 154.574C13.3079 154.563 13.4004 154.564 13.4917 154.576C13.5389 154.58 13.5853 154.591 13.6293 154.609C13.6782 154.62 13.7248 154.64 13.767 154.667C13.8428 154.718 13.9078 154.783 13.9583 154.859C14.0088 154.935 14.0438 155.02 14.0613 155.11C14.0788 155.199 14.0785 155.291 14.0604 155.38C14.0422 155.47 14.0066 155.554 13.9555 155.63C13.9052 155.704 13.8412 155.768 13.767 155.818C13.7248 155.845 13.6782 155.865 13.6293 155.876C13.5853 155.894 13.5389 155.905 13.4917 155.909C13.4004 155.921 13.3079 155.922 13.2164 155.911C13.0641 155.877 12.9279 155.792 12.8304 155.671C12.7328 155.549 12.6797 155.398 12.6797 155.243C12.6797 155.087 12.7328 154.936 12.8304 154.814C12.9279 154.693 13.0641 154.608 13.2164 154.574V154.574Z" fill="#333333"/>
<path d="M6.44612 154.757C6.89508 154.649 7.35431 154.588 7.81616 154.575C8.27689 154.535 8.74119 154.578 9.18615 154.704C9.30226 154.74 9.40393 154.811 9.47618 154.908C9.54843 155.005 9.58742 155.123 9.58742 155.244C9.58742 155.365 9.54843 155.483 9.47618 155.58C9.40393 155.677 9.30226 155.749 9.18615 155.784C8.74119 155.91 8.27689 155.954 7.81616 155.913C7.35431 155.901 6.89508 155.84 6.44612 155.731C6.33795 155.703 6.24218 155.64 6.17381 155.552C6.10545 155.464 6.06836 155.356 6.06836 155.244C6.06836 155.133 6.10545 155.025 6.17381 154.936C6.24218 154.848 6.33795 154.785 6.44612 154.757V154.757Z" fill="#333333"/>
<path d="M82.4493 163.757C84.6482 163.549 86.8471 163.522 89.0461 163.518L95.6428 163.483L108.836 163.416L122.03 163.418L128.627 163.42C130.826 163.429 133.025 163.442 135.224 163.619C135.372 163.631 135.511 163.698 135.612 163.807C135.713 163.916 135.769 164.06 135.769 164.208C135.769 164.357 135.713 164.5 135.612 164.609C135.511 164.718 135.372 164.785 135.224 164.797C133.025 164.974 130.826 164.987 128.627 164.997L122.03 164.998L108.836 165L95.6428 164.933L89.0461 164.898C86.8471 164.894 84.6482 164.867 82.4493 164.66C82.3365 164.649 82.2318 164.597 82.1556 164.513C82.0793 164.43 82.0371 164.321 82.0371 164.208C82.0371 164.095 82.0793 163.986 82.1556 163.903C82.2318 163.819 82.3365 163.767 82.4493 163.757Z" fill="#333333"/>
<path d="M60.7349 163.722C62.9888 163.604 65.2427 163.561 67.4967 163.54C69.7506 163.518 72.0045 163.527 74.2584 163.669C74.3962 163.678 74.5255 163.739 74.6199 163.839C74.7144 163.939 74.767 164.072 74.767 164.209C74.767 164.347 74.7144 164.479 74.6199 164.58C74.5255 164.68 74.3962 164.741 74.2584 164.749C72.0045 164.891 69.7506 164.9 67.4967 164.878C65.2427 164.858 62.9888 164.815 60.7349 164.696C60.6098 164.69 60.492 164.635 60.4058 164.545C60.3196 164.454 60.2715 164.334 60.2715 164.209C60.2715 164.084 60.3196 163.964 60.4058 163.874C60.492 163.783 60.6098 163.729 60.7349 163.722Z" fill="#333333"/>
<path d="M164.528 149.047C165.063 149.046 165.585 149.209 166.023 149.514C166.462 149.818 166.796 150.25 166.981 150.75C167.165 151.25 167.191 151.795 167.055 152.31C166.919 152.825 166.627 153.286 166.219 153.631C165.007 154.636 163.48 155.186 161.903 155.184H29.2647C27.6864 155.187 26.1574 154.637 24.9445 153.63C24.537 153.286 24.2454 152.825 24.1094 152.309C23.9733 151.794 23.9993 151.25 24.1838 150.75C24.3684 150.25 24.7025 149.818 25.1411 149.514C25.5797 149.209 26.1015 149.046 26.636 149.047H164.528Z" fill="#FF7643"/>
<path d="M21.9215 149.113C21.7769 148.371 21.6803 147.621 21.6324 146.867C21.6025 146.494 21.5794 146.162 21.5625 145.756C21.5643 145.382 21.6784 145.018 21.89 144.71C22.1017 144.402 22.4013 144.164 22.75 144.027C22.9258 143.958 23.1113 143.915 23.2999 143.902L23.6333 143.888L24.18 143.87L25.2734 143.837C26.0023 143.827 26.7312 143.791 27.4601 143.801C28.9179 143.794 30.3757 143.84 31.8336 143.925C33.3064 144.005 34.7696 144.212 36.207 144.541C36.2835 144.56 36.3514 144.604 36.4 144.665C36.4486 144.727 36.475 144.803 36.475 144.882C36.475 144.96 36.4486 145.036 36.4 145.098C36.3514 145.16 36.2835 145.204 36.207 145.222C34.7696 145.552 33.3064 145.758 31.8336 145.838C30.3757 145.923 28.9179 145.97 27.4601 145.963C26.7312 145.973 26.0023 145.937 25.2734 145.926L24.18 145.893L23.6333 145.875L23.4967 145.871C23.4711 145.872 23.4455 145.871 23.4202 145.867L23.4378 145.855C23.4418 145.851 23.4449 145.846 23.4469 145.841C23.4488 145.836 23.4496 145.831 23.4491 145.825C23.4486 145.82 23.4469 145.815 23.4441 145.81C23.4412 145.806 23.4374 145.802 23.4328 145.799L23.3608 146.867L23.2582 147.957L23.1904 148.494C23.1767 148.652 23.1575 148.814 23.1318 148.979L23.1167 149.076C23.0949 149.215 23.0248 149.343 22.9185 149.437C22.8122 149.53 22.6764 149.584 22.5346 149.589C22.3927 149.593 22.2539 149.548 22.1419 149.461C22.03 149.374 21.952 149.251 21.9215 149.113H21.9215Z" fill="#333333"/>
<path d="M106.647 146.67L107.921 146.544C108.092 146.536 108.26 146.505 108.422 146.45C108.563 146.401 108.696 146.334 108.819 146.249C109.053 146.088 109.238 145.867 109.356 145.609C109.46 145.374 109.495 145.115 109.459 144.861L109.459 144.858L109.461 144.821C109.477 144.566 109.589 144.327 109.776 144.152C109.962 143.977 110.209 143.879 110.465 143.879L162.79 143.981L166.06 143.987L167.705 143.991C168.098 143.997 168.479 144.124 168.795 144.356C169.112 144.588 169.347 144.913 169.47 145.285C169.509 145.409 169.536 145.536 169.551 145.665L169.562 145.858L169.562 145.963L169.562 147.592L169.562 148.407C169.545 148.706 169.548 149.033 169.501 149.329C169.359 150.554 168.918 151.727 168.216 152.742C167.516 153.762 166.579 154.597 165.485 155.176C164.391 155.756 163.172 156.062 161.933 156.07L155.389 156.071L129.226 156.069L76.902 156.037L50.7398 156.006L37.6586 155.99L31.1181 155.983L29.4829 155.981C28.8821 155.996 28.2816 155.936 27.6956 155.803C26.5101 155.539 25.4411 154.902 24.6464 153.986C24.5765 153.902 24.5379 153.797 24.5371 153.688C24.5364 153.579 24.5735 153.473 24.6422 153.388C24.7109 153.303 24.807 153.245 24.9141 153.223C25.0211 153.201 25.1326 153.216 25.2294 153.267L25.2411 153.273C26.1105 153.746 27.0481 154.082 28.0206 154.269C28.5029 154.357 28.9928 154.395 29.4829 154.385L31.1181 154.383L37.6586 154.375L50.7398 154.36L76.902 154.329L129.226 154.297L155.389 154.295L161.926 154.293C162.876 154.287 163.811 154.051 164.65 153.606C165.489 153.161 166.208 152.52 166.744 151.738C167.285 150.956 167.624 150.054 167.73 149.11C167.769 148.869 167.759 148.649 167.777 148.407L167.777 147.592L167.777 145.962L167.777 145.864C167.775 145.86 167.775 145.857 167.776 145.853L167.772 145.835C167.768 145.823 167.761 145.812 167.752 145.803C167.744 145.794 167.734 145.786 167.722 145.781C167.71 145.776 167.698 145.773 167.685 145.774L166.06 145.776L162.79 145.783L110.465 145.885L111.471 144.906L111.471 144.914C111.415 145.511 111.195 146.081 110.834 146.562C110.488 147.02 110.025 147.376 109.493 147.594C109.235 147.699 108.965 147.769 108.688 147.802C108.433 147.83 108.175 147.828 107.921 147.796L106.647 147.671C106.522 147.658 106.407 147.6 106.323 147.508C106.239 147.415 106.192 147.295 106.192 147.17C106.192 147.045 106.239 146.925 106.323 146.832C106.407 146.74 106.522 146.682 106.647 146.67V146.67Z" fill="#333333"/>
<path d="M42.2829 144.284C45.4843 143.976 48.6858 143.9 51.8873 143.881L61.4916 143.815C64.6931 143.786 67.8946 143.811 71.096 143.806C74.2975 143.809 77.499 143.833 80.7004 143.879C80.9581 143.882 81.2049 143.983 81.3913 144.16C81.5777 144.338 81.6899 144.579 81.7054 144.835L81.7066 144.858C81.724 145.115 81.814 145.361 81.9662 145.569C82.1183 145.776 82.3263 145.937 82.5662 146.032C82.8739 146.128 83.1988 146.156 83.5187 146.116L84.8858 146.114L90.3545 146.148L95.8232 146.256C97.6461 146.309 99.469 146.228 101.292 146.76C101.401 146.792 101.493 146.865 101.548 146.965C101.602 147.064 101.615 147.181 101.583 147.29C101.563 147.359 101.525 147.422 101.474 147.472C101.423 147.523 101.361 147.56 101.292 147.581C99.469 148.112 97.6461 148.032 95.8232 148.084L90.3545 148.193L84.8858 148.226L83.5187 148.224C83.2803 148.219 83.1063 148.229 82.7353 148.202C82.4077 148.166 82.0867 148.086 81.7811 147.963C81.1703 147.714 80.6466 147.292 80.2754 146.748C79.9043 146.204 79.7022 145.563 79.6943 144.906L80.7004 145.885C77.4989 145.928 74.2975 145.953 71.096 145.958C67.8946 145.953 64.6931 145.978 61.4916 145.949L51.8873 145.883C48.6858 145.864 45.4843 145.788 42.2829 145.48C42.1338 145.465 41.9954 145.396 41.8947 145.286C41.7941 145.175 41.7383 145.031 41.7383 144.882C41.7383 144.733 41.7941 144.589 41.8947 144.478C41.9954 144.368 42.1338 144.299 42.2829 144.284V144.284Z" fill="#333333"/>
<path d="M133.898 80.0508C133.866 80.5177 133.842 80.9846 133.82 81.4515L133.898 80.0508Z" fill="#333333"/>
<path d="M171.302 92.0234L175.914 93.1205C176.242 93.1986 176.552 93.3404 176.825 93.5377C177.098 93.7351 177.33 93.9841 177.506 94.2707C177.683 94.5572 177.802 94.8756 177.855 95.2078C177.908 95.5399 177.895 95.8792 177.817 96.2064L163.953 154.098C163.874 154.425 163.732 154.734 163.534 155.006C163.336 155.279 163.086 155.51 162.799 155.686C162.511 155.862 162.192 155.98 161.858 156.033C161.525 156.086 161.185 156.073 160.857 155.995L113.542 144.739C113.213 144.661 112.904 144.52 112.63 144.322C112.357 144.125 112.126 143.876 111.949 143.589C111.772 143.303 111.654 142.984 111.601 142.652C111.547 142.32 111.56 141.981 111.639 141.653L125.503 83.7615C125.661 83.1008 126.076 82.5298 126.657 82.1741C127.237 81.8184 127.936 81.7072 128.599 81.8649L159.301 89.1685" fill="white"/>
<path d="M161.894 156.028C161.549 156.087 161.196 156.076 160.857 155.995L113.542 144.739C113.213 144.661 112.904 144.519 112.63 144.322C112.357 144.125 112.126 143.876 111.949 143.589C111.772 143.303 111.654 142.984 111.601 142.652C111.547 142.32 111.56 141.981 111.639 141.653L125.503 83.7615C125.661 83.1008 126.076 82.5298 126.657 82.1741C127.237 81.8184 127.936 81.7072 128.599 81.8649L159.301 89.1685" fill="white"/>
<path d="M161.971 156.475C161.532 156.665 161.048 156.729 160.574 156.659C160.183 156.626 159.797 156.572 159.413 156.505C158.649 156.364 157.897 156.172 157.141 155.997L152.608 154.932L143.541 152.801L125.408 148.539L116.342 146.409L114.075 145.876C113.648 145.789 113.226 145.676 112.813 145.536C112.055 145.236 111.424 144.685 111.025 143.976C110.627 143.267 110.485 142.443 110.625 141.642C110.677 141.343 110.717 141.222 110.763 141.015L110.896 140.45L111.164 139.32L115.442 121.249L124.122 85.1339L124.393 84.0053C124.444 83.8031 124.471 83.6606 124.541 83.4095C124.611 83.1482 124.713 82.8962 124.843 82.659C125.102 82.1818 125.466 81.7694 125.908 81.4527C126.35 81.136 126.858 80.9232 127.394 80.8304C127.662 80.7863 127.935 80.7718 128.206 80.7872C128.341 80.7942 128.476 80.81 128.609 80.8343C128.748 80.8588 128.877 80.8858 128.957 80.9067L130.089 81.177L132.354 81.7177L141.413 83.8804L150.472 86.043C153.478 86.8189 156.558 87.2871 159.428 88.6338C159.545 88.6887 159.639 88.7821 159.695 88.8982C159.752 89.0143 159.766 89.1461 159.736 89.2715C159.706 89.3968 159.633 89.508 159.531 89.5864C159.428 89.6648 159.302 89.7056 159.172 89.7019C156.002 89.6116 153.041 88.6429 150.007 87.9819L140.945 85.8338L131.883 83.6856L129.617 83.1486L128.484 82.8801C128.376 82.8525 128.315 82.8433 128.263 82.834C128.205 82.8228 128.147 82.816 128.088 82.8135C127.972 82.8074 127.855 82.8134 127.74 82.8316C127.508 82.8726 127.29 82.9651 127.099 83.1022C126.909 83.2392 126.752 83.4174 126.64 83.6233C126.583 83.7253 126.54 83.8342 126.511 83.9473C126.474 84.068 126.423 84.305 126.38 84.4781L126.111 85.6071L117.49 121.736L113.118 139.785L112.592 141.982C112.528 142.335 112.588 142.7 112.762 143.014C112.936 143.328 113.214 143.572 113.548 143.706C113.707 143.778 114.176 143.875 114.533 143.965L116.797 144.51L125.851 146.69L143.961 151.049L153.015 153.229L157.543 154.319C158.297 154.504 159.055 154.671 159.801 154.889C160.173 155.002 160.542 155.127 160.905 155.274C161.194 155.414 161.5 155.517 161.815 155.579L161.853 155.587C161.951 155.606 162.04 155.655 162.108 155.727C162.176 155.799 162.219 155.891 162.232 155.989C162.245 156.087 162.227 156.186 162.18 156.274C162.133 156.361 162.06 156.431 161.971 156.475L161.971 156.475Z" fill="#333333"/>
<path d="M171.301 92.0234L175.913 93.1206C176.241 93.1987 176.551 93.3404 176.824 93.5378C177.098 93.7351 177.329 93.9842 177.506 94.2707C177.683 94.5573 177.801 94.8757 177.854 95.2078C177.907 95.54 177.894 95.8793 177.816 96.2065L168.084 136.845" fill="white"/>
<path d="M171.406 91.5813C171.929 91.3684 172.512 91.3513 173.047 91.5333C173.567 91.629 174.083 91.7397 174.6 91.8488L176.146 92.2103C176.851 92.3851 177.484 92.7752 177.956 93.3261C178.428 93.873 178.719 94.5512 178.791 95.2689C178.827 95.6255 178.806 95.9857 178.73 96.336L178.553 97.1285L177.855 100.209L175.054 112.53C174.589 114.584 174.107 116.633 173.607 118.679C173.116 120.727 172.632 122.776 172.098 124.813C171.579 126.854 171.002 128.882 170.423 130.908L169.553 133.948C169.253 134.959 169.006 135.982 168.619 136.973C168.57 137.097 168.478 137.2 168.359 137.262C168.24 137.325 168.103 137.342 167.972 137.311C167.841 137.279 167.726 137.202 167.648 137.093C167.57 136.984 167.535 136.851 167.548 136.718C167.651 135.66 167.894 134.636 168.085 133.599L168.687 130.495C169.088 128.426 169.492 126.358 169.953 124.303C170.401 122.245 170.897 120.199 171.387 118.151C171.87 116.101 172.369 114.055 172.883 112.013L175.967 99.76L176.74 96.6973L176.924 95.9527C176.96 95.7878 176.97 95.6182 176.952 95.4504C176.919 95.1124 176.779 94.7936 176.552 94.5406C176.325 94.291 176.029 94.1156 175.7 94.0377L174.165 93.6649C173.654 93.5296 173.144 93.3959 172.636 93.2473C172.077 93.169 171.565 92.8915 171.195 92.4662C171.148 92.4045 171.113 92.3342 171.094 92.2593C171.074 92.1845 171.07 92.1065 171.08 92.0299C171.091 91.9532 171.117 91.8794 171.156 91.8127C171.195 91.746 171.247 91.6876 171.309 91.6409C171.34 91.6181 171.372 91.5982 171.406 91.5813Z" fill="#333333"/>
<path d="M123.268 110.191L128.497 88.3581C128.602 87.9183 128.879 87.5381 129.265 87.3013C129.652 87.0645 130.117 86.9904 130.558 87.0954L171.746 96.8936C172.188 96.9986 172.569 97.274 172.807 97.6593C173.044 98.0446 173.119 98.5082 173.013 98.948L167.785 120.781C167.733 120.999 167.638 121.204 167.506 121.386C167.374 121.567 167.208 121.721 167.017 121.838C166.825 121.955 166.612 122.034 166.391 122.069C166.169 122.104 165.942 122.096 165.723 122.044L124.535 112.245C124.317 112.193 124.111 112.099 123.929 111.968C123.747 111.836 123.592 111.671 123.475 111.48C123.357 111.289 123.278 111.077 123.243 110.856C123.208 110.635 123.216 110.409 123.268 110.191L123.268 110.191Z" stroke="#333333" stroke-width="2" stroke-linecap="round" stroke-linejoin="round"/>
<path d="M124.428 124.332C127.595 124.81 130.71 125.504 133.811 126.257L143.109 128.534C146.211 129.281 149.298 130.093 152.393 130.869C155.486 131.653 158.574 132.461 161.656 133.292C161.765 133.322 161.857 133.392 161.915 133.488C161.972 133.584 161.99 133.699 161.964 133.808C161.938 133.917 161.87 134.011 161.775 134.071C161.68 134.131 161.566 134.152 161.456 134.129C158.33 133.48 155.209 132.81 152.093 132.122C148.98 131.421 145.858 130.756 142.751 130.026L133.423 127.873C130.316 127.148 127.222 126.366 124.18 125.366C124.053 125.325 123.946 125.236 123.88 125.12C123.815 125.003 123.796 124.866 123.827 124.736C123.858 124.606 123.937 124.492 124.049 124.417C124.16 124.343 124.295 124.312 124.428 124.332L124.428 124.332Z" fill="#333333"/>
<path d="M137.966 133.088C141.786 133.604 145.566 134.379 149.28 135.406C153.012 136.343 156.727 137.349 160.414 138.474C160.511 138.503 160.593 138.569 160.644 138.656C160.694 138.744 160.709 138.848 160.685 138.946C160.662 139.044 160.601 139.13 160.517 139.186C160.432 139.241 160.329 139.263 160.229 139.245C156.43 138.59 152.659 137.815 148.905 136.971C145.126 136.215 141.402 135.205 137.761 133.946C137.659 133.907 137.575 133.834 137.525 133.738C137.474 133.643 137.46 133.532 137.485 133.427C137.51 133.322 137.573 133.23 137.661 133.167C137.75 133.105 137.858 133.077 137.966 133.088L137.966 133.088Z" fill="#333333"/>
<path d="M123.188 129.51C124.816 129.577 126.429 129.852 127.987 130.327C129.561 130.725 131.113 131.203 132.639 131.758C132.755 131.801 132.851 131.885 132.909 131.994C132.967 132.103 132.984 132.229 132.955 132.35C132.926 132.47 132.854 132.575 132.753 132.646C132.652 132.717 132.528 132.749 132.405 132.735C130.792 132.543 129.191 132.271 127.606 131.918C126 131.641 124.437 131.16 122.954 130.487C122.851 130.434 122.768 130.348 122.719 130.243C122.671 130.138 122.659 130.019 122.686 129.907C122.713 129.794 122.777 129.694 122.868 129.622C122.959 129.55 123.072 129.51 123.188 129.51L123.188 129.51Z" fill="#333333"/>
<path d="M154.823 142.645C155.583 142.552 156.352 142.573 157.105 142.707C157.475 142.758 157.839 142.843 158.192 142.962C158.56 143.084 158.905 143.267 159.211 143.504C159.295 143.573 159.358 143.664 159.393 143.767C159.427 143.87 159.432 143.981 159.407 144.086C159.382 144.192 159.327 144.289 159.249 144.365C159.172 144.441 159.074 144.494 158.968 144.518C158.587 144.591 158.197 144.6 157.814 144.542C157.444 144.49 157.081 144.402 156.728 144.281C155.995 144.062 155.3 143.734 154.665 143.309C154.604 143.267 154.558 143.207 154.532 143.139C154.506 143.07 154.501 142.995 154.518 142.923C154.535 142.852 154.573 142.787 154.628 142.738C154.682 142.688 154.75 142.656 154.823 142.645L154.823 142.645Z" fill="#333333"/>
<path d="M121.927 134.773C124.176 135.214 126.42 135.673 128.66 136.151C130.898 136.638 133.141 137.101 135.375 137.607L142.075 139.119C144.322 139.58 146.535 140.194 148.698 140.956C148.829 141.005 148.938 141.1 149.004 141.222C149.069 141.345 149.088 141.488 149.055 141.623C149.023 141.759 148.942 141.878 148.827 141.958C148.713 142.038 148.573 142.073 148.435 142.057C146.159 141.764 143.907 141.315 141.693 140.716L135.029 139.048C132.808 138.495 130.596 137.898 128.379 137.325C126.164 136.743 123.954 136.143 121.748 135.524C121.651 135.497 121.569 135.434 121.518 135.348C121.468 135.262 121.452 135.159 121.475 135.062C121.499 134.965 121.559 134.881 121.643 134.827C121.727 134.773 121.829 134.754 121.927 134.773V134.773Z" fill="#333333"/>
<path d="M125.673 119.132C127.922 119.573 130.166 120.033 132.406 120.51C134.644 120.997 136.888 121.46 139.121 121.966L145.821 123.478C148.068 123.94 150.281 124.554 152.444 125.316C152.575 125.364 152.684 125.459 152.75 125.582C152.815 125.705 152.834 125.847 152.801 125.983C152.769 126.118 152.688 126.237 152.574 126.317C152.459 126.397 152.319 126.432 152.181 126.417C149.905 126.123 147.653 125.675 145.439 125.075L138.775 123.408C136.554 122.854 134.342 122.257 132.125 121.684C129.91 121.103 127.7 120.502 125.494 119.883C125.397 119.856 125.315 119.793 125.264 119.707C125.214 119.621 125.198 119.519 125.222 119.422C125.245 119.325 125.305 119.24 125.389 119.186C125.473 119.132 125.575 119.113 125.673 119.132V119.132Z" fill="#333333"/>
<path d="M156.855 126.551C157.766 126.59 158.673 126.682 159.572 126.829C160.019 126.897 160.464 126.978 160.907 127.065C161.376 127.109 161.818 127.307 162.163 127.629C162.225 127.691 162.274 127.764 162.307 127.845C162.34 127.926 162.358 128.012 162.357 128.1C162.357 128.187 162.34 128.274 162.306 128.354C162.272 128.435 162.223 128.508 162.16 128.57C162.087 128.642 161.997 128.697 161.899 128.73C161.446 128.861 160.962 128.839 160.523 128.668C160.088 128.545 159.655 128.418 159.225 128.277C158.356 128.003 157.505 127.677 156.676 127.302C156.592 127.264 156.525 127.199 156.485 127.117C156.445 127.035 156.435 126.942 156.456 126.853C156.477 126.764 156.529 126.686 156.602 126.631C156.674 126.576 156.764 126.548 156.855 126.551Z" fill="#333333"/>
<path d="M120.687 139.953C122.695 140.307 124.698 140.681 126.691 141.099C128.687 141.504 130.681 141.917 132.667 142.36C136.666 143.151 140.61 144.192 144.478 145.477C144.591 145.519 144.685 145.6 144.742 145.706C144.799 145.811 144.815 145.934 144.787 146.051C144.759 146.168 144.689 146.27 144.59 146.339C144.491 146.408 144.371 146.438 144.251 146.424C140.218 145.83 136.227 144.983 132.301 143.889C130.328 143.39 128.362 142.861 126.397 142.324C124.43 141.8 122.473 141.232 120.521 140.644C120.434 140.618 120.36 140.559 120.315 140.481C120.27 140.402 120.256 140.309 120.277 140.221C120.298 140.132 120.353 140.055 120.429 140.006C120.505 139.956 120.597 139.937 120.687 139.953V139.953Z" fill="#333333"/>
<path d="M162.932 89.3155L163.21 89.3125C163.42 89.3108 163.621 89.3919 163.77 89.538C163.92 89.6841 164.005 89.8833 164.007 90.092C164.01 90.3006 163.929 90.5015 163.782 90.6508C163.636 90.8 163.436 90.8854 163.227 90.8881C163.097 90.8891 162.969 90.8586 162.854 90.7994L162.607 90.6715C162.465 90.5976 162.351 90.4783 162.284 90.3325C162.217 90.1868 162.201 90.023 162.238 89.8671C162.276 89.7113 162.364 89.5723 162.49 89.4724C162.616 89.3724 162.771 89.3172 162.932 89.3155H162.932Z" fill="#333333"/>
<path d="M127.195 95.6875L130.366 102.897L135.329 102.128C135.329 102.128 138.78 104.776 138.592 104.72C138.403 104.663 144.906 101.066 144.906 101.066L147.189 103.041L151.122 103.189L153.287 110.548L160.795 106.349" stroke="#FF7643" stroke-width="3" stroke-linecap="round" stroke-linejoin="round"/>
<path d="M125.148 100.489L131.987 94.6963C132.084 94.614 132.201 94.5575 132.326 94.5321C132.451 94.5067 132.581 94.5132 132.702 94.551C132.824 94.5888 132.935 94.6567 133.023 94.7484C133.112 94.84 133.175 94.9525 133.209 95.0753L133.217 95.1091L134.518 100.026L133.474 99.5057L138.665 97.4098C138.837 97.3405 139.028 97.3347 139.204 97.3934C139.38 97.4522 139.529 97.5716 139.624 97.7302L144.565 105.963L143.759 105.599L149.206 104.612C149.409 104.576 149.619 104.621 149.788 104.738L154.047 107.684L153.101 107.73L157.185 104.269L157.213 104.245C157.364 104.118 157.559 104.055 157.757 104.071C157.954 104.087 158.136 104.18 158.264 104.33C158.295 104.366 158.322 104.405 158.346 104.447L162.399 111.621C162.446 111.704 162.459 111.801 162.435 111.893C162.412 111.985 162.354 112.064 162.274 112.115C162.193 112.165 162.096 112.183 162.003 112.165C161.91 112.146 161.828 112.092 161.773 112.014L157.031 105.272L158.192 105.45L154.108 108.91C153.977 109.021 153.814 109.085 153.642 109.093C153.471 109.102 153.302 109.054 153.161 108.956L148.902 106.011L149.484 106.136L144.037 107.123C143.882 107.151 143.721 107.131 143.577 107.066C143.433 107.001 143.313 106.894 143.231 106.759L138.29 98.5253L139.249 98.8456L134.058 100.941C133.963 100.98 133.862 100.999 133.76 100.998C133.658 100.997 133.557 100.977 133.463 100.937C133.369 100.897 133.284 100.839 133.212 100.767C133.141 100.694 133.084 100.609 133.046 100.514C133.034 100.484 133.023 100.453 133.015 100.421L131.714 95.5039L132.944 95.9167L125.654 101.133C125.568 101.195 125.461 101.221 125.356 101.206C125.251 101.191 125.156 101.136 125.091 101.053C125.025 100.97 124.995 100.865 125.006 100.76C125.016 100.654 125.067 100.557 125.148 100.489L125.148 100.489Z" fill="#333333"/>
<path d="M81.5277 141.216L32.9087 161.104L5.63477 99.2355L55.4439 78.2539L81.5277 141.216Z" fill="white"/>
<path d="M44.7743 82.4135L55.4931 77.873L82.0592 140.356L38.5957 158.768" fill="white"/>
<path d="M44.5769 81.9497L49.85 79.4763C51.6067 78.6495 53.3629 77.8216 55.1399 77.0423C55.357 76.9471 55.6032 76.9417 55.8243 77.0274C56.0454 77.1131 56.2232 77.2828 56.3188 77.4992L56.3217 77.506L56.3281 77.5208L82.8942 140.004C82.9407 140.113 82.9651 140.23 82.9662 140.349C82.9672 140.467 82.9449 140.585 82.9003 140.695C82.8558 140.805 82.79 140.905 82.7066 140.989C82.6233 141.074 82.524 141.141 82.4146 141.187L71.5584 145.813L60.6774 150.381L49.7796 154.908C46.1424 156.407 42.5011 157.896 38.7803 159.199C38.6675 159.238 38.544 159.233 38.4347 159.185C38.3253 159.137 38.2385 159.049 38.1918 158.94C38.145 158.83 38.1419 158.707 38.183 158.595C38.2242 158.483 38.3065 158.391 38.4132 158.338C41.9362 156.572 45.5389 154.992 49.1457 153.422L59.9796 148.744L70.8304 144.106L81.7061 139.526L81.2265 140.709L54.6604 78.2252L55.8484 78.7036C54.0522 79.438 52.2353 80.1236 50.4189 80.8104L44.9727 82.8779C44.8503 82.9244 44.7146 82.9218 44.5941 82.8707C44.4736 82.8196 44.3776 82.7239 44.3264 82.6037C44.2752 82.4836 44.2726 82.3483 44.3193 82.2264C44.366 82.1044 44.4584 82.0052 44.5769 81.9497L44.5769 81.9497Z" fill="#333333"/>
<path d="M40.2041 84.627L6.21484 99.0253L15.2476 120.272" fill="white"/>
<path d="M40.3479 84.9627C37.6562 86.4645 34.8895 87.8286 32.0584 89.0497C29.2362 90.2737 26.4158 91.5017 23.5813 92.697C20.7512 93.9023 17.9132 95.0892 15.0674 96.2578C12.2227 97.4289 9.36675 98.5737 6.49961 99.6922L6.88438 98.7432L11.38 109.375C12.1256 111.149 12.8762 112.92 13.6605 114.678C14.4785 116.426 15.1396 118.244 15.6362 120.109C15.6599 120.207 15.648 120.31 15.6025 120.4C15.557 120.49 15.4809 120.561 15.3878 120.6C15.2947 120.639 15.1906 120.644 15.0941 120.614C14.9976 120.584 14.9149 120.521 14.8608 120.436C13.8619 118.783 13.0116 117.046 12.3199 115.244C11.5987 113.46 10.8438 111.69 10.0838 109.923L5.54629 99.3083C5.47236 99.1354 5.46897 98.9405 5.53684 98.7651C5.60471 98.5897 5.7385 98.4476 5.90981 98.3689L5.93114 98.3592C8.7294 97.0791 11.5384 95.8242 14.3581 94.5944C17.1776 93.3642 20.0045 92.1514 22.8389 90.956C25.6694 89.7515 28.5139 88.5798 31.3566 87.4041C34.2035 86.22 37.109 85.1813 40.0619 84.292C40.1485 84.2669 40.2412 84.2742 40.3226 84.3127C40.4041 84.3512 40.4685 84.4181 40.5038 84.5008C40.539 84.5834 40.5426 84.6761 40.5139 84.7612C40.4852 84.8464 40.4261 84.918 40.3479 84.9627L40.3479 84.9627Z" fill="#000102"/>
<path d="M20.3926 131.667C20.6028 131.904 20.775 132.171 20.9031 132.461C21.046 132.737 21.1753 133.019 21.3019 133.302L22.0752 134.995C22.3386 135.557 22.5885 136.125 22.8249 136.698C22.948 136.984 23.0445 137.282 23.113 137.586C23.1982 137.891 23.2618 138.201 23.3034 138.515C23.3098 138.576 23.2964 138.638 23.2651 138.69C23.2339 138.743 23.1864 138.785 23.1298 138.809C23.0731 138.833 23.0103 138.838 22.9504 138.823C22.8906 138.809 22.837 138.776 22.7975 138.729C22.6002 138.481 22.4206 138.219 22.26 137.946C22.0884 137.686 21.9411 137.41 21.8201 137.122C21.5715 136.554 21.3361 135.98 21.114 135.401L20.4316 133.67C20.3155 133.382 20.2022 133.093 20.1025 132.799C19.983 132.506 19.9096 132.196 19.8851 131.881C19.8822 131.821 19.8978 131.762 19.9298 131.711C19.9617 131.66 20.0085 131.621 20.0638 131.597C20.1192 131.574 20.1803 131.568 20.2391 131.581C20.2979 131.593 20.3514 131.623 20.3926 131.667V131.667Z" fill="#333333"/>
<path d="M39.226 145.315C39.2226 145.308 35.9518 146.705 35.7258 146.8C35.6722 146.829 35.6116 146.843 35.5508 146.839C35.5285 146.833 35.5082 146.822 35.4914 146.806C35.4746 146.79 35.4619 146.77 35.4544 146.748C33.58 143.046 32.4523 139.033 30.823 135.226C30.1487 133.765 29.3936 132.338 28.6795 130.895L28.6523 130.84C29.8865 130.317 31.1229 129.799 32.3522 129.266C31.8386 129.489 38.5394 144.025 39.226 145.315Z" fill="#FF7643"/>
<path d="M45.8927 142.492C45.8903 142.488 42.6179 143.882 42.392 143.977C42.3386 144.004 42.2811 144.021 42.2219 144.027C42.2055 144.029 42.1892 144.025 42.1752 144.016C42.1612 144.007 42.1503 143.995 42.144 143.98C40.8985 141.747 40.399 139.202 39.3988 136.865C38.9688 135.975 38.4581 135.118 37.9881 134.246L37.9707 134.212C39.2044 133.69 40.4399 133.17 41.6711 132.641C41.1567 132.862 45.4271 141.719 45.8927 142.492Z" fill="#FF7643"/>
<path d="M52.1927 139.822C52.1899 139.817 48.9182 141.212 48.6922 141.307C48.6388 141.334 48.58 141.35 48.52 141.352C48.5008 141.35 48.4825 141.343 48.4673 141.331C48.4521 141.319 48.4405 141.303 48.4339 141.285C46.9092 138.4 46.1308 135.203 44.8513 132.214C44.3129 131.07 43.6936 129.96 43.1153 128.835L43.0938 128.792C44.3274 128.269 45.5634 127.75 46.7937 127.219C46.2797 127.441 51.629 138.819 52.1927 139.822Z" fill="#FF7643"/>
<path d="M58.5862 137.115C58.583 137.109 55.3118 138.505 55.0858 138.6C55.0323 138.628 54.9726 138.643 54.912 138.642C54.8911 138.638 54.8717 138.628 54.8557 138.614C54.8396 138.6 54.8275 138.582 54.8204 138.562C53.1074 135.237 52.1409 131.601 50.6731 128.171C50.0615 126.857 49.3691 125.576 48.7177 124.279L48.6934 124.23C49.927 123.707 51.1632 123.189 52.393 122.656C51.8792 122.879 57.9563 135.957 58.5862 137.115Z" fill="#FF7643"/>
<path d="M65.2509 134.291C65.2482 134.286 61.9763 135.681 61.7504 135.776C61.697 135.803 61.6386 135.819 61.5788 135.823C61.5605 135.822 61.5428 135.816 61.528 135.805C61.5132 135.794 61.5018 135.78 61.4954 135.762C60.0616 133.089 59.374 130.105 58.1854 127.328C57.6823 126.267 57.0984 125.24 56.5553 124.196L56.5352 124.157C57.7688 123.634 59.0047 123.115 60.2352 122.584C59.7211 122.806 64.7192 133.363 65.2509 134.291Z" fill="#FF7643"/>
<path d="M71.6436 131.583C71.6417 131.58 68.3687 132.972 68.1427 133.068C68.0894 133.093 68.0328 133.112 67.9745 133.122C67.9608 133.126 67.9463 133.125 67.9333 133.119C67.9204 133.113 67.9099 133.103 67.9034 133.091C66.8918 131.404 66.6256 129.405 65.8593 127.614C65.5201 126.936 65.1002 126.292 64.721 125.631L64.707 125.606C65.9407 125.084 67.176 124.563 68.4078 124.035C67.8931 124.256 71.2602 131.002 71.6436 131.583Z" fill="#FF7643"/>
<path d="M38.8109 145.515C38.8065 145.506 35.5371 146.907 35.311 147.002C35.2567 147.033 35.1931 147.043 35.1318 147.031C35.1057 147.018 35.0823 147 35.0631 146.978C35.0439 146.957 35.0292 146.931 35.0198 146.904C32.6122 141.955 30.9521 136.698 28.7896 131.645C27.9082 129.701 26.9459 127.789 26.0248 125.863L25.9902 125.789C27.2239 125.266 28.461 124.75 29.6888 124.213C29.1759 124.438 37.9368 143.787 38.8109 145.515Z" stroke="#333333" stroke-width="2.16609" stroke-linecap="round" stroke-linejoin="round"/>
<path d="M45.4779 142.692C45.4749 142.687 42.2034 144.082 41.9774 144.177C41.924 144.205 41.865 144.22 41.8048 144.222C41.7851 144.219 41.7666 144.211 41.7511 144.199C41.7357 144.186 41.724 144.17 41.7173 144.151C40.1445 141.154 39.3181 137.845 37.9905 134.743C37.4334 133.556 36.7955 132.402 36.1985 131.233L36.1758 131.188C37.4099 130.666 38.6459 130.147 39.8761 129.615C39.3622 129.838 44.8973 141.65 45.4779 142.692Z" stroke="#333333" stroke-width="2.16609" stroke-linecap="round" stroke-linejoin="round"/>
<path d="M51.7779 140.023C51.7744 140.016 48.5038 141.414 48.2778 141.509C48.2241 141.538 48.1631 141.551 48.1022 141.547C48.0794 141.54 48.0586 141.527 48.0415 141.511C48.0245 141.494 48.0115 141.474 48.0038 141.451C46.0604 137.587 44.8639 133.414 43.1656 129.446C42.4646 127.922 41.6827 126.432 40.9418 124.927L40.9141 124.869C42.1477 124.347 43.3842 123.829 44.6134 123.295C44.0999 123.519 51.0671 138.677 51.7779 140.023Z" stroke="#333333" stroke-width="2.16609" stroke-linecap="round" stroke-linejoin="round"/>
<path d="M58.1694 137.314C58.1654 137.306 54.8955 138.706 54.6694 138.801C54.6154 138.831 54.5531 138.842 54.4919 138.834C54.4672 138.823 54.4451 138.808 54.4268 138.789C54.4086 138.769 54.3948 138.746 54.3862 138.721C52.1928 134.273 50.7467 129.516 48.7985 124.964C48.0003 123.214 47.1213 121.497 46.2834 119.764L46.252 119.698C47.4856 119.176 48.7224 118.659 49.9508 118.123C49.4377 118.348 57.3707 135.762 58.1694 137.314Z" stroke="#333333" stroke-width="2.16609" stroke-linecap="round" stroke-linejoin="round"/>
<path d="M64.8356 134.491C64.8323 134.484 61.5614 135.881 61.3354 135.976C61.2818 136.005 61.2215 136.019 61.1608 136.016C61.139 136.011 61.1189 136 61.1023 135.984C61.0858 135.969 61.0733 135.95 61.066 135.929C59.2432 132.347 58.1672 128.455 56.5896 124.769C55.9355 123.355 55.2004 121.974 54.5064 120.578L54.4805 120.525C55.7141 120.003 56.9505 119.485 58.1799 118.951C57.6662 119.174 64.1672 133.243 64.8356 134.491Z" stroke="#333333" stroke-width="2.16609" stroke-linecap="round" stroke-linejoin="round"/>
<path d="M71.0386 131.716C71.0362 131.712 67.7639 133.106 67.5379 133.201C67.4846 133.228 67.427 133.245 67.3677 133.251C67.3512 133.252 67.3347 133.248 67.3206 133.239C67.3066 133.231 67.2956 133.218 67.2893 133.202C66.0269 130.93 65.5103 128.345 64.4931 125.968C64.0565 125.063 63.5391 124.191 63.0626 123.303L63.0449 123.269C64.2786 122.747 65.5142 122.227 66.7453 121.697C66.2309 121.919 70.5671 130.929 71.0386 131.716Z" stroke="#333333" stroke-width="2.16609" stroke-linecap="round" stroke-linejoin="round"/>
<path d="M37.2492 101.958C38.605 101.148 40.0178 100.437 41.4767 99.8297L45.8223 97.9671C47.2668 97.3371 48.7328 96.7556 50.1871 96.1475C51.6438 95.5452 53.1101 94.9643 54.5814 94.3945C54.6643 94.3624 54.7564 94.3634 54.8385 94.3972C54.9207 94.431 54.9867 94.4951 55.0227 94.5761C55.0587 94.6571 55.062 94.7488 55.0319 94.8322C55.0018 94.9156 54.9406 94.9842 54.8611 95.0238C53.4492 95.727 52.0307 96.4156 50.6058 97.0896C49.1768 97.7545 47.7596 98.446 46.3209 99.0889L42.0169 101.045C40.5857 101.714 39.1078 102.279 37.5948 102.736C37.4948 102.764 37.3877 102.756 37.2934 102.712C37.1992 102.668 37.124 102.592 37.0818 102.497C37.0397 102.402 37.0334 102.295 37.0642 102.196C37.0949 102.097 37.1606 102.013 37.2491 101.958L37.2492 101.958Z" fill="#333333"/>
<path d="M46.0182 103.2C47.6174 102.16 49.3265 101.299 51.1147 100.631C51.9911 100.264 52.877 99.9182 53.7675 99.5826C54.653 99.2356 55.5533 98.9222 56.4618 98.627C56.5372 98.6026 56.619 98.6068 56.6913 98.639C56.7637 98.6711 56.8216 98.7289 56.8537 98.8011C56.8858 98.8734 56.8898 98.9549 56.8651 99.0299C56.8404 99.105 56.7886 99.1682 56.7198 99.2074C55.89 99.6797 55.0521 100.134 54.1994 100.554C53.3516 100.986 52.4993 101.407 51.6375 101.808C49.9402 102.679 48.1518 103.362 46.3047 103.844C46.2235 103.862 46.1387 103.851 46.0646 103.813C45.9906 103.776 45.9318 103.714 45.8981 103.638C45.8645 103.562 45.8581 103.477 45.8799 103.397C45.9018 103.318 45.9506 103.248 46.0182 103.199L46.0182 103.2Z" fill="#333333"/>
<path d="M39.1286 106.188C39.7359 105.65 40.4479 105.241 41.2203 104.988C41.9651 104.682 42.7332 104.435 43.5174 104.251C43.6103 104.229 43.7078 104.241 43.7931 104.283C43.8784 104.326 43.9462 104.397 43.9848 104.484C44.0234 104.571 44.0305 104.668 44.0048 104.76C43.9791 104.851 43.9222 104.931 43.844 104.985C43.1798 105.44 42.4804 105.841 41.7522 106.185C41.0454 106.586 40.2635 106.837 39.4551 106.923C39.3683 106.927 39.2823 106.904 39.2084 106.858C39.1346 106.813 39.0763 106.746 39.041 106.666C39.0058 106.587 38.9953 106.499 39.0109 106.414C39.0266 106.329 39.0675 106.25 39.1286 106.188Z" fill="#333333"/>
<path d="M56.333 103.766C56.5548 103.442 56.8478 103.173 57.1898 102.979C57.3451 102.878 57.5149 102.802 57.6932 102.753C57.889 102.7 58.095 102.697 58.2924 102.744C58.4293 102.779 58.5466 102.867 58.6185 102.988C58.6905 103.109 58.7112 103.254 58.6761 103.39C58.6655 103.43 58.6504 103.469 58.6312 103.506C58.5334 103.683 58.3925 103.833 58.2214 103.942C58.0652 104.041 57.8947 104.115 57.7159 104.162C57.3418 104.284 56.9447 104.319 56.5548 104.265C56.5126 104.259 56.4721 104.244 56.4355 104.222C56.399 104.2 56.3673 104.171 56.342 104.136C56.3168 104.102 56.2986 104.063 56.2885 104.022C56.2784 103.98 56.2766 103.937 56.2831 103.895C56.2905 103.849 56.3075 103.805 56.333 103.766Z" fill="#333333"/>
<path d="M41.0377 110.48C42.0424 109.957 43.0532 109.447 44.0702 108.951C45.0902 108.462 46.1022 107.955 47.1287 107.481L50.2059 106.052C51.221 105.542 52.2894 105.145 53.3919 104.869C53.4965 104.845 53.606 104.859 53.7017 104.907C53.7975 104.955 53.8736 105.034 53.917 105.132C53.9604 105.23 53.9685 105.339 53.9398 105.442C53.9112 105.545 53.8476 105.635 53.7599 105.697C52.8136 106.325 51.8007 106.846 50.7396 107.253L47.6105 108.565C46.5682 109.004 45.5114 109.41 44.4626 109.834C43.4109 110.252 42.3529 110.656 41.2888 111.045C41.2147 111.072 41.1331 111.07 41.0605 111.04C40.9878 111.009 40.9296 110.952 40.8977 110.88C40.8658 110.808 40.8625 110.727 40.8885 110.653C40.9145 110.578 40.9678 110.517 41.0377 110.48V110.48Z" fill="#333333"/>
<path d="M35.3561 97.6993C36.3608 97.1757 37.3716 96.666 38.3886 96.1702C39.4085 95.6811 40.4205 95.174 41.4471 94.6996L44.5242 93.2711C45.5393 92.761 46.6078 92.364 47.7102 92.0874C47.8148 92.064 47.9243 92.0774 48.0201 92.1255C48.1158 92.1735 48.1919 92.2531 48.2353 92.3508C48.2787 92.4485 48.2868 92.5582 48.2582 92.6612C48.2295 92.7641 48.1659 92.854 48.0782 92.9154C47.1319 93.5433 46.119 94.0653 45.0579 94.4718L41.9288 95.7835C40.8865 96.2225 39.8298 96.6288 38.781 97.053C37.7292 97.4706 36.6713 97.8743 35.6071 98.264C35.5331 98.2912 35.4515 98.2892 35.3788 98.2585C35.3062 98.2279 35.248 98.1708 35.2161 98.0989C35.1841 98.027 35.1808 97.9457 35.2068 97.8715C35.2328 97.7973 35.2862 97.7357 35.3561 97.6993V97.6993Z" fill="#333333"/>
<path d="M49.836 91.3065C50.1809 91.008 50.551 90.7397 50.9421 90.5045C51.1337 90.3871 51.3298 90.2798 51.5276 90.1765C51.6275 90.1063 51.7435 90.0621 51.8649 90.0479C51.9863 90.0338 52.1093 90.05 52.2228 90.0952C52.3811 90.1573 52.5085 90.279 52.5774 90.4339C52.6462 90.5889 52.6511 90.7647 52.5908 90.9232C52.5482 91.0374 52.4776 91.1392 52.3855 91.2192C52.2934 91.2993 52.1826 91.3552 52.0634 91.3819C51.8536 91.4584 51.6421 91.531 51.4262 91.5936C50.9886 91.7243 50.5406 91.8172 50.087 91.8713C50.0187 91.878 49.9499 91.8631 49.8906 91.8287C49.8312 91.7942 49.7843 91.742 49.7565 91.6794C49.7287 91.6168 49.7214 91.547 49.7356 91.4801C49.7499 91.4131 49.785 91.3524 49.836 91.3065H49.836Z" fill="#333333"/>
<path d="M32.9611 114.11C31.88 115.728 30.1999 116.854 28.2883 117.24C26.9782 117.53 25.6168 117.495 24.3237 117.137C23.0306 116.779 21.8455 116.111 20.8726 115.189C19.9108 114.162 19.2395 112.899 18.927 111.528C18.6144 110.158 18.6719 108.73 19.0935 107.389C19.8821 104.879 22.4212 102.76 24.9839 103.079C24.9577 103.099 24.9256 103.109 24.8927 103.109C24.9374 103.114 24.9825 103.123 25.0273 103.128C25.5885 105.635 26.116 107.498 26.6799 110.002C28.7509 109.039 30.9451 108.366 33.2005 108.001C33.6385 108.968 33.8448 110.023 33.8033 111.084C33.7617 112.144 33.4734 113.18 32.9611 114.11Z" fill="#333333"/>
<path d="M26.0347 106.541L26.485 108.061C26.5792 108.479 26.6735 108.898 26.7678 109.316C28.8388 108.354 31.033 107.681 33.2884 107.315C33.7264 108.282 33.9327 109.338 33.8912 110.398C33.8496 111.458 33.5613 112.494 33.049 113.425C31.9679 115.043 30.2878 116.168 28.3762 116.555C27.0661 116.845 25.7046 116.809 24.4115 116.452C23.1184 116.094 21.9333 115.425 20.9605 114.504C19.9987 113.476 19.3274 112.213 19.0149 110.843C18.7023 109.472 18.7598 108.044 19.1814 106.703C19.97 104.194 22.5091 102.074 25.0718 102.393" stroke="#333333" stroke-width="1.6" stroke-linecap="round" stroke-linejoin="round"/>
<path d="M34.04 105.437L27.98 106.905L26.3418 101.106L26.4547 101.078C28.0388 100.693 29.7108 100.931 31.1234 101.743C32.536 102.555 33.5805 103.877 34.04 105.437Z" fill="#FF7643"/>
<path d="M27.3972 105.581C26.8876 104.133 26.3392 102.696 25.872 101.237C25.8531 101.178 25.8461 101.116 25.8513 101.054C25.8565 100.993 25.8738 100.933 25.9022 100.878C25.9306 100.823 25.9696 100.774 26.017 100.734C26.0644 100.694 26.1191 100.664 26.1782 100.645L26.2015 100.639L26.2265 100.632C27.0763 100.409 27.9599 100.342 28.8338 100.435C29.7169 100.528 30.572 100.798 31.3482 101.228C32.1232 101.662 32.7998 102.251 33.3356 102.957C33.8683 103.659 34.1826 104.5 34.2395 105.378C34.2415 105.425 34.2277 105.472 34.2002 105.51C34.1727 105.549 34.133 105.577 34.0875 105.591C34.042 105.605 33.9932 105.603 33.9488 105.586C33.9045 105.569 33.867 105.538 33.8424 105.497L33.8403 105.494C33.4539 104.828 33.0089 104.199 32.5106 103.612C32.0267 103.045 31.446 102.569 30.7954 102.205C30.1472 101.836 29.437 101.587 28.6995 101.472C27.9521 101.364 27.1908 101.399 26.4569 101.577L26.8114 100.973C27.1768 102.461 27.4612 103.972 27.7843 105.472C27.795 105.522 27.7863 105.574 27.7598 105.618C27.7334 105.662 27.6912 105.694 27.6419 105.708C27.5926 105.721 27.5398 105.716 27.4944 105.692C27.4489 105.669 27.4142 105.629 27.3972 105.581Z" fill="#333333"/>
<path opacity="0.2" d="M109.595 70.832L62.1019 72.5927C60.3115 72.5855 58.8517 73.8459 58.8453 75.4043L58.5977 143.921C58.5914 145.48 60.0409 146.752 61.8313 146.759L128.556 146.997C130.346 147.004 131.806 145.744 131.813 144.185L132.187 71.1001L109.595 70.832Z" fill="#333333"/>
<path d="M128.627 74.7885L128.454 141.364C128.45 142.221 128.104 143.042 127.494 143.646C126.883 144.25 126.056 144.588 125.196 144.585L66.1851 144.347C65.3247 144.343 64.501 143.998 63.895 143.39C63.2891 142.781 62.9503 141.957 62.9531 141.1L63.2411 62.647C63.2453 61.7894 63.5907 60.9685 64.2016 60.3645C64.8125 59.7606 65.6389 59.423 66.4994 59.4258L113.679 59.6099" fill="white"/>
<path d="M113.68 59.6094L128.628 74.5392" stroke="#303030" stroke-width="3" stroke-linecap="round" stroke-linejoin="round"/>
<path d="M62.4621 140.597C62.0346 135.569 61.8663 130.523 61.9578 125.478L61.959 110.362L62.1265 80.1284L62.2212 65.0119L62.2331 63.1223L62.236 62.6499C62.2392 62.4445 62.2559 62.2395 62.2861 62.0363C62.3446 61.6265 62.4656 61.228 62.645 60.8547C62.9996 60.1035 63.5686 59.4732 64.2809 59.0429C64.9838 58.6177 65.7944 58.4026 66.6163 58.4232L74.1999 58.4521L89.367 58.5218L96.9503 58.6135C99.4781 58.6479 102.006 58.7237 104.532 58.9996C104.675 59.0151 104.806 59.0825 104.901 59.1887C104.996 59.295 105.049 59.4326 105.048 59.5751C105.048 59.7175 104.994 59.8547 104.898 59.9603C104.802 60.0658 104.67 60.1322 104.528 60.1466C101.999 60.4029 99.471 60.4591 96.943 60.474L89.3592 60.5069L74.1919 60.4591L66.6083 60.4293C66.164 60.4088 65.7236 60.5196 65.3423 60.7478C64.9609 60.9759 64.6557 61.3113 64.4649 61.7117C64.3699 61.9069 64.3065 62.1158 64.2771 62.3307C64.261 62.439 64.2516 62.5482 64.2489 62.6576L64.2484 63.13L64.2464 65.0196L64.2301 80.1364L64.1757 110.37L64.0659 125.486C64.1204 130.531 63.915 135.576 63.4506 140.601C63.4375 140.722 63.3796 140.835 63.288 140.917C63.1964 140.999 63.0776 141.044 62.9547 141.043C62.8318 141.043 62.7134 140.997 62.6224 140.914C62.5314 140.832 62.4743 140.719 62.4621 140.597L62.4621 140.597Z" fill="#333333"/>
<path d="M129.635 74.7908L129.548 108.078L129.505 124.722L129.485 133.044C129.48 134.431 129.499 135.818 129.468 137.205C129.462 137.898 129.419 138.592 129.397 139.285C129.397 139.994 129.273 140.698 129.031 141.365C128.985 141.48 128.906 141.578 128.803 141.648C128.7 141.717 128.579 141.754 128.455 141.754C128.33 141.753 128.209 141.716 128.107 141.646C128.004 141.576 127.925 141.477 127.88 141.362C127.641 140.694 127.521 139.99 127.525 139.28C127.506 138.587 127.467 137.893 127.465 137.2C127.441 135.813 127.467 134.426 127.469 133.039L127.492 124.717L127.536 108.073L127.622 74.7856C127.623 74.5196 127.729 74.2647 127.919 74.0771C128.108 73.8895 128.364 73.7845 128.631 73.7852C128.898 73.7858 129.154 73.8922 129.342 74.0808C129.53 74.2694 129.636 74.5248 129.635 74.7908L129.635 74.7908Z" fill="#333333"/>
<path d="M114.686 59.615L114.627 74.4781L113.618 73.4633C115.1 73.5054 116.582 73.5837 118.065 73.6511C118.806 73.6882 119.547 73.711 120.288 73.773C121.029 73.8174 121.77 73.9111 122.512 73.9361C122.661 73.941 122.803 74.0039 122.907 74.1114C123.011 74.2189 123.069 74.3626 123.068 74.5119C123.068 74.6612 123.009 74.8043 122.904 74.911C122.799 75.0176 122.657 75.0794 122.507 75.0831C121.765 75.1021 121.024 75.1898 120.282 75.2282C119.541 75.2843 118.799 75.3011 118.058 75.3322C116.575 75.3876 115.092 75.4539 113.609 75.4841C113.48 75.4867 113.35 75.4639 113.229 75.4167C113.108 75.3696 112.998 75.2992 112.904 75.2095C112.81 75.1198 112.735 75.0125 112.683 74.8939C112.631 74.7753 112.602 74.6475 112.6 74.518L112.6 74.4977L112.6 74.4691L112.674 59.606C112.675 59.34 112.782 59.0853 112.972 58.8981C113.161 58.7108 113.418 58.6062 113.684 58.6074C113.951 58.6086 114.207 58.7154 114.395 58.9044C114.583 59.0933 114.688 59.3489 114.686 59.6149L114.686 59.615Z" fill="#333333"/>
<path d="M85.8281 128.028C92.1822 128.764 98.5982 128.801 104.96 128.137L105.058 111.117C101.922 111.492 93.6801 111.052 85.9257 111.008C86.2551 117.378 86.6637 124.717 85.8281 128.028Z" fill="#333333"/>
<path d="M84.1976 127.534C84.4241 127.394 84.6714 127.292 84.93 127.231C84.9978 127.228 85.0657 127.23 85.1331 127.239L85.4723 127.264L86.1506 127.316L88.8624 127.497C90.6694 127.601 92.4742 127.669 94.2767 127.68C97.8863 127.694 101.494 127.5 105.081 127.099L104.145 128.144V108.943L105.318 109.986C103.373 110.013 101.572 109.901 99.7339 109.857C97.9055 109.8 96.0834 109.769 94.2614 109.753C92.4399 109.733 90.6194 109.731 88.8001 109.773C86.9811 109.8 85.163 109.863 83.3491 109.994L83.3466 109.994L84.39 108.882C84.5758 112.084 84.769 115.294 84.8667 118.524C84.9127 120.14 84.9343 121.761 84.8909 123.396C84.8669 124.214 84.8275 125.035 84.752 125.865C84.7081 126.281 84.6729 126.695 84.6021 127.119L84.5549 127.435L84.5333 127.575L84.5155 127.566C84.4175 127.515 84.3038 127.504 84.1976 127.534ZM82.4954 128.754C82.4092 128.357 82.3853 127.949 82.4248 127.545L82.5348 126.805C82.5972 126.438 82.6296 126.053 82.67 125.672C82.74 124.904 82.7779 124.123 82.8009 123.337C82.8427 121.765 82.8222 120.177 82.7768 118.586C82.6806 115.403 82.4886 112.208 82.303 109.005L82.2985 108.929C82.2835 108.669 82.3718 108.413 82.5439 108.219C82.7161 108.024 82.9581 107.907 83.2167 107.892C83.26 107.889 83.3033 107.89 83.3466 107.893L83.3491 107.893C85.1767 108.026 87 108.126 88.8221 108.203C90.644 108.297 92.4646 108.363 94.2838 108.403C96.1027 108.447 97.9217 108.474 99.7349 108.421C101.523 108.405 103.305 108.231 105.063 107.9C105.204 107.87 105.349 107.872 105.49 107.905C105.63 107.939 105.761 108.003 105.873 108.094C105.986 108.185 106.077 108.3 106.139 108.43C106.202 108.561 106.235 108.704 106.236 108.849L106.236 108.943V128.144C106.234 128.403 106.138 128.653 105.966 128.846C105.793 129.038 105.556 129.161 105.3 129.189C101.635 129.599 97.9503 129.796 94.2632 129.782C92.4184 129.77 90.5772 129.701 88.743 129.595L85.9958 129.412L85.3103 129.36L84.9676 129.334C84.8691 129.327 84.6477 129.307 84.4891 129.285C83.8055 129.19 83.1361 129.012 82.4954 128.754H82.4954Z" fill="#333333"/>
<path d="M87.4927 112.678C88.7613 113.545 90.0303 114.417 91.2974 115.314L95.1003 118.034C96.3616 118.96 97.6025 119.92 98.823 120.916C100.078 121.891 101.211 123.005 102.202 124.237C102.289 124.35 102.326 124.492 102.306 124.632C102.285 124.772 102.209 124.898 102.093 124.983C102.004 125.047 101.898 125.084 101.789 125.088C101.679 125.093 101.57 125.065 101.476 125.009C100.129 124.199 98.8821 123.297 97.6354 122.375L93.8723 119.62C92.6233 118.686 91.3813 117.734 90.1547 116.749C88.899 115.766 87.7514 114.658 86.7307 113.443C86.6492 113.342 86.6078 113.215 86.6139 113.086C86.62 112.957 86.6733 112.835 86.764 112.741C86.8548 112.647 86.977 112.588 87.1084 112.575C87.2398 112.562 87.3717 112.595 87.4801 112.669L87.4927 112.678Z" fill="white"/>
<path d="M101.474 113.115C100.618 114.441 99.606 115.652 98.461 116.718C97.3365 117.783 96.1998 118.828 95.0426 119.838L91.5842 122.84C90.4671 123.778 89.41 124.791 88.4197 125.872L88.3918 125.905C88.2176 126.11 87.9734 126.237 87.7107 126.259C87.448 126.281 87.1874 126.196 86.9838 126.022C86.7803 125.848 86.6498 125.599 86.6198 125.328C86.5899 125.056 86.663 124.783 86.8235 124.566C87.3297 123.909 87.8862 123.296 88.4876 122.731C89.0571 122.182 89.638 121.658 90.2305 121.161C91.4128 120.161 92.5903 119.178 93.7881 118.231C94.9752 117.271 96.1734 116.333 97.3399 115.362C98.5155 114.386 99.7382 113.474 101.003 112.628C101.079 112.578 101.172 112.56 101.26 112.58C101.348 112.6 101.425 112.656 101.473 112.735C101.508 112.792 101.526 112.858 101.526 112.925C101.526 112.992 101.508 113.058 101.474 113.115Z" fill="white"/>
<g clip-path="url(#clip0)">
<path d="M94.3792 74.9902C90.659 74.9902 86.939 76.4011 84.1073 79.2234C78.443 84.8687 78.4436 94.0538 84.1078 99.6995C86.9393 102.522 90.6592 103.933 94.3792 103.933C98.0991 103.933 101.819 102.521 104.652 99.6978C110.316 94.0533 110.315 84.869 104.652 79.2247C101.819 76.4016 98.0991 74.9902 94.3792 74.9902ZM103.067 98.1197C100.672 100.507 97.5255 101.7 94.3792 101.701C91.2331 101.701 88.0871 100.508 85.6918 98.1208C85.0927 97.5237 84.5689 96.8799 84.1199 96.2015C80.976 91.4501 81.5004 84.9804 85.6918 80.8026C88.0871 78.4156 91.2331 77.2222 94.3792 77.2222C97.5252 77.2222 100.671 78.4156 103.067 80.8029C107.857 85.5772 107.857 93.3459 103.067 98.1197ZM86.6192 89.2659C86.2873 88.9567 86.2704 88.4382 86.5803 88.1072C86.8903 87.7762 87.4067 87.7549 87.7432 88.0682C88.6333 88.9013 89.5473 88.1342 89.6486 88.0441C89.9512 87.774 90.3991 87.768 90.7074 88.0117C90.7438 88.0401 90.7783 88.0725 90.8104 88.1083C91.1132 88.4456 91.0845 88.9638 90.746 89.2659C90.0166 89.9167 88.2248 90.7627 86.6192 89.2659ZM102.175 88.0987C102.478 88.436 102.449 88.9542 102.111 89.2563C101.382 89.9072 99.5897 90.7529 97.9841 89.2563C97.6523 88.9472 97.6356 88.4287 97.9452 88.0976C98.2549 87.7666 98.7716 87.7453 99.1081 88.0586C99.9983 88.8918 100.912 88.1246 101.014 88.0346C101.316 87.7644 101.764 87.7584 102.072 88.0021C102.109 88.0305 102.143 88.063 102.175 88.0987ZM100.947 96.6395C101.127 97.0546 100.936 97.5365 100.519 97.7161C100.103 97.8962 99.6201 97.7049 99.44 97.2895C98.6473 95.4644 96.7755 94.2842 94.6697 94.2842C92.5156 94.2842 90.6321 95.4631 89.8718 97.2879C89.7406 97.602 89.4348 97.7928 89.113 97.7928C89.0082 97.7928 88.9014 97.7728 88.7984 97.7303C88.3795 97.5564 88.181 97.0772 88.3549 96.66C89.371 94.2222 91.8497 92.6476 94.67 92.6476C97.431 92.6473 99.8953 94.2143 100.947 96.6395Z" fill="#333333"/>
</g>
<defs>
<clipPath id="clip0">
<rect width="29.04" height="28.9432" fill="white" transform="translate(79.8594 74.9883)"/>
</clipPath>
</defs>
</svg>
