<svg xmlns="http://www.w3.org/2000/svg" viewBox="0 0 161.17 40"><defs><style>.cls-1{fill:#00a193;}</style></defs><title>Ресурс 3</title><g id="Слой_2" data-name="Слой 2"><g id="Menu"><path class="cls-1" d="M54.09,12.24l5.26,7.37,5.09-7.37h3.24V27.76H64.5V17.2h-.11l-4.58,6.6H58.62L54,17.18h-.1V27.76h-3V12.24Z"/><path class="cls-1" d="M82.24,12.24l6.89,15.52H85.79L84.52,25H76.73l-1.25,2.77H72.2l6.88-15.52Zm-4.32,9.93h5.43l-2.66-6.75h-.24Z"/><path class="cls-1" d="M106.35,21.06a5.4,5.4,0,0,1-2.2,1.94l2.93,4.76h-3.57l-2.46-4.11h-4.3v4.11H93.62V12.24H101a6.05,6.05,0,0,1,4.5,1.68,5.74,5.74,0,0,1,.83,7.14Zm-9.6-.23H101a3.07,3.07,0,0,0,2.35-.86,2.91,2.91,0,0,0,.78-2,2.87,2.87,0,0,0-.72-2,2.91,2.91,0,0,0-2.44-.91H96.75Z"/><path class="cls-1" d="M115,12.24v5.84h2.84l4-5.84h3.62l-5,7.11,5.31,8.41h-3.57l-4.35-6.91H115v6.91h-3.11V12.24Z"/><path class="cls-1" d="M130.2,12.24h12.16v2.84h-9v3.16h8.07v2.82h-8.07v3.88h9.39v2.82H130.2Z"/><path class="cls-1" d="M147,12.24h14.21V15h-5.59V27.76h-3V15H147Z"/><path class="cls-1" d="M36.1,0H3.9A3.91,3.91,0,0,0,0,3.9V36.1A3.91,3.91,0,0,0,3.9,40H36.1A3.91,3.91,0,0,0,40,36.1V3.9A3.91,3.91,0,0,0,36.1,0ZM8,29.15l8.41-12.7H10.19l3.44-5.6H24.77l-4.53,7L12.92,29.15Zm21.86-5.6-3.44,5.6H15.23l4.53-7,7.32-11.31h5l-8.41,12.7Z"/></g></g></svg>