<svg width="703" height="702" viewBox="0 0 703 702" fill="none" xmlns="http://www.w3.org/2000/svg">
<g clip-path="url(#clip0)">
<path d="M529.902 526.235C627.117 429.019 627.117 271.401 529.902 174.186C432.686 76.97 275.068 76.97 177.853 174.186C80.6374 271.401 80.6375 429.019 177.853 526.234C275.069 623.45 432.686 623.45 529.902 526.235Z" stroke="white" stroke-width="25" stroke-miterlimit="10" stroke-linecap="round" stroke-linejoin="round"/>
<path d="M394.482 350.21C394.482 372.634 376.303 390.815 353.877 390.815C331.453 390.815 313.272 372.634 313.272 350.21C313.272 327.784 331.453 309.605 353.877 309.605C376.303 309.605 394.482 327.784 394.482 350.21Z" stroke="white" stroke-width="25" stroke-miterlimit="10" stroke-linecap="round" stroke-linejoin="round"/>
<path d="M498.232 494.564C577.956 414.84 577.956 285.581 498.231 205.856C418.507 126.131 289.247 126.131 209.523 205.856C129.798 285.58 129.798 414.839 209.523 494.564C289.248 574.289 418.507 574.289 498.232 494.564Z" stroke="white" stroke-width="25" stroke-miterlimit="10" stroke-linecap="round" stroke-linejoin="round"/>
<path d="M353.877 101.274V109.903" stroke="white" stroke-width="25" stroke-miterlimit="10" stroke-linecap="round" stroke-linejoin="round"/>
<path d="M229.409 134.624L233.725 142.098" stroke="white" stroke-width="25" stroke-miterlimit="10" stroke-linecap="round" stroke-linejoin="round"/>
<path d="M138.293 225.741L145.765 230.056" stroke="white" stroke-width="25" stroke-miterlimit="10" stroke-linecap="round" stroke-linejoin="round"/>
<path d="M104.941 350.21H113.57" stroke="white" stroke-width="25" stroke-miterlimit="10" stroke-linecap="round" stroke-linejoin="round"/>
<path d="M138.293 474.678L145.765 470.363" stroke="white" stroke-width="25" stroke-miterlimit="10" stroke-linecap="round" stroke-linejoin="round"/>
<path d="M229.409 565.794L233.725 558.322" stroke="white" stroke-width="25" stroke-miterlimit="10" stroke-linecap="round" stroke-linejoin="round"/>
<path d="M353.877 599.146V590.517" stroke="white" stroke-width="25" stroke-miterlimit="10" stroke-linecap="round" stroke-linejoin="round"/>
<path d="M478.346 565.794L474.031 558.322" stroke="white" stroke-width="25" stroke-miterlimit="10" stroke-linecap="round" stroke-linejoin="round"/>
<path d="M569.463 474.678L561.989 470.363" stroke="white" stroke-width="25" stroke-miterlimit="10" stroke-linecap="round" stroke-linejoin="round"/>
<path d="M602.815 350.21H594.184" stroke="white" stroke-width="25" stroke-miterlimit="10" stroke-linecap="round" stroke-linejoin="round"/>
<path d="M569.463 225.741L561.989 230.056" stroke="white" stroke-width="25" stroke-miterlimit="10" stroke-linecap="round" stroke-linejoin="round"/>
<path d="M478.346 134.624L474.031 142.098" stroke="white" stroke-width="25" stroke-miterlimit="10" stroke-linecap="round" stroke-linejoin="round"/>
<path d="M353.877 678.409C535.136 678.409 682.076 531.469 682.076 350.21C682.076 168.951 535.136 22.0115 353.877 22.0115C172.618 22.0115 25.6783 168.951 25.6783 350.21C25.6783 531.469 172.618 678.409 353.877 678.409Z" stroke="white" stroke-width="25" stroke-miterlimit="10" stroke-linecap="round" stroke-linejoin="round"/>
<path d="M353.877 22.0111C353.877 22.0111 357.012 36.8467 386.139 48.2128" stroke="white" stroke-width="25" stroke-miterlimit="10" stroke-linecap="round" stroke-linejoin="round"/>
<path d="M189.777 65.9812C189.777 65.9812 199.911 77.2617 230.818 72.5423" stroke="white" stroke-width="25" stroke-miterlimit="10" stroke-linecap="round" stroke-linejoin="round"/>
<path d="M69.6488 186.111C69.6488 186.111 84.0658 190.813 108.471 171.272" stroke="white" stroke-width="25" stroke-miterlimit="10" stroke-linecap="round" stroke-linejoin="round"/>
<path d="M25.6787 350.21C25.6787 350.21 40.5143 347.075 51.8814 317.949" stroke="white" stroke-width="25" stroke-miterlimit="10" stroke-linecap="round" stroke-linejoin="round"/>
<path d="M69.6488 514.31C69.6488 514.31 80.9303 504.177 76.2109 473.269" stroke="white" stroke-width="25" stroke-miterlimit="10" stroke-linecap="round" stroke-linejoin="round"/>
<path d="M189.777 634.438C189.777 634.438 194.481 620.022 174.941 595.616" stroke="white" stroke-width="25" stroke-miterlimit="10" stroke-linecap="round" stroke-linejoin="round"/>
<path d="M353.877 678.409C353.877 678.409 350.743 663.573 321.616 652.206" stroke="white" stroke-width="25" stroke-miterlimit="10" stroke-linecap="round" stroke-linejoin="round"/>
<path d="M517.976 634.438C517.976 634.438 507.844 623.158 476.937 627.876" stroke="white" stroke-width="25" stroke-miterlimit="10" stroke-linecap="round" stroke-linejoin="round"/>
<path d="M638.106 514.31C638.106 514.31 623.69 509.606 599.284 529.146" stroke="white" stroke-width="25" stroke-miterlimit="10" stroke-linecap="round" stroke-linejoin="round"/>
<path d="M682.076 350.21C682.076 350.21 667.24 353.345 655.874 382.471" stroke="white" stroke-width="25" stroke-miterlimit="10" stroke-linecap="round" stroke-linejoin="round"/>
<path d="M638.106 186.111C638.106 186.111 626.825 196.243 631.545 227.15" stroke="white" stroke-width="25" stroke-miterlimit="10" stroke-linecap="round" stroke-linejoin="round"/>
<path d="M517.976 65.9812C517.976 65.9812 513.274 80.3972 532.815 104.803" stroke="white" stroke-width="25" stroke-miterlimit="10" stroke-linecap="round" stroke-linejoin="round"/>
<path d="M291.16 155.888L323.2 236.786C328.183 249.368 340.345 257.632 353.877 257.632" stroke="white" stroke-width="25" stroke-miterlimit="10" stroke-linecap="round" stroke-linejoin="round"/>
<path d="M416.591 155.888L384.555 236.786C379.573 249.368 367.411 257.632 353.877 257.632" stroke="white" stroke-width="25" stroke-miterlimit="10" stroke-linecap="round" stroke-linejoin="round"/>
<path d="M171.898 257.65L251.983 291.699C264.403 297.073 278.846 294.317 288.416 284.747" stroke="white" stroke-width="25" stroke-miterlimit="10" stroke-linecap="round" stroke-linejoin="round"/>
<path d="M261.3 169.568L295.368 248.314C300.742 260.736 297.985 275.177 288.416 284.747" stroke="white" stroke-width="25" stroke-miterlimit="10" stroke-linecap="round" stroke-linejoin="round"/>
<path d="M159.557 412.926L240.454 380.887C253.036 375.904 261.3 363.743 261.3 350.21" stroke="white" stroke-width="25" stroke-miterlimit="10" stroke-linecap="round" stroke-linejoin="round"/>
<path d="M162.237 288.554L240.454 319.532C253.036 324.515 261.3 336.676 261.3 350.21" stroke="white" stroke-width="25" stroke-miterlimit="10" stroke-linecap="round" stroke-linejoin="round"/>
<path d="M261.3 530.852L295.368 452.104C300.742 439.684 297.985 425.241 288.416 415.671" stroke="white" stroke-width="25" stroke-miterlimit="10" stroke-linecap="round" stroke-linejoin="round"/>
<path d="M171.898 442.787L251.983 408.719C264.403 403.346 278.846 406.102 288.416 415.671" stroke="white" stroke-width="25" stroke-miterlimit="10" stroke-linecap="round" stroke-linejoin="round"/>
<path d="M415.551 541.894L384.555 463.633C379.572 451.051 367.411 442.787 353.877 442.787" stroke="white" stroke-width="25" stroke-miterlimit="10" stroke-linecap="round" stroke-linejoin="round"/>
<path d="M292.205 541.894L323.2 463.633C328.183 451.051 340.345 442.787 353.877 442.787" stroke="white" stroke-width="25" stroke-miterlimit="10" stroke-linecap="round" stroke-linejoin="round"/>
<path d="M535.607 443.258L455.773 408.719C443.353 403.346 428.91 406.102 419.34 415.671" stroke="white" stroke-width="25" stroke-miterlimit="10" stroke-linecap="round" stroke-linejoin="round"/>
<path d="M446.455 530.852L412.388 452.104C407.014 439.684 409.771 425.241 419.34 415.671" stroke="white" stroke-width="25" stroke-miterlimit="10" stroke-linecap="round" stroke-linejoin="round"/>
<path d="M545.519 288.554L467.302 319.532C454.72 324.515 446.455 336.676 446.455 350.21" stroke="white" stroke-width="25" stroke-miterlimit="10" stroke-linecap="round" stroke-linejoin="round"/>
<path d="M545.519 411.865L467.302 380.887C454.72 375.904 446.455 363.743 446.455 350.21" stroke="white" stroke-width="25" stroke-miterlimit="10" stroke-linecap="round" stroke-linejoin="round"/>
<path d="M446.455 169.568L412.388 248.314C407.014 260.736 409.771 275.177 419.34 284.747" stroke="white" stroke-width="25" stroke-miterlimit="10" stroke-linecap="round" stroke-linejoin="round"/>
<path d="M535.607 257.161L455.773 291.699C443.353 297.073 428.91 294.317 419.34 284.747" stroke="white" stroke-width="25" stroke-miterlimit="10" stroke-linecap="round" stroke-linejoin="round"/>
</g>
<defs>
<clipPath id="clip0">
<rect width="702" height="702" fill="white" transform="translate(0.200012)"/>
</clipPath>
</defs>
</svg>
