<svg width="457" height="474" viewBox="0 0 457 474" fill="none" xmlns="http://www.w3.org/2000/svg">
<path d="M395.3 199.9V160.6C395.3 160.6 297.2 127.9 297.2 42.8C297.2 22.3 297.2 13.4 297.2 13.4H228.5H159.8C159.8 13.4 159.8 22.4 159.8 42.8C159.8 127.8 61.7 160.6 61.7 160.6V199.9" stroke="white" stroke-width="25" stroke-miterlimit="10"/>
<path d="M444.4 199.9H12.6V317.7H444.4V199.9Z" stroke="white" stroke-width="25" stroke-miterlimit="10"/>
<path d="M165.8 464.8C212.8 410.8 117.6 412.4 175.6 356.9" stroke="white" stroke-width="25" stroke-miterlimit="10"/>
<path d="M229.6 464.8C276.6 410.8 181.4 412.4 239.4 356.9" stroke="white" stroke-width="25" stroke-miterlimit="10"/>
<path d="M293.4 464.8C340.4 410.8 245.2 412.4 303.2 356.9" stroke="white" stroke-width="25" stroke-miterlimit="10"/>
<path d="M42 278.4H71.4" stroke="white" stroke-width="25" stroke-miterlimit="10"/>
<path d="M91.1 278.4H120.5" stroke="white" stroke-width="25" stroke-miterlimit="10"/>
<path d="M140.1 278.4H169.6" stroke="white" stroke-width="25" stroke-miterlimit="10"/>
</svg>
