<svg width="500" height="500" viewBox="0 0 500 500" fill="none" xmlns="http://www.w3.org/2000/svg">
<path d="M164.963 408.298L164.967 408.304C166.556 410.905 169.199 412.2 172 412.2C173.504 412.2 174.891 411.749 176.118 411.136L176.198 411.096L176.274 411.051C180.226 408.709 181.316 403.648 179.051 399.826L179.041 399.809L179.031 399.792C174.34 392.151 173.279 387.083 173.793 383.013C174.323 378.818 176.544 375.243 179.607 370.445L179.621 370.424L179.634 370.402C179.711 370.276 179.788 370.149 179.866 370.022C183.395 364.243 187.583 357.383 188.682 348.21C189.813 338.777 187.658 327.243 179.08 312.077C176.893 308.152 171.858 306.754 167.873 309.022C163.948 311.212 162.553 316.251 164.827 320.236C171.446 331.906 173.093 339.651 172.524 345.586C171.951 351.558 169.126 356.102 165.687 361.564C165.686 361.566 165.685 361.567 165.684 361.568L165.653 361.617C162.391 366.758 158.609 372.717 157.513 380.279C156.398 387.977 158.092 396.983 164.963 408.298Z" fill="white" stroke="white" stroke-width="5"/>
<path d="M243.363 408.298L243.367 408.304C244.956 410.905 247.599 412.2 250.4 412.2C251.904 412.2 253.291 411.749 254.518 411.136L254.598 411.096L254.674 411.051C258.626 408.709 259.716 403.648 257.451 399.826L257.441 399.809L257.431 399.792C252.74 392.151 251.679 387.083 252.193 383.013C252.723 378.818 254.944 375.243 258.007 370.445L258.025 370.417L258.042 370.389C258.158 370.196 258.276 370.001 258.394 369.805C261.844 364.08 265.946 357.272 267.044 348.213C268.188 338.781 266.06 327.246 257.48 312.077C255.293 308.152 250.258 306.754 246.273 309.022C242.348 311.212 240.953 316.251 243.227 320.236C249.846 331.906 251.493 339.651 250.924 345.586C250.351 351.558 247.526 356.102 244.087 361.564C244.086 361.566 244.085 361.567 244.084 361.568L244.053 361.617C240.791 366.758 237.009 372.717 235.913 380.279C234.798 387.977 236.492 396.983 243.363 408.298Z" fill="white" stroke="white" stroke-width="5"/>
<path d="M321.663 408.298L321.667 408.304C323.256 410.905 325.899 412.2 328.7 412.2C330.204 412.2 331.592 411.749 332.818 411.136L332.898 411.096L332.975 411.051C336.926 408.709 338.016 403.648 335.751 399.826L335.741 399.809L335.731 399.792C331.04 392.151 329.979 387.083 330.493 383.013C331.023 378.818 333.245 375.243 336.307 370.445L336.321 370.424L336.334 370.402C336.411 370.276 336.488 370.149 336.566 370.022C340.095 364.243 344.283 357.383 345.382 348.21C346.513 338.777 344.358 327.243 335.78 312.077C333.593 308.152 328.558 306.754 324.573 309.022C320.648 311.212 319.253 316.251 321.527 320.236C328.146 331.906 329.793 339.651 329.224 345.586C328.651 351.558 325.826 356.102 322.387 361.564C322.386 361.566 322.385 361.567 322.384 361.568L322.353 361.617C319.091 366.758 315.309 372.717 314.213 380.279C313.098 387.977 314.792 396.983 321.663 408.298Z" fill="white" stroke="white" stroke-width="5"/>
<path d="M456.3 265.999V265.933L456.278 265.767C454.312 251.136 441.762 239.9 426.6 239.9H76.1C60.9305 239.9 48.3879 251.243 46.4226 265.765L46.4 265.932V265.999C46.1995 267.268 46.1 268.541 46.1 269.9V276.892C37.5109 276.627 30.6 269.552 30.6 260.9V131.3C30.6 122.481 37.7807 115.3 46.6 115.3H456.1C464.919 115.3 472.1 122.481 472.1 131.3V260.9C472.1 269.552 465.189 276.627 456.6 276.892V269.9C456.6 268.641 456.501 267.283 456.3 265.999ZM456.1 98.9H46.6C28.7138 98.9 14.3 113.425 14.3 131.2V260.8C14.3 278.686 28.8247 293.1 46.6 293.1H54.3H448.4H456.1C473.986 293.1 488.4 278.575 488.4 260.8V131.3C488.4 113.43 473.992 98.9 456.1 98.9ZM62.5 274.9H440.2V276.8H62.5V274.9ZM68.5105 258.5C70.6706 257.044 73.2679 256.2 76.1 256.2H426.6C429.376 256.2 431.983 257.045 434.16 258.5H68.5105Z" fill="white" stroke="white" stroke-width="5"/>
<path d="M62 125.7C57.5479 125.7 53.8 129.291 53.8 133.9V161C53.8 165.452 57.3908 169.2 62 169.2C66.452 169.2 70.2 165.609 70.2 161V133.9C70.2 129.419 66.4807 125.7 62 125.7Z" fill="white" stroke="white" stroke-width="5"/>
<path d="M88.6 125.7C84.1479 125.7 80.4 129.291 80.4 133.9V161C80.4 165.452 83.9908 169.2 88.6 169.2C93.052 169.2 96.8 165.609 96.8 161V133.9C96.8 129.448 93.2092 125.7 88.6 125.7Z" fill="white" stroke="white" stroke-width="5"/>
</svg>
