<svg width="1290" height="815" viewBox="0 0 1290 815" fill="none" xmlns="http://www.w3.org/2000/svg">
<path d="M644.922 698.359H261.348C261.348 698.359 395.344 794.187 644.922 794.187C894.5 794.187 1028.5 698.359 1028.5 698.359H644.922Z" fill="#00A193" stroke="white" stroke-width="40" stroke-miterlimit="10"/>
<path d="M644.922 753.082C989.796 753.082 1269.37 661.263 1269.37 547.999C1269.37 434.736 989.796 342.917 644.922 342.917C300.048 342.917 20.4727 434.736 20.4727 547.999C20.4727 661.263 300.048 753.082 644.922 753.082Z" fill="#00A193" stroke="white" stroke-width="40" stroke-miterlimit="10"/>
<path d="M644.922 635.967C812.982 635.967 949.222 596.582 949.222 547.999C949.222 499.416 812.982 460.032 644.922 460.032C476.861 460.032 340.621 499.416 340.621 547.999C340.621 596.582 476.861 635.967 644.922 635.967Z" fill="#00A193" stroke="white" stroke-width="40" stroke-miterlimit="10"/>
<path d="M644.922 665.122C989.796 665.122 1269.37 573.304 1269.37 460.04C1269.37 346.776 989.796 254.958 644.922 254.958C300.048 254.958 20.4727 346.776 20.4727 460.04C20.4727 573.304 300.048 665.122 644.922 665.122Z" fill="#00A193" stroke="white" stroke-width="40" stroke-miterlimit="10"/>
<path d="M644.922 548.007C812.982 548.007 949.222 508.623 949.222 460.04C949.222 411.457 812.982 372.073 644.922 372.073C476.861 372.073 340.621 411.457 340.621 460.04C340.621 508.623 476.861 548.007 644.922 548.007Z" fill="#00A193" stroke="white" stroke-width="40" stroke-miterlimit="10"/>
<path d="M644.922 547.999C989.796 547.999 1269.37 456.181 1269.37 342.917C1269.37 229.653 989.796 137.835 644.922 137.835C300.048 137.835 20.4727 229.653 20.4727 342.917C20.4727 456.181 300.048 547.999 644.922 547.999Z" fill="#00A193" stroke="white" stroke-width="40" stroke-miterlimit="10"/>
<path d="M644.922 430.884C812.982 430.884 949.222 391.5 949.222 342.917C949.222 294.334 812.982 254.95 644.922 254.95C476.861 254.95 340.621 294.334 340.621 342.917C340.621 391.5 476.861 430.884 644.922 430.884Z" fill="#00A193" stroke="white" stroke-width="40" stroke-miterlimit="10"/>
<path d="M644.922 430.884C989.796 430.884 1269.37 339.066 1269.37 225.802C1269.37 112.538 989.796 20.7199 644.922 20.7199C300.048 20.7199 20.4727 112.538 20.4727 225.802C20.4727 339.066 300.048 430.884 644.922 430.884Z" fill="#00A193" stroke="white" stroke-width="40" stroke-miterlimit="10"/>
<path d="M644.922 313.769C812.982 313.769 949.222 274.385 949.222 225.802C949.222 177.219 812.982 137.835 644.922 137.835C476.861 137.835 340.621 177.219 340.621 225.802C340.621 274.385 476.861 313.769 644.922 313.769Z" fill="#00A193" stroke="white" stroke-width="40" stroke-miterlimit="10"/>
</svg>
