<svg width="1104" height="1014" viewBox="0 0 1104 1014" fill="none" xmlns="http://www.w3.org/2000/svg">
<path d="M1046.04 413.852C1031.32 394.546 1010.44 383.464 988.756 383.464C982.463 383.464 976.502 383.906 970.788 384.651V306.653C970.788 259.14 932.149 220.486 884.621 220.486H253.465C205.951 220.486 167.297 259.14 167.297 306.653V384.651C161.584 383.906 155.623 383.464 149.33 383.464C127.65 383.464 106.771 394.546 92.046 413.852C76.6038 434.083 71.0838 459.613 77.2662 482.12C86.1258 514.371 114.926 525.563 134.495 527.771V619.058C134.495 641.883 150.972 660.872 172.652 664.915V732.259C172.652 736.993 176.488 740.829 181.222 740.829H218.896C222.87 740.829 226.306 738.11 227.231 734.26L243.639 665.785H894.433L910.841 734.26C911.766 738.11 915.216 740.829 919.177 740.829H956.851C961.584 740.829 965.42 736.993 965.42 732.259V664.915C987.086 660.872 1003.56 641.883 1003.56 619.058V527.771C1023.13 525.563 1051.95 514.371 1060.81 482.12C1067 459.613 1061.48 434.096 1046.04 413.852ZM953.649 306.667V388.253C921.523 397.844 902.63 421.442 902.63 454.589V496.045H708.671V237.64H884.635C922.682 237.64 953.649 268.607 953.649 306.667ZM235.442 513.184H902.63V572.345H235.442V513.184ZM446.554 496.045V237.64H691.518V496.031H446.554V496.045ZM184.437 306.667C184.437 268.607 215.39 237.64 253.451 237.64H429.387V496.031H235.442V454.576C235.442 421.442 216.563 397.83 184.437 388.239V306.667ZM212.134 723.689H189.791V665.785H226.003L212.134 723.689ZM925.952 723.689L912.083 665.785H948.295V723.689H925.952ZM1044.29 477.594C1034.97 511.487 996.622 511.059 995.214 511.059C992.786 511.031 990.661 511.901 989.032 513.515C987.376 515.116 986.438 517.338 986.438 519.629V619.072C986.438 635.383 973.176 648.645 956.864 648.645H181.222C164.91 648.645 151.634 635.369 151.634 619.072V519.629C151.634 517.324 150.696 515.116 149.04 513.515C147.453 511.942 145.273 511.059 143.023 511.059C142.968 511.059 142.913 511.059 142.858 511.059C141.34 511.114 103.086 511.487 93.7986 477.594C89.0238 460.206 93.4674 440.265 105.667 424.257C117.121 409.243 133.032 400.618 149.316 400.618C165.49 400.618 218.288 404.509 218.288 454.589V580.915C218.288 585.648 222.125 589.484 226.858 589.484H911.186C915.92 589.484 919.756 585.648 919.756 580.915V454.589C919.756 404.523 972.555 400.618 988.742 400.618C1005.04 400.618 1020.94 409.229 1032.39 424.257C1044.62 440.265 1049.05 460.206 1044.29 477.594Z" fill="white" stroke="white" stroke-width="25" stroke-miterlimit="10"/>
</svg>
