<svg width="519" height="520" viewBox="0 0 519 520" fill="none" xmlns="http://www.w3.org/2000/svg">
<path d="M183.103 293.488V328.328H148.33V293.488H113.557V258.648H148.33V223.808H183.103V258.648H217.876V293.488H183.103Z" stroke="white" stroke-width="25" stroke-miterlimit="10" stroke-linecap="round" stroke-linejoin="round"/>
<path d="M378.87 235.768C378.87 239.2 377.832 242.528 375.964 245.336L370.151 253.968C368.179 256.88 364.961 258.648 361.432 258.648C357.902 258.648 354.685 256.88 352.712 253.968L346.9 245.336C345.031 242.528 343.993 239.096 343.993 235.768V232.336C343.993 222.768 351.778 215.072 361.432 215.072C370.981 215.072 378.87 222.768 378.87 232.336V235.768Z" stroke="white" stroke-width="25" stroke-miterlimit="10"/>
<path d="M344.097 307.632C344.097 304.2 345.135 300.872 347.003 298.064L352.816 289.432C354.788 286.52 358.006 284.752 361.535 284.752C365.065 284.752 368.282 286.52 370.255 289.432L376.067 298.064C377.936 300.872 378.974 304.304 378.974 307.632V311.064C378.974 320.632 371.189 328.328 361.535 328.328C351.882 328.328 344.097 320.632 344.097 311.064V307.632Z" stroke="white" stroke-width="25" stroke-miterlimit="10"/>
<path d="M397.346 289.12C393.921 289.12 390.599 288.08 387.797 286.208L379.181 280.384C376.275 278.408 374.51 275.184 374.51 271.648C374.51 268.112 376.275 264.888 379.181 262.912L387.797 257.088C390.599 255.216 394.025 254.176 397.346 254.176H400.772C410.321 254.176 418.003 261.976 418.003 271.648C418.003 281.32 410.218 289.12 400.772 289.12H397.346Z" stroke="white" stroke-width="25" stroke-miterlimit="10"/>
<path d="M325.621 254.28C329.046 254.28 332.368 255.32 335.17 257.192L343.786 263.016C346.692 264.992 348.457 268.216 348.457 271.752C348.457 275.288 346.692 278.512 343.786 280.488L335.17 286.312C332.368 288.184 329.046 289.224 325.621 289.224H322.195C312.646 289.224 304.964 281.424 304.964 271.752C304.964 262.08 312.646 254.28 322.195 254.28H325.621Z" stroke="white" stroke-width="25" stroke-miterlimit="10"/>
<path d="M377.728 162.76C405.858 162.76 430.666 180.856 439.385 207.688L493.258 374.192C504.053 407.576 486.407 443.456 453.398 455.208C422.985 466.128 389.042 453.96 372.434 426.192L348.145 385.736C336.416 366.184 315.344 354.224 292.612 354.224H230.54C207.808 354.224 186.632 366.184 175.007 385.736L150.51 426.192C133.902 453.96 99.9594 466.128 69.4422 455.208C36.4338 443.456 18.7878 407.576 29.583 374.192L83.3514 207.688C91.9668 180.96 116.879 162.76 145.009 162.76H377.728V162.76Z" stroke="white" stroke-width="25" stroke-miterlimit="10" stroke-linecap="round" stroke-linejoin="round"/>
<path d="M261.368 162.76V127.92C261.368 108.68 276.938 93.08 296.141 93.08H339.634C358.837 93.08 374.407 77.48 374.407 58.24V23.296" stroke="white" stroke-width="25" stroke-miterlimit="10" stroke-linecap="round" stroke-linejoin="round"/>
</svg>
