<?xml version="1.0" encoding="utf-8"?>
<!-- Generator: Adobe Illustrator 23.0.3, SVG Export Plug-In . SVG Version: 6.00 Build 0)  -->
<svg version="1.1" id="Ñëîé_1" xmlns="http://www.w3.org/2000/svg" xmlns:xlink="http://www.w3.org/1999/xlink" x="0px" y="0px"
	 viewBox="0 0 2040.0661621 1830" enable-background="new 0 0 2040.0661621 1830" xml:space="preserve">
<g>
	
		<line fill="none" stroke="#FFFFFF" stroke-width="63.3016014" stroke-linecap="round" stroke-linejoin="round" stroke-miterlimit="10" x1="470.6032104" y1="435.9892273" x2="344" y2="435.9892273"/>
	
		<path fill="none" stroke="#FFFFFF" stroke-width="63.3016014" stroke-linecap="round" stroke-linejoin="round" stroke-miterlimit="10" d="
		M766.0106812,562.5924072H597.2064209c-69.9778442,0-126.6032104-56.6250916-126.6032104-126.6031799
		c0-69.9778137,56.6253662-126.6031799,126.6032104-126.6031799h168.8042603"/>
	
		<path fill="none" stroke="#FFFFFF" stroke-width="63.3016014" stroke-linecap="round" stroke-linejoin="round" stroke-miterlimit="10" d="
		M766.0106812,309.3860474c0-46.651886,122.1524048-84.4021454,168.8042603-84.4021454v422.0106812
		c-46.6518555,0-168.8042603-37.75-168.8042603-84.4021606V309.3860474z"/>
	
		<line fill="none" stroke="#FFFFFF" stroke-width="63.3016014" stroke-linecap="round" stroke-linejoin="round" stroke-miterlimit="10" x1="1610.0319824" y1="488.7405701" x2="1483.428833" y2="488.7405701"/>
	
		<line fill="none" stroke="#FFFFFF" stroke-width="63.3016014" stroke-linecap="round" stroke-linejoin="round" stroke-miterlimit="10" x1="1610.0319824" y1="383.237915" x2="1483.428833" y2="383.237915"/>
	
		<path fill="none" stroke="#FFFFFF" stroke-width="63.3016014" stroke-linecap="round" stroke-linejoin="round" stroke-miterlimit="10" d="
		M934.8149414,646.9945679c46.6518555,0,75.9619141,42.2010498,84.4020996,84.4021606l84.4020996,337.6085205
		c9.7642822,42.2010498-37.7502441,84.4020996-84.4020996,84.4020996h-84.4020996
		c-46.6518555,0-84.4021606,37.7502441-84.4021606,84.4020996v84.4022217h675.2171021v-84.4022217
		c0-46.6518555-37.7502441-84.4020996-84.4020996-84.4020996c-46.6519775,0-84.4022217-37.75-84.4022217-84.4020996V731.3967285
		c0-46.6519165,37.7502441-84.4021606,84.4022217-84.4021606h84.4020996c46.6518555,0,84.4020996-37.75,84.4020996-84.4021606
		V309.3860474c0-46.651886-37.7502441-84.4021454-84.4020996-84.4021454H934.8149414"/>
	
		<line fill="none" stroke="#FFFFFF" stroke-width="63.3016014" stroke-linecap="round" stroke-linejoin="round" stroke-miterlimit="10" x1="1103.1971436" y1="562.5924072" x2="1104.0412598" y2="562.5924072"/>
	
		<polyline fill="none" stroke="#FFFFFF" stroke-width="63.3016014" stroke-linecap="round" stroke-linejoin="round" stroke-miterlimit="10" points="
		1525.6298828,1322.2116699 1525.6298828,1491.0158691 850.4127808,1491.0158691 850.4127808,1322.2116699 	"/>
</g>
</svg>
