<svg width="106" height="29" viewBox="0 0 106 29" fill="none" xmlns="http://www.w3.org/2000/svg">
<path fill-rule="evenodd" clip-rule="evenodd" d="M103.736 13.9977C104.192 13.9977 104.562 13.6192 104.562 13.1523V10.7186C104.562 10.2517 104.192 9.87316 103.736 9.87316H101.927V7.37906C101.927 6.81235 101.393 6.40612 100.864 6.56956L98.3097 7.3573C97.9609 7.46488 97.7222 7.7938 97.7222 8.1668V9.87316H96.648C96.192 9.87316 95.8224 10.2517 95.8224 10.7186V13.1523C95.8224 13.6192 96.192 13.9977 96.648 13.9977H97.7222V17.8628C97.7222 19.9208 98.2288 21.3475 99.2421 22.143C100.17 22.8439 101.7 23.1029 103.833 22.9201C104.249 22.8844 104.562 22.5217 104.562 22.094V19.8443C104.562 19.3596 104.164 18.9802 103.691 18.9723C103.188 18.9639 102.803 18.914 102.535 18.8226C102.13 18.6843 101.927 18.3298 101.927 17.7591V13.9977H103.736ZM67.6693 10.9627C66.8249 9.99421 65.6682 9.50999 64.199 9.50999C62.6285 9.50999 61.4042 10.0634 60.526 11.1702C59.8168 10.0634 58.736 9.50999 57.2837 9.50999C55.7807 9.50999 54.6408 10.0374 53.864 11.0924V10.7186C53.864 10.2517 53.4944 9.87316 53.0385 9.87316H50.4847C50.0287 9.87316 49.6591 10.2517 49.6591 10.7186V21.998C49.6591 22.4649 50.0287 22.8434 50.4847 22.8434H53.0385C53.4944 22.8434 53.864 22.4649 53.864 21.998V15.7617C53.864 15.0872 54.0076 14.5597 54.2947 14.1793C54.5986 13.7815 55.0377 13.5827 55.6119 13.5827C56.6757 13.5827 57.2077 14.1879 57.2077 15.3985V21.998C57.2077 22.4649 57.5773 22.8434 58.0332 22.8434H60.5871C61.043 22.8434 61.4126 22.4649 61.4126 21.998V15.7617C61.4126 15.0872 61.5561 14.5597 61.8432 14.1793C62.1472 13.7815 62.5863 13.5827 63.1604 13.5827C64.2074 13.5827 64.7309 14.1879 64.7309 15.3985V21.998C64.7309 22.4649 65.1005 22.8434 65.5565 22.8434H68.1356C68.5915 22.8434 68.9612 22.4649 68.9612 21.998V14.9056C68.9612 13.2281 68.5305 11.9138 67.6693 10.9627ZM80.9724 9.87316C80.5165 9.87316 80.1469 10.2517 80.1469 10.7186V11.0664C79.2856 10.0288 78.0866 9.50999 76.5499 9.50999C74.8612 9.50999 73.4426 10.1672 72.2943 11.4815C71.1629 12.7785 70.5972 14.4041 70.5972 16.3583C70.5972 18.3125 71.1629 19.9467 72.2943 21.2611C73.4426 22.5581 74.8612 23.2066 76.5499 23.2066C78.0866 23.2066 79.2856 22.6878 80.1469 21.6502V21.998C80.1469 22.4649 80.5165 22.8434 80.9724 22.8434H83.5262C83.9821 22.8434 84.3518 22.4649 84.3518 21.998V10.7186C84.3518 10.2517 83.9821 9.87316 83.5262 9.87316H80.9724ZM77.4871 19.1858C76.6934 19.1858 76.0517 18.9264 75.562 18.4076C75.0723 17.8888 74.8274 17.2057 74.8274 16.3583C74.8274 15.5109 75.0723 14.8278 75.562 14.309C76.0517 13.7902 76.6934 13.5308 77.4871 13.5308C78.2808 13.5308 78.9225 13.7902 79.4123 14.309C79.902 14.8278 80.1469 15.5109 80.1469 16.3583C80.1469 17.2057 79.902 17.8888 79.4123 18.4076C78.9225 18.9264 78.2808 19.1858 77.4871 19.1858ZM90.9943 12.2856C91.2308 11.4382 91.7036 10.7811 92.4129 10.3141C92.8939 9.99746 93.4138 9.78817 93.9725 9.68627C94.4214 9.6044 94.794 9.99226 94.794 10.4592V13.3974C94.794 13.9169 94.3365 14.3032 93.8309 14.3459C93.2375 14.3959 92.6803 14.5912 92.1596 14.9316C91.3828 15.4504 90.9943 16.2978 90.9943 17.4737V21.998C90.9943 22.4649 90.6247 22.8434 90.1688 22.8434H87.615C87.159 22.8434 86.7894 22.4649 86.7894 21.998V10.7186C86.7894 10.2517 87.159 9.87316 87.615 9.87316H90.1688C90.6247 9.87316 90.9943 10.2517 90.9943 10.7186V12.2856ZM29.7991 9.87322C29.3431 9.87322 28.9735 10.2517 28.9735 10.7186V11.0665C28.1123 10.0289 26.9133 9.51005 25.3766 9.51005C23.6878 9.51005 22.2693 10.1672 21.121 11.4815C19.9895 12.7786 19.4238 14.4042 19.4238 16.3584C19.4238 18.3125 19.9895 19.9468 21.121 21.2611C22.2693 22.5582 23.6878 23.2067 25.3766 23.2067C26.9133 23.2067 28.1123 22.6879 28.9735 21.6502V21.9981C28.9735 22.465 29.3431 22.8435 29.7991 22.8435H32.3529C32.8088 22.8435 33.1784 22.465 33.1784 21.9981V10.7186C33.1784 10.2517 32.8088 9.87322 32.3529 9.87322H29.7991ZM26.3138 19.1859C25.5201 19.1859 24.8784 18.9265 24.3887 18.4077C23.8989 17.8889 23.6541 17.2058 23.6541 16.3584C23.6541 15.511 23.8989 14.8279 24.3887 14.3091C24.8784 13.7902 25.5201 13.5308 26.3138 13.5308C27.1075 13.5308 27.7492 13.7902 28.2389 14.3091C28.7287 14.8279 28.9735 15.511 28.9735 16.3584C28.9735 17.2058 28.7287 17.8889 28.2389 18.4077C27.7492 18.9265 27.1075 19.1859 26.3138 19.1859ZM44.2788 9.87322C43.9054 9.87322 43.5786 10.1298 43.4816 10.4991L41.6702 17.396L39.3047 10.4406C39.1892 10.1009 38.8764 9.87322 38.5251 9.87322H35.6346C35.0466 9.87322 34.6471 10.4849 34.8716 11.0415L39.4664 22.4284C39.1793 23.0164 38.8078 23.4228 38.3518 23.6477C38.0484 23.7973 37.6478 23.8971 37.1499 23.9471C36.6961 23.9928 36.3254 24.3634 36.3254 24.8303V27.2218C36.3254 27.6746 36.6742 28.0509 37.1162 28.0402C38.7181 28.0015 40.0504 27.6096 41.1129 26.8643C42.3456 25.9996 43.2998 24.5902 43.9753 22.636L47.9257 10.9962C48.1121 10.4468 47.7138 9.87322 47.1459 9.87322H44.2788Z" fill="#1E1E1E"/>
<path fill-rule="evenodd" clip-rule="evenodd" d="M3.3417 0C1.49613 0 0 1.53243 0 3.42277V19.4344C0 21.3247 1.49613 22.8571 3.3417 22.8571C5.18728 22.8571 6.68341 21.3247 6.68341 19.4344V15.3195H11.4124C15.5379 15.3195 18.8823 11.894 18.8823 7.66836C18.8823 3.44276 15.5379 0.0172294 11.4124 0.0172294H3.6791C3.56814 0.00583511 3.45559 0 3.3417 0Z" fill="#FF7643"/>
<path fill-rule="evenodd" clip-rule="evenodd" d="M6.6968 15.321V19.4343C6.6968 21.3247 5.20066 22.8571 3.35509 22.8571C2.42813 22.8571 1.58931 22.4705 0.983948 21.8462C1.39732 18.151 3.74682 15.3195 6.58333 15.3195C6.62124 15.3195 6.65906 15.32 6.6968 15.321Z" fill="#1E1E1E"/>
</svg>
