<svg width="24" height="24" viewBox="0 0 24 24" fill="none" xmlns="http://www.w3.org/2000/svg">
    <path
        d="M9.33203 6.66797H14.666M9.32716 17.332L9.32924 17.3333M9.32716 14.6679L9.32924 14.6692M9.32716 12.0039L9.32924 12.0052M11.999 12.0039L12.0011 12.0052M11.999 14.6679L12.0011 14.6692M11.999 17.332L12.0011 17.3333M14.6719 12.0039L14.674 12.0052M14.6875 17.3398V14.6641M15.666 21.332H8.33203C6.67503 21.332 5.33203 19.989 5.33203 18.332V5.66797C5.33203 4.01097 6.67503 2.66797 8.33203 2.66797H15.665C17.322 2.66797 18.665 4.01097 18.665 5.66797V18.332C18.666 19.989 17.323 21.332 15.666 21.332Z"
        stroke="white" stroke-miterlimit="10" stroke-linecap="round" stroke-linejoin="round"/>
</svg>
