<svg width="24" height="24" viewBox="0 0 24 24" fill="#7000FF" xmlns="http://www.w3.org/2000/svg">
    <path d="M5.80398 10.561C5.53061 10.8344 5.53061 11.2776 5.80398 11.551C6.07734 11.8244 6.52056 11.8244 6.79392 11.551L5.80398 10.561ZM12.012 5.34302L12.5069 4.84804C12.2336 4.57468 11.7903 4.57468 11.517 4.84804L12.012 5.34302ZM17.23 11.551C17.5033 11.8244 17.9466 11.8244 18.2199 11.551C18.4933 11.2776 18.4933 10.8344 18.2199 10.561L17.23 11.551ZM11.312 18.657C11.312 19.0436 11.6254 19.357 12.012 19.357C12.3985 19.357 12.712 19.0436 12.712 18.657H11.312ZM12.712 5.36002C12.712 4.97342 12.3985 4.66002 12.012 4.66002C11.6254 4.66002 11.312 4.97342 11.312 5.36002H12.712ZM6.79392 11.551L12.5069 5.83799L11.517 4.84804L5.80398 10.561L6.79392 11.551ZM11.517 5.83799L17.23 11.551L18.2199 10.561L12.5069 4.84804L11.517 5.83799ZM12.712 18.657V5.36002H11.312V18.657H12.712Z" fill="#7000FF"/>
</svg>
