<svg width="24" height="24" viewBox="0 0 24 24" fill="none" xmlns="http://www.w3.org/2000/svg">
    <path d="M12 3C7.03749 3 3 7.03749 3 12C3 16.9625 7.03749 21 12 21C16.9625 21 21 16.9625 21 12C21 7.03749 16.9625 3 12 3ZM12 19.875C7.65765 19.875 4.12501 16.3424 4.12501 12C4.12501 7.65765 7.65765 4.12501 12 4.12501C16.3424 4.12501 19.875 7.65765 19.875 12C19.875 16.3424 16.3424 19.875 12 19.875Z" fill="#FF7643"/>
    <path d="M8 12.2222L10.8571 15L16 10" stroke="#FF7643" stroke-width="1.2"/>
</svg>
