<svg width="24" height="24" viewBox="0 0 24 24" fill="none" xmlns="http://www.w3.org/2000/svg">
    <path d="M2.66797 13.715C4.13797 13.334 5.67897 13.132 7.26797 13.132C12.733 13.132 17.638 15.528 20.99 19.326M18.332 21.332H5.66797C4.01097 21.332 2.66797 19.989 2.66797 18.332V5.66797C2.66797 4.01097 4.01097 2.66797 5.66797 2.66797H18.332C19.989 2.66797 21.332 4.01097 21.332 5.66797V18.332C21.332 19.989 19.989 21.332 18.332 21.332ZM18.117 8.70897C18.117 10.1819 16.9229 11.376 15.45 11.376C13.977 11.376 12.783 10.1819 12.783 8.70897C12.783 7.23602 13.977 6.04197 15.45 6.04197C16.9229 6.04197 18.117 7.23602 18.117 8.70897Z" stroke="currentColor" stroke-width="1.4" stroke-miterlimit="10" stroke-linecap="round" stroke-linejoin="round"/>
</svg>
