<svg width="96" height="96" viewBox="0 0 96 96" fill="none" xmlns="http://www.w3.org/2000/svg">
    <path d="M72.9253 42.1027C74.0968 43.2743 74.0968 45.1738 72.9253 46.3453C71.7537 47.5169 69.8542 47.5169 68.6826 46.3453L72.9253 42.1027ZM47.952 21.372L45.8306 19.2507C47.0022 18.0791 48.9017 18.0791 50.0733 19.2507L47.952 21.372ZM27.2213 46.3453C26.0497 47.5169 24.1502 47.5169 22.9786 46.3453C21.8071 45.1738 21.8071 43.2743 22.9786 42.1027L27.2213 46.3453ZM50.952 74.628C50.952 76.2849 49.6088 77.628 47.952 77.628C46.2951 77.628 44.952 76.2849 44.952 74.628H50.952ZM44.952 21.44C44.952 19.7832 46.2951 18.44 47.952 18.44C49.6088 18.44 50.952 19.7832 50.952 21.44H44.952ZM68.6826 46.3453L45.8306 23.4933L50.0733 19.2507L72.9253 42.1027L68.6826 46.3453ZM50.0733 23.4933L27.2213 46.3453L22.9786 42.1027L45.8306 19.2507L50.0733 23.4933ZM44.952 74.628V21.44H50.952V74.628H44.952Z" fill="#FF7643"/>
</svg>
