<svg width="24" height="24" viewBox="0 0 24 24" fill="none" xmlns="http://www.w3.org/2000/svg">
<path fill-rule="evenodd" clip-rule="evenodd" d="M5 3C3.89543 3 3 3.89543 3 5V19C3 20.1046 3.89543 21 5 21H19C20.1046 21 21 20.1046 21 19V5C21 3.89543 20.1046 3 19 3H5ZM9.1427 5.5708C8.59042 5.5708 8.1427 6.01852 8.1427 6.5708V17.4279C8.1427 17.9802 8.59042 18.4279 9.1427 18.4279H9.71413C10.2664 18.4279 10.7141 17.9802 10.7141 17.4279V6.5708C10.7141 6.01852 10.2664 5.5708 9.71413 5.5708H9.1427Z" fill="#1E1E1E"/>
</svg>
