<svg width="24" height="24" viewBox="0 0 24 24" fill="none" xmlns="http://www.w3.org/2000/svg">
<path d="M2.66699 19.8412V15.3342C2.66699 14.2292 3.56199 13.3342 4.66699 13.3342H14C15.105 13.3342 16 14.2292 16 15.3342V19.8412M14.667 4.16016C16.304 4.16016 17.63 5.48716 17.63 7.12316C17.63 8.75916 16.303 10.0862 14.667 10.0862M19.333 13.3352C20.438 13.3352 21.333 14.2302 21.333 15.3352V19.8422M12.296 7.12316C12.296 8.75958 10.9694 10.0862 9.33299 10.0862C7.69657 10.0862 6.36999 8.75958 6.36999 7.12316C6.36999 5.48674 7.69657 4.16016 9.33299 4.16016C10.9694 4.16016 12.296 5.48674 12.296 7.12316Z" stroke="white" stroke-miterlimit="10" stroke-linecap="round" stroke-linejoin="round"/>
</svg>
