<?xml version="1.0" encoding="utf-8"?>
<!-- Generator: Adobe Illustrator 23.0.3, SVG Export Plug-In . SVG Version: 6.00 Build 0)  -->
<svg version="1.1" id="Ñëîé_6" xmlns="http://www.w3.org/2000/svg" xmlns:xlink="http://www.w3.org/1999/xlink" x="0px" y="0px"
	 viewBox="0 0 500 500" style="enable-background:new 0 0 500 500;" xml:space="preserve">
<style type="text/css">
	.st0{fill:#FFFFFF;}
</style>
<path class="st0" d="M92,309.1c16.1,9.6,34.9,17.2,55.6,22.4l-9.8,19.8c-5.3-1.5-11-2.3-16.8-2.3c-34.4,0-62.4,28-62.4,62.4
	c0,34.4,28,62.4,62.4,62.4c30.4,0,55.9-21.9,61.3-50.8h76.1c5.4,28.9,30.8,50.8,61.3,50.8c34.4,0,62.4-28,62.4-62.4
	c0-34.4-28-62.4-62.4-62.4c-5.8,0-11.4,0.8-16.8,2.3l-9.8-19.8c20.6-5.3,39.5-12.8,55.6-22.4c36.6-21.9,56.8-53.2,56.8-88.3v-15.6
	l13.1-35.2c9.4-25.2,33.8-42.2,60.8-42.2c6.4,0,11.6-5.2,11.6-11.6c0-6.4-5.2-11.6-11.6-11.6c-18,0-35.4,5.4-50.2,15.7
	c-14.8,10.3-26,24.6-32.3,41.5l-11,29.6H231.9V29.5c0-6.4-5.2-11.6-11.6-11.6c-49.5,0-96,19.3-130.9,54.2
	c-35,35-54.2,81.5-54.2,130.9v17.7C35.2,255.8,55.4,287.2,92,309.1z M70.2,142.1l100.5,49.4h-112C59.9,174.2,63.9,157.6,70.2,142.1z
	 M129.5,68.9l61.8,107L80.4,121.4C92.7,100.5,109.5,82.5,129.5,68.9z M382.4,220.8c0,34-24.8,56-45.6,68.4
	c-15.4,9.2-33.8,16.3-54.2,21.1c-7.6,1.8-15.5,3.2-23.6,4.3c-12.5,1.7-25.4,2.6-38.7,2.6s-26.2-0.9-38.7-2.6
	c-8.1-1.1-16-2.5-23.6-4.3c-20.3-4.7-38.7-11.8-54.2-21.1c-20.8-12.4-45.6-34.4-45.6-68.4v-6.2h147h15c0,0,0.1,0,0.1,0h0.1
	c0,0,15,0,15,0h147V220.8z M208.8,41.4V160L149.5,57.3C167.7,48.5,187.7,42.9,208.8,41.4z M160.3,411.4c0,4-0.6,7.9-1.7,11.6
	c-4.9,16-19.9,27.7-37.5,27.7c-21.7,0-39.3-17.6-39.3-39.3c0-21.7,17.6-39.3,39.3-39.3c2.1,0,4.2,0.2,6.3,0.5
	c7.9,1.3,15.1,5,20.7,10.3c4.9,4.6,8.6,10.4,10.6,17C159.7,403.5,160.3,407.3,160.3,411.4z M359,411.4c0,21.7-17.6,39.3-39.3,39.3
	c-17.6,0-32.6-11.7-37.5-27.7c-1.1-3.7-1.7-7.5-1.7-11.6s0.6-7.9,1.7-11.6c2-6.5,5.7-12.4,10.6-17c5.6-5.3,12.8-9,20.7-10.3
	c2-0.3,4.1-0.5,6.3-0.5C341.3,372.1,359,389.7,359,411.4z M282.2,361.5c-12.2,9.2-20.9,22.7-23.8,38.3h-76.1
	c-2.9-15.6-11.6-29.1-23.8-38.3l12.4-25.2c15.8,2.6,32.4,3.9,49.4,3.9s33.6-1.3,49.4-3.9L282.2,361.5z"/>
</svg>
