<svg width="581" height="623" viewBox="0 0 581 623" fill="none" xmlns="http://www.w3.org/2000/svg">
<path d="M446.033 320.183L446.031 320.183L398.759 304.456L398.759 304.456C393.847 302.82 391.188 297.519 392.825 292.613L392.825 292.612C394.466 287.703 399.785 285.064 404.684 286.692L404.685 286.692L444.822 300.046L484.451 234.117L395.089 144.926L395.089 144.926C391.425 141.269 391.425 135.339 395.089 131.681L446.033 320.183ZM446.033 320.183C447.009 320.506 448.007 320.662 448.994 320.662C452.216 320.662 455.301 318.998 457.034 316.123L457.035 316.122L504.304 237.485C506.518 233.801 505.935 229.083 502.892 226.044L501.95 226.988M446.033 320.183L501.95 226.988M501.95 226.988L502.892 226.044L408.348 131.681C408.348 131.681 408.348 131.681 408.348 131.681C404.686 128.026 398.749 128.025 395.089 131.681L501.95 226.988Z" fill="white" stroke="white" stroke-width="3"/>
<path d="M62.794 237.48L62.7944 237.481L110.063 316.118C111.793 318.999 114.883 320.662 118.104 320.662C119.095 320.662 120.094 320.502 121.063 320.179L168.332 304.452L168.332 304.452C173.245 302.816 175.903 297.515 174.266 292.606C172.629 287.695 167.305 285.058 162.407 286.685L162.406 286.685L122.272 300.039L82.6433 234.11L172.002 144.922L170.942 143.861L172.002 144.922C175.666 141.265 175.666 135.334 172.002 131.677C168.343 128.021 162.402 128.022 158.743 131.678L64.2065 226.041C61.1625 229.079 60.5804 233.794 62.794 237.48Z" fill="white" stroke="white" stroke-width="3"/>
<path d="M404.681 129.414L404.681 129.414C408.511 130.688 411.097 134.264 411.097 138.298V484.309V484.31H409.597L404.681 129.414ZM404.681 129.414L401.889 128.486C387.828 123.81 359.223 114.299 357.571 113.739C354.062 112.504 350.138 113.449 347.589 116.183M404.681 129.414L347.589 116.183M347.589 116.183C330.425 134.56 307.682 144.654 283.537 144.658L347.589 116.183ZM162.41 129.414L162.41 129.414L283.537 144.658H283.536H283.536H283.536H283.536H283.536H283.536H283.536H283.536H283.536H283.536H283.536H283.536H283.536H283.536H283.535H283.535H283.535H283.535H283.535H283.535H283.535H283.535H283.535H283.535H283.535H283.535H283.535H283.535H283.535H283.534H283.534H283.534H283.534H283.534H283.534H283.534H283.534H283.534H283.534H283.534H283.534H283.534H283.534H283.534H283.534H283.533H283.533H283.533H283.533H283.533H283.533H283.533H283.533H283.533H283.533H283.533H283.533H283.533H283.533H283.533H283.533H283.532H283.532H283.532H283.532H283.532H283.532H283.532H283.532H283.532H283.532H283.532H283.532H283.532H283.532H283.532H283.531H283.531H283.531H283.531H283.531H283.531H283.531H283.531H283.531H283.531H283.531H283.531H283.531H283.531H283.531H283.531H283.53H283.53H283.53H283.53H283.53H283.53H283.53H283.53H283.53H283.53H283.53H283.53H283.53C259.398 144.658 236.658 134.567 219.498 116.197C216.999 113.521 213.16 112.541 209.678 113.702C209.678 113.702 209.678 113.702 209.677 113.702L162.41 129.414ZM392.344 474.947H174.751V145.049L210.058 133.315C230.23 152.743 256.097 163.388 283.533 163.388H283.54C310.987 163.388 336.861 152.74 357.033 133.305L392.344 145.049V474.947Z" fill="white" stroke="white" stroke-width="3"/>
</svg>
