<svg width="393" height="522" viewBox="0 0 393 522" fill="none" xmlns="http://www.w3.org/2000/svg">
<path d="M368.736 508.876H23.5886C17.6247 508.876 12.8 504.052 12.8 498.09V23.6161C12.8 17.6534 17.6247 12.8296 23.5886 12.8296H368.736C374.7 12.8296 379.525 17.6534 379.525 23.6161V498.09C379.502 504.052 374.678 508.876 368.736 508.876Z" stroke="white" stroke-width="25" stroke-miterlimit="10" stroke-linecap="round"/>
<path d="M293.215 77.5265H271.661" stroke="white" stroke-width="25" stroke-miterlimit="10"/>
<path d="M336.37 77.5265H314.793" stroke="white" stroke-width="25" stroke-miterlimit="10"/>
<path d="M250.083 77.5265H228.506" stroke="white" stroke-width="25" stroke-miterlimit="10"/>
<path d="M196.162 454.943C273.597 454.943 336.37 392.183 336.37 314.763C336.37 237.344 273.597 174.583 196.162 174.583C118.728 174.583 55.9546 237.344 55.9546 314.763C55.9546 392.183 118.728 454.943 196.162 454.943Z" stroke="white" stroke-width="25" stroke-miterlimit="10" stroke-linecap="round"/>
<path d="M196.162 217.729C229.377 217.729 258.683 234.434 276.173 259.87C266.992 271.282 260.872 291.582 260.872 314.786C260.872 337.989 266.992 358.267 276.173 369.701C258.683 395.137 229.377 411.842 196.162 411.842C142.554 411.842 99.0869 368.383 99.0869 314.786C99.0869 261.166 142.554 217.729 196.162 217.729Z" stroke="white" stroke-width="25" stroke-miterlimit="10" stroke-linecap="round"/>
<path d="M153.008 55.9757H55.9323V109.886H153.008V55.9757Z" stroke="white" stroke-width="25" stroke-miterlimit="10" stroke-linecap="round"/>
<path d="M153.03 347.167C146.24 338.145 142.219 326.934 142.219 314.785C142.219 285.016 166.365 260.875 196.14 260.875" stroke="white" stroke-width="25" stroke-miterlimit="10" stroke-linecap="round"/>
</svg>
