<svg width="341" height="479" viewBox="0 0 341 479" fill="none" xmlns="http://www.w3.org/2000/svg">
<path d="M230.559 426.308H260.134V465.726H23.5186V426.308H53.0933" stroke="white" stroke-width="25" stroke-miterlimit="10"/>
<path d="M240.43 32.2261H272.887C277.357 32.2261 281.626 33.9946 284.783 37.1487L323.261 75.5997C326.964 79.3008 328.734 84.5151 328.041 89.7112L311.712 212.157C310.398 221.947 302.042 229.258 292.172 229.258H279.856V108.144C279.856 103.677 278.087 99.4106 274.93 96.2565C271.774 93.1023 267.487 91.3339 263.035 91.3339H240.43" stroke="white" stroke-width="25" stroke-miterlimit="10" stroke-linecap="round"/>
<path d="M43.2411 91.3339H92.5383" stroke="white" stroke-width="25" stroke-miterlimit="10"/>
<path d="M43.2411 140.596H92.5383" stroke="white" stroke-width="25" stroke-miterlimit="10"/>
<path d="M43.2411 189.859H92.5383" stroke="white" stroke-width="25" stroke-miterlimit="10"/>
<path d="M200.985 288.384V258.83C228.516 249.641 240.43 231.154 240.43 189.859V12.5174H23.5186C23.5186 12.5174 43.2411 43.9492 43.2411 61.78C43.2411 79.6108 43.2411 189.859 43.2411 189.859C43.2411 231.154 55.1367 249.623 82.6861 258.83V288.384" stroke="white" stroke-width="25" stroke-miterlimit="10" stroke-linecap="round"/>
<path d="M250.282 426.308V367.201C250.282 303.754 204.798 288.384 141.835 288.384C78.873 288.384 33.389 303.754 33.389 367.201V426.308" stroke="white" stroke-width="25" stroke-miterlimit="10"/>
<path d="M141.835 396.754C158.169 396.754 171.41 383.523 171.41 367.201C171.41 350.878 158.169 337.647 141.835 337.647C125.502 337.647 112.261 350.878 112.261 367.201C112.261 383.523 125.502 396.754 141.835 396.754Z" stroke="white" stroke-width="25" stroke-miterlimit="10" stroke-linecap="round"/>
</svg>
