<svg width="393" height="472" viewBox="0 0 393 472" fill="none" xmlns="http://www.w3.org/2000/svg">
<path d="M382 433.3C382 448.7 369.5 461.1 354.2 461.1H224.2C208.8 461.1 196.4 448.6 196.4 433.3V154.8C196.4 139.4 208.9 127 224.2 127H354.2C369.6 127 382 139.5 382 154.8V433.3Z" stroke="white" stroke-width="20" stroke-miterlimit="10" stroke-linecap="round" stroke-linejoin="round"/>
<path d="M196.4 164.1H382" stroke="white" stroke-width="20" stroke-miterlimit="10" stroke-linecap="round" stroke-linejoin="round"/>
<path d="M270.6 433.3H307.7" stroke="white" stroke-width="20" stroke-miterlimit="10" stroke-linecap="round" stroke-linejoin="round"/>
<path d="M187.9 410.2H382.2" stroke="white" stroke-width="20" stroke-miterlimit="10" stroke-linecap="round" stroke-linejoin="round"/>
<path d="M193.3 410.2H43.5C25.1 410.2 10.2 395.3 10.2 376.9V44.1C10.2 25.7 25.1 10.8 43.5 10.8H276.5C294.9 10.8 309.8 25.7 309.8 44.1V127.3" stroke="white" stroke-width="20" stroke-miterlimit="10" stroke-linecap="round" stroke-linejoin="round"/>
<path d="M193.3 360.3H43.5V44.1H276.5V127.3" stroke="white" stroke-width="20" stroke-miterlimit="10" stroke-linecap="round" stroke-linejoin="round"/>
<path d="M143.4 385.3H176.7" stroke="white" stroke-width="20" stroke-miterlimit="10" stroke-linecap="round" stroke-linejoin="round"/>
</svg>
