<?xml version="1.0" encoding="utf-8"?>
<!-- Generator: Adobe Illustrator 23.0.3, SVG Export Plug-In . SVG Version: 6.00 Build 0)  -->
<svg version="1.1" id="Ñëîé_6" xmlns="http://www.w3.org/2000/svg" xmlns:xlink="http://www.w3.org/1999/xlink" x="0px" y="0px"
	 viewBox="0 0 500 500" style="enable-background:new 0 0 500 500;" xml:space="preserve">
<style type="text/css">
	.st0{fill:#FFFFFF;}
</style>
<g>
	<g>
		<path class="st0" d="M364.4,351.6h-71.6c-18,0-35.8-2.2-53.1-6.5l-9.9-2.5c-16.1-4-32.7-6.1-49.3-6.1h-21.7l-4.3,10.4
			c-1.2,2.8-3.9,4.6-6.9,4.6H40.9c-4.2,0-7.5-3.4-7.5-7.5v-45.1c0-4.2,3.4-7.5,7.5-7.5h139.5c17.8,0,35.7,2.2,53,6.5l9.9,2.5
			c16.1,4,32.7,6.1,49.5,6.1h71.6c42.6,0,110.5-14.7,111.2-14.9c2.2-0.5,4.5,0.1,6.3,1.5c1.8,1.4,2.8,3.6,2.8,5.9v24
			c0,7.1-5.1,13.3-12,14.7C452.2,341.8,400.5,351.6,364.4,351.6z M153.7,321.5h26.7c17.8,0,35.7,2.2,53,6.5l9.9,2.5
			c16.1,4,32.7,6.1,49.5,6.1h71.6c35.7,0,89.6-10.4,105.3-13.6l0-14.7c-20.4,4.1-70.2,13.3-105.3,13.3h-71.6
			c-18,0-35.8-2.2-53.1-6.5l-9.9-2.5c-16.1-4-32.7-6.1-49.3-6.1h-132v30.1h94l4.3-10.4C148,323.3,150.7,321.5,153.7,321.5z"/>
	</g>
	<g>
		<path class="st0" d="M52.8,306.5c-2.5,0-4.9-1.2-6.4-3.5c-0.5-0.8-13.1-21.1-13.1-49.1c0-42.8,15.9-63.9,16.6-64.8
			c1.4-1.8,3.6-2.9,6-2.9c5.2,0,10.7,2.9,19,7.2c16.3,8.5,43.6,22.9,86.3,22.9c46.2,0,100-43,100.6-43.5c2.8-2.3,6.8-2.2,9.6,0.1
			c0.7,0.6,70.5,58.7,102.2,66.2c11.2,2.6,23.7,3.8,35.7,4.9c35.4,3.2,75.4,6.8,75.4,55.1c0,4.2-3.4,7.5-7.5,7.5
			c-4.2,0-7.5-3.4-7.5-7.5c0-33-22.3-36.6-61.7-40.1c-12.5-1.1-25.5-2.3-37.8-5.2c-30.4-7.2-87-51.8-103.7-65.4
			c-15,11.2-61.7,43-105.2,43c-46.4,0-75.7-15.4-93.3-24.6c-2.8-1.5-6.1-3.2-8.6-4.3c-3.9,7.3-11,24.3-11,51.4
			c0,23.7,10.7,41,10.8,41.1c2.2,3.5,1.2,8.2-2.4,10.4C55.6,306.1,54.2,306.4,52.8,306.5z"/>
	</g>
	<g>
		<path class="st0" d="M221.6,310.5c-4.2,0-7.5-3.4-7.5-7.5c0-6.3,2.4-11.8,6.8-16.1c13.6-13,44.8-11.7,65.5-10.8
			c4.1,0.2,7.6,0.3,10.2,0.3c20.5,0,66-7.7,67.7-30.6c0.3-4.1,3.9-7.2,8.1-6.9c4.1,0.3,7.3,3.9,6.9,8.1
			c-2.7,36.6-60.6,44.6-82.7,44.6c-2.9,0-6.6-0.2-10.8-0.3c-15.9-0.7-45.5-1.9-54.5,6.7c-1.5,1.5-2.2,3.1-2.2,5.3
			C229.2,307.2,225.8,310.5,221.6,310.5z"/>
	</g>
	<g>
		<path class="st0" d="M268.9,219.9c-1.8,0-3.6-0.6-5.1-2c-3.1-2.8-3.3-7.6-0.5-10.6l16.8-18.5c2.8-3.1,7.6-3.3,10.6-0.5
			c3.1,2.8,3.3,7.6,0.5,10.6l-16.8,18.5C273,219,271,219.9,268.9,219.9z"/>
	</g>
	<g>
		<path class="st0" d="M296.5,240.2c-1.8,0-3.6-0.6-5.1-2c-3.1-2.8-3.3-7.6-0.5-10.6l16.8-18.5c2.8-3.1,7.6-3.3,10.6-0.5
			c3.1,2.8,3.3,7.6,0.5,10.6l-16.8,18.5C300.6,239.4,298.6,240.2,296.5,240.2z"/>
	</g>
	<g>
		<path class="st0" d="M325.4,258.9c-1.8,0-3.6-0.6-5.1-2c-3.1-2.8-3.3-7.6-0.5-10.6l16.8-18.5c2.8-3.1,7.6-3.3,10.6-0.5
			c3.1,2.8,3.3,7.6,0.5,10.6L331,256.4C329.5,258.1,327.5,258.9,325.4,258.9z"/>
	</g>
</g>
</svg>
