<svg width="655" height="473" viewBox="0 0 655 473" fill="none" xmlns="http://www.w3.org/2000/svg">
<path d="M108.755 400.864C116.211 400.864 122.255 394.82 122.255 387.364V85.876C122.255 78.4201 116.211 72.376 108.755 72.376H84.7737C73.3796 72.376 65.2029 79.832 60.5767 87.3437C55.8152 95.0753 53.308 104.905 53.308 115.048V358.192C53.308 368.335 55.8152 378.165 60.5767 385.896C65.2029 393.408 73.3796 400.864 84.7737 400.864H108.755Z" stroke="white" stroke-width="27" stroke-miterlimit="10" stroke-linecap="round" stroke-linejoin="round"/>
<path d="M164.092 459.208H203.032C226.592 459.208 245.704 440.096 245.704 416.536V56.704C245.704 33.1441 226.592 14.032 203.032 14.032H164.092C140.532 14.032 121.42 33.1441 121.42 56.704V416.536C121.42 440.096 140.532 459.208 164.092 459.208Z" stroke="white" stroke-width="27" stroke-miterlimit="10" stroke-linecap="round" stroke-linejoin="round"/>
<path d="M536.598 387.364C536.598 394.82 542.642 400.864 550.098 400.864H574.074C585.469 400.864 593.644 393.406 598.269 385.895C603.029 378.164 605.536 368.335 605.536 358.192V115.048C605.536 104.905 603.029 95.0762 598.269 87.3449C593.644 79.8337 585.469 72.376 574.074 72.376H550.098C542.642 72.376 536.598 78.4201 536.598 85.876V387.364Z" stroke="white" stroke-width="27" stroke-miterlimit="10" stroke-linecap="round" stroke-linejoin="round"/>
<path d="M455.812 459.208H494.752C518.312 459.208 537.424 440.096 537.424 416.536V56.704C537.424 33.1441 518.312 14.032 494.752 14.032H455.812C432.252 14.032 413.14 33.1441 413.14 56.704V416.536C413.14 440.096 432.252 459.208 455.812 459.208Z" stroke="white" stroke-width="27" stroke-miterlimit="10" stroke-linecap="round" stroke-linejoin="round"/>
<mask id="path-5-outside-1" maskUnits="userSpaceOnUse" x="0.867981" y="175.564" width="66" height="123" fill="black">
<rect fill="white" x="0.867981" y="175.564" width="66" height="123"/>
<path d="M66.808 270.676H37.636C32.224 270.676 27.868 266.32 27.868 260.908V212.332C27.868 206.92 30.904 202.564 36.316 202.564"/>
</mask>
<path d="M66.808 243.676H37.636V297.676H66.808V243.676ZM37.636 243.676C47.1356 243.676 54.868 251.408 54.868 260.908H0.867981C0.867981 281.232 17.3123 297.676 37.636 297.676V243.676ZM54.868 260.908V212.332H0.867981V260.908H54.868ZM54.868 212.332C54.868 214.405 54.3037 218.403 51.0116 222.452C47.2308 227.102 41.5948 229.564 36.316 229.564V175.564C25.6251 175.564 15.7651 180.204 9.11338 188.385C2.95023 195.965 0.867981 204.847 0.867981 212.332H54.868Z" fill="white" mask="url(#path-5-outside-1)"/>
<mask id="path-7-outside-2" maskUnits="userSpaceOnUse" x="0.867981" y="175.696" width="66" height="123" fill="black">
<rect fill="white" x="0.867981" y="175.696" width="66" height="123"/>
<path d="M66.808 202.696H37.636C32.224 202.696 27.868 207.052 27.868 212.464V261.04C27.868 266.452 30.904 270.808 36.316 270.808"/>
</mask>
<path d="M66.808 175.696H37.636V229.696H66.808V175.696ZM37.636 175.696C17.3123 175.696 0.867981 192.14 0.867981 212.464H54.868C54.868 221.964 47.1356 229.696 37.636 229.696V175.696ZM0.867981 212.464V261.04H54.868V212.464H0.867981ZM0.867981 261.04C0.867981 268.525 2.95023 277.407 9.1134 284.987C15.7652 293.168 25.6252 297.808 36.316 297.808V243.808C41.5948 243.808 47.2308 246.27 51.0116 250.92C54.3037 254.969 54.868 258.967 54.868 261.04H0.867981Z" fill="white" mask="url(#path-7-outside-2)"/>
<mask id="path-9-outside-3" maskUnits="userSpaceOnUse" x="592.036" y="175.696" width="66" height="123" fill="black">
<rect fill="white" x="592.036" y="175.696" width="66" height="123"/>
<path d="M621.208 202.696C626.62 202.696 630.976 207.052 630.976 212.464V261.04C630.976 266.452 626.62 270.808 621.208 270.808H592.036"/>
</mask>
<path d="M621.208 229.696C611.708 229.696 603.976 221.964 603.976 212.464H657.976C657.976 192.14 641.532 175.696 621.208 175.696V229.696ZM603.976 212.464V261.04H657.976V212.464H603.976ZM603.976 261.04C603.976 251.54 611.708 243.808 621.208 243.808V297.808C641.532 297.808 657.976 281.364 657.976 261.04H603.976ZM621.208 243.808H592.036V297.808H621.208V243.808Z" fill="white" mask="url(#path-9-outside-3)"/>
<mask id="path-11-outside-4" maskUnits="userSpaceOnUse" x="592.036" y="175.564" width="66" height="123" fill="black">
<rect fill="white" x="592.036" y="175.564" width="66" height="123"/>
<path d="M621.208 270.676C626.62 270.676 630.976 266.32 630.976 260.908V212.332C630.976 206.92 626.62 202.564 621.208 202.564H592.036"/>
</mask>
<path d="M621.208 297.676C641.532 297.676 657.976 281.232 657.976 260.908H603.976C603.976 251.408 611.708 243.676 621.208 243.676V297.676ZM657.976 260.908V212.332H603.976V260.908H657.976ZM657.976 212.332C657.976 192.008 641.532 175.564 621.208 175.564V229.564C611.708 229.564 603.976 221.832 603.976 212.332H657.976ZM621.208 175.564H592.036V229.564H621.208V175.564Z" fill="white" mask="url(#path-11-outside-4)"/>
<path d="M413.38 270.676L246.212 270.676" stroke="white" stroke-width="27" stroke-miterlimit="10" stroke-linecap="round" stroke-linejoin="round"/>
<path d="M246.212 202.3L413.38 202.3" stroke="white" stroke-width="27" stroke-miterlimit="10" stroke-linecap="square" stroke-linejoin="round"/>
</svg>
