<?xml version="1.0" encoding="utf-8"?>
<!-- Generator: Adobe Illustrator 22.0.1, SVG Export Plug-In . SVG Version: 6.00 Build 0)  -->
<svg version="1.1" id="Слой_1" xmlns="http://www.w3.org/2000/svg" xmlns:xlink="http://www.w3.org/1999/xlink" x="0px" y="0px"
	 viewBox="0 0 350 70" style="enable-background:new 0 0 350 70;" xml:space="preserve">
<style type="text/css">
	.st0{fill:#1F3E79;}
</style>
<path class="st0" d="M317.1,44.7h-5.5v-19h5.5c6.3,0,9.5,4.1,9.5,9.5c0.2,5-3.7,9.3-8.7,9.5C317.6,44.7,317.4,44.7,317.1,44.7z
	 M317.1,50.4c9.5,0,16.1-6,16.1-15.2S326.6,20,317.1,20h-12v30.4H317.1z M277.2,33.9h-6.8v-8.2h6.8c2.6,0,4.6,1.5,4.6,4.1
	S279.8,33.9,277.2,33.9L277.2,33.9z M292.8,58l-11.2-19.2c4.1-1,6.9-4.8,6.7-9c0-5.7-3.9-9.8-10.2-9.8h-14.2v30.4h6.5V39.6h4.7
	L285.4,58H292.8z M239.8,39.6h-9.5l4.7-13.1L239.8,39.6z M250.8,50.4L239.1,20H231l-11.7,30.4h7.4l1.9-5.1h13l1.9,5.1L250.8,50.4z
	 M193.4,51c5.3,0.1,10.2-2.8,12.7-7.5l-5.6-2.7c-1.4,2.7-4.1,4.4-7.1,4.4c-5.5,0-9.5-4.2-9.5-10s4-10,9.5-10c3,0.1,5.8,1.7,7.1,4.4
	l5.6-2.7c-2.5-4.7-7.4-7.6-12.7-7.4c-9.1,0-16.2,6.4-16.2,15.7S184.3,51,193.4,51L193.4,51z M161.7,50.4v-5.7H147l14.3-19.5V20
	h-22.8v5.7h14.3l-14.3,19.5v5.2H161.7z M349,17.3L349,17.3c0,3.1-2.5,5.7-5.7,5.7c-3.1,0-5.7-2.5-5.7-5.7c0-3.1,2.5-5.7,5.7-5.7
	c0,0,0,0,0,0h5.7V17.3z M108,51c9.3,0,13.7-5.1,13.7-12.7V20h-6.7v18.1c0,4.2-2.4,7.2-7.1,7.2c-4.7,0-7.2-2.9-7.2-7.2V20h-6.5v18.3
	C94.3,45.8,98.8,51,108,51z"/>
<g>
	<path class="st0" d="M57.6,51V38.3L45.7,20h7.5l7.7,12.4L68.5,20H76L64.2,38.3V51H57.6z"/>
</g>
<g>
	<path class="st0" d="M28,51V29.3L19.3,51h-2.9L7.7,29.3V51H1.1V20h9.2l7.5,18.7L25.3,20h9.3v31H28z"/>
</g>
<path class="st0" d="M84.9,64.9h-1c-0.1,0-0.3-0.1-0.3-0.2V6.1c0-0.1,0.1-0.2,0.3-0.2h1c0.1,0,0.3,0.1,0.3,0.2v58.6
	C85.2,64.8,85.1,64.9,84.9,64.9z"/>
</svg>
