<svg xmlns="http://www.w3.org/2000/svg" viewBox="0 0 30 24"><defs><style>.cls-1{fill:#fff;}</style></defs><title>icon_shop</title><g id="Слой_2" data-name="Слой 2"><g id="Back"><path class="cls-1" d="M28.25,22.37h-.08V10.56A4.24,4.24,0,0,0,30,7.08a.87.87,0,0,0-.11-.41L26.5.86A1.76,1.76,0,0,0,25,0H5A1.76,1.76,0,0,0,3.5.86L.11,6.67A.87.87,0,0,0,0,7.08a4.24,4.24,0,0,0,1.83,3.48V22.37H1.75a.83.83,0,0,0-.84.81.83.83,0,0,0,.84.82h26.5a.83.83,0,0,0,.84-.82A.83.83,0,0,0,28.25,22.37ZM5,1.67l-.35-.2L5,1.63l20,0,2.68,4.59H2.27ZM21.12,7.89a2.73,2.73,0,0,1-5.16,0ZM14,7.89a2.73,2.73,0,0,1-5.16,0ZM1.8,7.89H7a2.72,2.72,0,0,1-5.15,0ZM22.6,22.37H18.78V13.26H22.6Zm3.91,0H24.27V12.45a.83.83,0,0,0-.84-.82H18a.83.83,0,0,0-.83.82v9.92H3.49V11.27A4.47,4.47,0,0,0,7.92,9.59a4.42,4.42,0,0,0,7.08,0,4.42,4.42,0,0,0,7.08,0,4.47,4.47,0,0,0,4.43,1.68ZM25.63,9.73a2.7,2.7,0,0,1-2.58-1.84H28.2A2.7,2.7,0,0,1,25.63,9.73Z"/></g></g></svg>