<svg xmlns="http://www.w3.org/2000/svg" viewBox="0 0 44 44"><defs><style>.cls-1{fill:#00a193;}.cls-2{fill:#fff;}</style></defs><title>icon_show_circle_green</title><g id="Слой_2" data-name="Слой 2"><g id="Menu"><circle class="cls-1" cx="22" cy="22" r="22"/><path class="cls-2" d="M34.42,31.79h-.08V20a4.25,4.25,0,0,0,1.79-3.47.84.84,0,0,0-.11-.41l-3.31-5.8a1.73,1.73,0,0,0-1.49-.86H11.71a1.72,1.72,0,0,0-1.49.86L6.9,16.11a.8.8,0,0,0-.1.41A4.27,4.27,0,0,0,8.58,20v11.8H8.51a.82.82,0,0,0-.82.81.82.82,0,0,0,.82.82H34.42a.82.82,0,0,0,.82-.82A.82.82,0,0,0,34.42,31.79Zm-5.53-9.1v9.1H25.16v-9.1ZM11.29,10.92l.42.15,19.58,0,2.62,4.59H9l2.62-4.59-.35-.19Zm23.08,6.41a2.65,2.65,0,0,1-5,0Zm-4.66,3.73H24.35a.82.82,0,0,0-.82.82v9.91H10.21V20.71A4.35,4.35,0,0,0,14.54,19a4.28,4.28,0,0,0,6.92,0,4.29,4.29,0,0,0,6.93,0,4.34,4.34,0,0,0,4.32,1.68V31.79H30.52V21.88A.82.82,0,0,0,29.71,21.06ZM18,19.16a2.66,2.66,0,0,1-2.52-1.83h5A2.66,2.66,0,0,1,18,19.16Zm6.93,0a2.66,2.66,0,0,1-2.52-1.83h5A2.66,2.66,0,0,1,24.93,19.16Zm-13.85,0a2.67,2.67,0,0,1-2.53-1.83h5A2.65,2.65,0,0,1,11.08,19.16Z"/></g></g></svg>