<svg xmlns="http://www.w3.org/2000/svg" viewBox="0 0 142.64 142.64"><defs><style>.cls-1{fill:#e6e6e6;}</style></defs><title>icon_user_grey_circle</title><g id="Слой_2" data-name="Слой 2"><g id="Work"><path class="cls-1" d="M30.41,100A57.83,57.83,0,0,1,48.7,87.6a34.29,34.29,0,1,1,45.22,0,57.84,57.84,0,0,1,30.79,30.93,71.32,71.32,0,1,0-106.78,0A57.67,57.67,0,0,1,30.41,100Zm-2,28.28a71.19,71.19,0,0,0,85.83,0,44.73,44.73,0,0,0-85.83,0ZM92.49,61.86A21.17,21.17,0,1,0,71.32,83,21.2,21.2,0,0,0,92.49,61.86Z"/></g></g></svg>