<svg xmlns="http://www.w3.org/2000/svg" viewBox="0 0 18 14.14"><defs><style>.cls-1{fill:#00a193;}</style></defs><title>icon_mail_green</title><g id="Слой_2" data-name="Слой 2"><g id="Work"><path class="cls-1" d="M1.73,4.36,3.79,5.79,6.42,7.62l.43.31c.21.16.39.28.54.38s.32.21.52.33a3,3,0,0,0,.58.27A1.61,1.61,0,0,0,9,9H9a1.61,1.61,0,0,0,.5-.09,3,3,0,0,0,.58-.27c.2-.12.38-.23.52-.33s.33-.22.54-.38l.43-.31c.62-.42,2.18-1.51,4.7-3.26a4.68,4.68,0,0,0,1.23-1.24A2.61,2.61,0,0,0,18,1.61,1.56,1.56,0,0,0,17.52.47,1.56,1.56,0,0,0,16.39,0H1.61A1.41,1.41,0,0,0,.42.52,2,2,0,0,0,0,1.83,2.33,2.33,0,0,0,.55,3.2,5,5,0,0,0,1.73,4.36Z"/><path class="cls-1" d="M17,5.43Q13.7,7.67,12,8.9q-.57.42-.93.66a5.76,5.76,0,0,1-.94.48A3,3,0,0,1,9,10.29H9A2.94,2.94,0,0,1,7.89,10a5.52,5.52,0,0,1-.95-.48Q6.58,9.32,6,8.9C5.1,8.24,3.44,7.08,1,5.43a5,5,0,0,1-1-.87v8a1.55,1.55,0,0,0,.47,1.13,1.55,1.55,0,0,0,1.14.47H16.39A1.6,1.6,0,0,0,18,12.54v-8A5.63,5.63,0,0,1,17,5.43Z"/></g></g></svg>