<svg xmlns="http://www.w3.org/2000/svg" viewBox="0 0 24 16"><defs><style>.cls-1{fill:#999;}</style></defs><title>icon_card_grey</title><g id="Слой_2" data-name="Слой 2"><g id="Work"><path class="cls-1" d="M0,6.54v6.22A3.24,3.24,0,0,0,3.24,16H20.76A3.24,3.24,0,0,0,24,12.76V6.54A.56.56,0,0,0,23.44,6H.56A.56.56,0,0,0,0,6.54Zm6,4H4.49a1,1,0,1,1,0-2H6a1,1,0,1,1,0,2Z"/><path class="cls-1" d="M24,3.44v-.2A3.24,3.24,0,0,0,20.76,0H3.24A3.24,3.24,0,0,0,0,3.24v.2A.56.56,0,0,0,.56,4H23.44A.56.56,0,0,0,24,3.44Z"/></g></g></svg>