<svg xmlns="http://www.w3.org/2000/svg" viewBox="0 0 56.44 14"><defs><style>.cls-1{opacity:0.2;}</style></defs><title>icon_humo_grey</title><g id="Слой_2" data-name="Слой 2"><g id="Main"><g class="cls-1"><path d="M51.87,0H48.31c-3.91,1.66-5.15,3.59-4.73,7.35a5.9,5.9,0,0,0,5.3,5.56,6.27,6.27,0,0,0,7-4.13C57.31,4.86,56,2,51.87,0Zm1.45,6.3a8.27,8.27,0,0,1-.81,3.2,2.81,2.81,0,0,1-5.15.09,17.1,17.1,0,0,1-1-3.27c.23-2.83,1.49-4.54,3.55-4.56S53.46,3.6,53.32,6.3Z"/><path d="M2.27,3.19C0,6.15,1.26,9,2.49,12A13.86,13.86,0,0,1,1,9.24c-.21-.5-.3-1-.95-.48v2a18.6,18.6,0,0,0,1.3,1.73,4,4,0,0,0,4.86,1C2,11.11,2,7.23,2.27,3.19Z"/><path d="M41.79,2.26c0-.81.09-1.78-1.08-1.93S38.58.15,38,1.47c-.68,1.59-1.52,3.1-2.43,4.92-1-1.94-1.89-3.6-2.73-5.28C32.29,0,31.26.23,30.39.36a1.46,1.46,0,0,0-1,1c-.18,3.4-.27,6.8-.3,10.2,0,.34.66,1,1,1a2.15,2.15,0,0,0,1.25-.9c.19-.27.06-.76.06-1.15V4.8a25.23,25.23,0,0,1,2.4,3.51c.37.57,1,1.33,1.49,1.34s1.12-.76,1.46-1.33c.79-1.29,1.45-2.67,2.15-4l.41.09c0,2.18,0,4.36,0,6.54,0,1,.18,1.71,1.46,1.68s1.39-.81,1.35-1.76C42,8,41.9,5.13,41.79,2.26Z"/><path d="M25.3.28C24.24.31,24,.87,24,1.78c0,1.94,0,3.89,0,5.83s-.91,2.94-2.5,3-2.5-.94-2.52-2.9,0-4,0-6c0-.94-.46-1.4-1.47-1.4S16,.65,16,1.64,16,3.88,16,5H16c0,1.17-.07,2.34,0,3.5a4.43,4.43,0,0,0,4.71,4.4c.49,0,1,0,1.48,0,2.54-.06,4.27-1.43,4.51-3.92s.16-4.84.19-7.27C26.92.67,26.35.25,25.3.28Z"/><path d="M10.58.81V4.89H5.29c.2-1.51.38-2.87.57-4.24C3.44.78,2.83,4,3,6.66c.19,3.24,1.6,5.67,3.33,6C6,10.84,5.59,9,5.19,7H10a6.36,6.36,0,0,1,.69.08c0,1.45,0,2.84,0,4.24A1.08,1.08,0,0,0,12,12.56c.74,0,1.64.1,1.65-1,0-3.2.1-6.41-.07-9.61A1.73,1.73,0,0,0,10.58.81Z"/></g></g></g></svg>