<svg xmlns="http://www.w3.org/2000/svg" viewBox="0 0 60 60"><defs><style>.cls-1{fill:none;}.cls-2{fill:#fff;}</style></defs><title>icon_user_circle</title><g id="Слой_2" data-name="Слой 2"><g id="Work"><g id="Group_1178" data-name="Group 1178"><g id="Ellipse_183" data-name="Ellipse 183"><circle class="cls-1" cx="30" cy="30" r="30"/><path class="cls-2" d="M30,60A30,30,0,1,1,60,30,30.08,30.08,0,0,1,30,60ZM30,2A28,28,0,1,0,58,30,28,28,0,0,0,30,2Z"/></g><g id="Group_1054" data-name="Group 1054"><path id="user-follow" class="cls-2" d="M33.92,31.71a10,10,0,0,1-8.29,0l-8.28,3.78a3.08,3.08,0,0,0-1.77,2.8v1.42a3,3,0,0,0,3,3H28.78a1,1,0,0,1,0,2.06H18.61a5.1,5.1,0,0,1-5.09-5.09h0V38.29a5.07,5.07,0,0,1,3-4.63l7-3.2a10.14,10.14,0,1,1,14.23-1.77A12.63,12.63,0,0,1,36,30.4l5.26,2.23a1,1,0,1,1-.8,1.83Zm-4.11-1.2a8.11,8.11,0,1,0-8.12-8.11,8.14,8.14,0,0,0,8.12,8.11Z"/><g id="Group_1053" data-name="Group 1053"><path class="cls-2" d="M45.51,38.69H33.62a.84.84,0,0,1-.85-.85.81.81,0,0,1,.85-.86H45.51a.86.86,0,1,1,0,1.71Z"/><path class="cls-2" d="M45.17,44.52H33.28a.84.84,0,0,1-.86-.85.81.81,0,0,1,.86-.86H45.17a.86.86,0,0,1,0,1.71Z"/><path class="cls-2" d="M36.08,41.49a.72.72,0,0,1-.57-.22l-2.8-2.8a.77.77,0,0,1-.23-.58.87.87,0,0,1,.23-.57l2.8-2.85a.83.83,0,0,1,1.2,1.14l-2.29,2.23,2.29,2.23a.83.83,0,0,1,0,1.2A.86.86,0,0,1,36.08,41.49Z"/><path class="cls-2" d="M42.71,47.32a.7.7,0,0,1-.57-.23.82.82,0,0,1,0-1.2l2.23-2.22-2.23-2.23a.85.85,0,0,1,1.2-1.2l2.8,2.8a.83.83,0,0,1,0,1.2L43.34,47A.87.87,0,0,1,42.71,47.32Z"/></g></g></g></g></g></svg>