<svg xmlns="http://www.w3.org/2000/svg" width="21" height="34.34" viewBox="0 0 21 34.34"><g id="a9630c28-09df-4d30-bd7c-1eb543cad8a8" data-name="Слой 2"><g id="efb1b39a-2353-4392-8344-dfc349ba966e" data-name="Work"><rect x="4.77" y="5.13" width="6" height="2" style="fill:#ccc"/><rect x="4.77" y="9.13" width="8" height="2" style="fill:#ccc"/><path d="M14,27.34a6,6,0,0,1-4-1.54v8.54l4-2.84,4,2.84V25.8A6,6,0,0,1,14,27.34Z" style="fill:#ccc"/><path d="M8,22H2V2H16V15.69a5.87,5.87,0,0,1,2,1.19V0H0V24H8.63A5.94,5.94,0,0,1,8,22Z" style="fill:#ccc"/><path d="M14,28.34a7,7,0,1,1,7-7A7,7,0,0,1,14,28.34Zm0-12a5,5,0,1,0,5,5A5,5,0,0,0,14,16.34Z" style="fill:#ccc"/><circle cx="14" cy="21.34" r="3" style="fill:#ccc"/></g></g></svg>