<svg xmlns="http://www.w3.org/2000/svg" viewBox="0 0 24 24"><defs><style>.cls-1{fill:#fff;}</style></defs><title>icon_phone_white_circle</title><g id="Слой_2" data-name="Слой 2"><g id="Menu"><path class="cls-1" d="M12,0A12,12,0,1,0,24,12,12,12,0,0,0,12,0Zm6.34,17.51-1,1a1.9,1.9,0,0,1-.69.28A11.34,11.34,0,0,1,5.25,7.29a1.75,1.75,0,0,1,.28-.66l1-1A1.59,1.59,0,0,1,8,5.31l.2.07a1.89,1.89,0,0,1,1.1,1.16l.48,1.77a1.71,1.71,0,0,1-.39,1.52l-.64.64a6.81,6.81,0,0,0,4.79,4.8l.64-.64a1.72,1.72,0,0,1,1.52-.4l1.77.48a1.91,1.91,0,0,1,1.16,1.1l.07.2A1.61,1.61,0,0,1,18.34,17.51Z"/></g></g></svg>