<svg xmlns="http://www.w3.org/2000/svg" viewBox="0 0 30.79 44"><defs><style>.cls-1{fill:#fff;}</style></defs><title>Ресурс 1</title><g id="Слой_2" data-name="Слой 2"><g id="Work"><path class="cls-1" d="M0,.45C.1.43.28.44.3.4.51-.16,1,0,1.36,0H10c.85,1.36.53,2.77.54,4.13,0,5.73,0,11.46.08,17.19,0,.41-.12.88.35,1.18.08,0,.07.26.08.4a2,2,0,0,0,.76,1.33,11.15,11.15,0,0,1,1,1.14s.07.09.11.09a14.93,14.93,0,0,0,2.07.43,2,2,0,0,0,1.57-.28c.33-.25.9-.21,1.26-.58.2-.22.48-.39.66-.62a14.56,14.56,0,0,0,.8-1.24s0,0,0-.05a15.33,15.33,0,0,0,.49-2.29c.09-1.37,0-2.74,0-4.11,0-.28,0-.56,0-.89h9.52a.83.83,0,0,1,.89.88,7.78,7.78,0,0,1,0,2.05c-.4,1.52-.18,3.07-.39,4.58a5.8,5.8,0,0,1-.45,1.93c-.25.45-.18,1.1-.44,1.29-.47.35-.11,1.05-.71,1.24,0,0,0,.19-.06.29s0,.49-.31.5c0,0-.11.13-.11.2-.05.51-.45.77-.75,1.1s-.66.76-1,1.12-.51.43-.76.65-.31.29-.48.42c-.33.27-.67.52-1,.78l-.09,0a5.13,5.13,0,0,0-1.45.55c-.45.35-1.06.17-1.36.44-.63.55-1.32.25-2,.4a3.36,3.36,0,0,0-.43.2,1.54,1.54,0,0,1-.47.16q-3.06,0-6.12,0c-.08,0-.22,0-.25,0-.42-.55-1-.29-1.54-.39a1.33,1.33,0,0,1-.41-.21c-.06,0-.1-.11-.16-.13-.61-.17-1.24-.32-1.85-.51a3.52,3.52,0,0,1-.57-.31A.8.8,0,0,0,6.8,33a2.06,2.06,0,0,1-1.11-.73c-.08-.08-.22-.09-.31-.16-.32-.25-.63-.51-.94-.77a3.78,3.78,0,0,0-.5-.48c-.66-.41-.81-1.26-1.35-1.66s-.17-1-.75-1.06c0,0,0-.24-.05-.35a4,4,0,0,0-.28-.5s-.1-.06-.11-.1c-.18-.59-.32-1.18-.53-1.76a11,11,0,0,1-.5-2.73A4.47,4.47,0,0,0,0,21.64Z"/><path class="cls-1" d="M23.73,44c-.08-.2-.15-.4-.24-.6s-.1-.18-.15-.27a4.5,4.5,0,0,0-.49-.89c-.16-.18-.42-.13-.52.18a6.66,6.66,0,0,1-.31.85c0,.09-.17.14-.25.21-.07-.09-.18-.17-.19-.27,0-.4,0-.8,0-1.2,0-.79,0-1.58,0-2.41.78,0,1.51-.05,2.23,0,.55,0,.93,1.27.58,1.69-.16.19-.29.39-.44.58h-.23a5.18,5.18,0,0,1,.39.73c.17.47.81.76.51,1.39Zm-1-3.64c-.28-.06-.45.12-.45.53s.21.46.56.47a.51.51,0,0,0,.55-.4,1.78,1.78,0,0,1,.27-.36c-.15-.06-.29-.14-.45-.19A2.24,2.24,0,0,0,22.77,40.36Z"/><path class="cls-1" d="M0,39.57H.9c0,.75,0,1.46,0,2.18A.84.84,0,0,0,2,42.62a.91.91,0,0,0,.63-.8c0-.74,0-1.47,0-2.22h.83c0,.95,0,1.88,0,2.8,0,.2-.23.41-.38.59a2.21,2.21,0,0,1-1.94.45,4.52,4.52,0,0,1-.7-.56A3.83,3.83,0,0,0,0,42.63Z"/><path class="cls-1" d="M30.79,40.1,29.93,40c-.21-1.06-.09-1.23.86-1.26Z"/><path class="cls-1" d="M29.7,7.92c.72.76.51,1.59.52,2.37s0,1.76,0,2.63S30,14.05,29.1,14.05H19.85c0-.28,0-.5,0-.72V1.11c0-.76.33-1.08,1.07-1.08h1A.48.48,0,0,1,22,.14a13,13,0,0,0,.55,2.66c.16.38.15,1,.66,1.21.05,0,.08.11.09.17,0,.56.41.84.81,1.13.17.12.29.32.46.46A11.33,11.33,0,0,0,26,7a7.22,7.22,0,0,0,1.35.5c.14.06.27.17.4.24a1.07,1.07,0,0,0,.41.15C28.69,7.93,29.24,7.92,29.7,7.92Z"/><path class="cls-1" d="M27,5.27c-.32-.3-.59-.53-.84-.79s-.46-.5-.68-.76-.29-.5-.51-.59c-.38-.15-.29-.46-.38-.72A4,4,0,0,1,24.18.5a3.22,3.22,0,0,0,0-.44h5.54c.74.76.48,1.68.5,2.54a23.07,23.07,0,0,1,0,2.63c-.05.68-.48,1.19-.93.85S28,6,27.56,5.39C27.48,5.26,27.13,5.3,27,5.27Z"/><path class="cls-1" d="M26.51,41.33c0-.42,0-.84,0-1.26s.15-.49.47-.49c.59,0,1.19,0,1.78,0,.08,0,.21,0,.23.08.21.46,1.05.37.95,1.11,0,.2.21.43.18.63a2.27,2.27,0,0,1-.36,1.2,3,3,0,0,1-2.31.89.89.89,0,0,1-.93-.91C26.5,42.17,26.51,41.75,26.51,41.33Zm.79,1.33a5.18,5.18,0,0,0,1.52-.12,1.14,1.14,0,0,0,.54-.9,3.92,3.92,0,0,0-.45-1.24c-.4,0-.84,0-1.27,0a.53.53,0,0,0-.33.34C27.28,41.35,27.3,41.94,27.3,42.66Z"/><path class="cls-1" d="M19.45,43.39c-.84.25-1-.14-1-.68H16.89a7.44,7.44,0,0,1-.59.67c-.08.08-.28,0-.42,0,0-.41.07-.82.13-1.22,0-.08.18-.12.2-.19.18-.58.36-1.16.51-1.75s.52-.7,1.27-.67c.29.59.63,1.19.87,1.82S19.25,42.72,19.45,43.39ZM18,41.81c.11-.83,0-1-.75-.85v.85Z"/><path class="cls-1" d="M5.67,39.6H8.39c0,.37.19.75-.28,1-.08,0-.12.17-.15.27-.11.44-.46.66-.75,1a2.46,2.46,0,0,0-.26.83h.77c.77,0,.77,0,.59.8H5.84a1.31,1.31,0,0,1,.56-1.72.5.5,0,0,0,.19-.22c.07-.26.06-.55.41-.64.06,0,0-.28.07-.42a7.82,7.82,0,0,1-1.19-.24C5.76,40.17,5.75,39.85,5.67,39.6Z"/><path class="cls-1" d="M11.5,40.47a6.47,6.47,0,0,0-.14,1c0,1,.85,1.37,1.68,1.14,0,0,.11-.06.11-.09,0-.28.18-.37.42-.28.08,0,.16.2.14.28s0,.41-.28.59a2.07,2.07,0,0,1-1.24.39c-.54,0-.83-.4-1.21-.69-.81-.63-.37-1.45-.39-2.19,0-.18.26-.41.44-.55.37-.29.72-.65,1.28-.51a1.62,1.62,0,0,0,.62,0c.61-.15.66.51.9.58l-.53.45C12.9,40.14,12.21,40.42,11.5,40.47Z"/></g></g></svg>