<svg xmlns="http://www.w3.org/2000/svg" viewBox="0 0 18 18"><defs><style>.cls-1{fill:#fff;}</style></defs><title>icon_shop_circle_white</title><g id="Слой_2" data-name="Слой 2"><g id="Work"><rect class="cls-1" x="10.29" y="9.28" width="1.53" height="3.72"/><path class="cls-1" d="M7.36,7.84a1.08,1.08,0,0,0,1-.75H6.33A1.1,1.1,0,0,0,7.36,7.84Z"/><path class="cls-1" d="M5.56,7.09H3.5a1.08,1.08,0,0,0,2.06,0Z"/><path class="cls-1" d="M10.2,7.84a1.09,1.09,0,0,0,1-.75H9.17A1.08,1.08,0,0,0,10.2,7.84Z"/><polygon class="cls-1" points="12.8 4.55 4.79 4.53 4.62 4.47 4.76 4.55 3.69 6.42 13.87 6.42 12.8 4.55"/><path class="cls-1" d="M9,0a9,9,0,1,0,9,9A9,9,0,0,0,9,0Zm5.08,13a.34.34,0,1,1,0,.67H3.48a.34.34,0,0,1,0-.67h0V8.18a1.75,1.75,0,0,1-.73-1.42.47.47,0,0,1,0-.17L4.18,4.22a.71.71,0,0,1,.61-.36h8a.7.7,0,0,1,.61.36l1.36,2.37a.33.33,0,0,1,0,.17,1.75,1.75,0,0,1-.73,1.42V13Z"/><path class="cls-1" d="M11.61,7.78a1.7,1.7,0,0,1-1.41.73,1.74,1.74,0,0,1-1.42-.73,1.74,1.74,0,0,1-1.42.73A1.72,1.72,0,0,1,6,7.78a1.76,1.76,0,0,1-1.77.69V13H9.63V9A.33.33,0,0,1,10,8.62h2.19a.34.34,0,0,1,.34.33V13h.89V8.47A1.77,1.77,0,0,1,11.61,7.78Z"/><path class="cls-1" d="M12,7.09a1.08,1.08,0,0,0,2.06,0Z"/></g></g></svg>