<svg width="20" height="20" viewBox="0 0 20 20" fill="none" xmlns="http://www.w3.org/2000/svg">
    <path
        d="M18.8619 19.806C19.1223 20.0664 19.5444 20.0664 19.8048 19.806C20.0651 19.5457 20.0651 19.1236 19.8048 18.8632L18.8619 19.806ZM17.0667 9.20133C17.0667 13.546 13.5447 17.068 9.20005 17.068V18.4014C14.2811 18.4014 18.4001 14.2824 18.4001 9.20133H17.0667ZM9.20005 17.068C4.85539 17.068 1.33335 13.546 1.33335 9.20133H2.03252e-05C2.03252e-05 14.2824 4.11901 18.4014 9.20005 18.4014V17.068ZM1.33335 9.20133C1.33335 4.85667 4.85539 1.33464 9.20005 1.33464V0.00130206C4.11901 0.00130206 2.03252e-05 4.12029 2.03252e-05 9.20133H1.33335ZM9.20005 1.33464C13.5447 1.33464 17.0667 4.85667 17.0667 9.20133H18.4001C18.4001 4.12029 14.2811 0.00130206 9.20005 0.00130206V1.33464ZM14.8619 15.806L18.8619 19.806L19.8048 18.8632L15.8048 14.8632L14.8619 15.806Z"
        fill="#FFF"/>
</svg>
