<svg xmlns="http://www.w3.org/2000/svg" viewBox="0 0 18 14.71"><defs><style>.cls-1{fill:#00a193;}</style></defs><title>icon_shop</title><g id="Слой_2" data-name="Слой 2"><g id="Menu"><path class="cls-1" d="M17,13.71H16.9V6.47A2.61,2.61,0,0,0,18,4.34a.45.45,0,0,0-.07-.25L15.9.53A1.05,1.05,0,0,0,15,0H3A1.05,1.05,0,0,0,2.1.53l-2,3.56A.45.45,0,0,0,0,4.34,2.61,2.61,0,0,0,1.1,6.47v7.24H1.05a.5.5,0,0,0,0,1H17a.5.5,0,0,0,0-1ZM13.56,8.13v5.58H11.27V8.13ZM2.76.9,3,1,15,1l1.61,2.82H1.36L3,1,2.76.9ZM16.92,4.84a1.63,1.63,0,0,1-3.09,0ZM14.06,7.13H10.77a.5.5,0,0,0-.5.5v6.08H2.1V6.91a2.64,2.64,0,0,0,2.65-1A2.63,2.63,0,0,0,9,5.88a2.63,2.63,0,0,0,4.25,0,2.64,2.64,0,0,0,2.65,1v6.8H14.56V7.63A.5.5,0,0,0,14.06,7.13ZM6.87,6A1.62,1.62,0,0,1,5.33,4.84H8.42A1.62,1.62,0,0,1,6.87,6Zm4.26,0A1.62,1.62,0,0,1,9.58,4.84h3.09A1.62,1.62,0,0,1,11.13,6ZM2.62,6A1.62,1.62,0,0,1,1.08,4.84H4.17A1.62,1.62,0,0,1,2.62,6Z"/></g></g></svg>