<svg xmlns="http://www.w3.org/2000/svg" viewBox="0 0 13.98 16"><defs><style>.cls-1{opacity:0.2;}</style></defs><title>icon_uzcard_grey</title><g id="Слой_2" data-name="Слой 2"><g id="Main"><g class="cls-1"><path d="M0,.21C.05.2.13.2.14.18.24-.08.46,0,.63,0h4a3.35,3.35,0,0,1,.25,1.91c0,2.64,0,5.28,0,7.92,0,.19,0,.41.17.55,0,0,0,.12,0,.18a1,1,0,0,0,.35.62,5.91,5.91,0,0,1,.48.52l0,0a6.15,6.15,0,0,0,1,.19,1,1,0,0,0,.73-.13c.15-.11.41-.1.58-.27a4,4,0,0,0,.3-.28c.14-.18.25-.38.37-.57v0a7,7,0,0,0,.23-1.06c0-.63,0-1.27,0-1.9,0-.13,0-.25,0-.41h4.38a.38.38,0,0,1,.41.41,3.77,3.77,0,0,1,0,1,16.54,16.54,0,0,0-.19,2.11,2.63,2.63,0,0,1-.2.89c-.12.2-.09.5-.21.59s-.05.49-.32.57c0,0,0,.09,0,.14s0,.22-.14.23,0,.06-.06.09c0,.24-.2.35-.34.5s-.31.36-.47.52-.23.2-.35.3-.14.14-.22.2l-.47.36,0,0a2.33,2.33,0,0,0-.67.25c-.2.16-.49.08-.62.2-.29.26-.61.12-.91.19a1.76,1.76,0,0,0-.2.09.58.58,0,0,1-.22.08H5.47s-.11,0-.12,0c-.19-.26-.47-.14-.71-.18a.69.69,0,0,1-.19-.1s0-.05-.07-.06l-.86-.23a1.74,1.74,0,0,1-.26-.15.29.29,0,0,0-.13,0,1,1,0,0,1-.51-.34s-.1,0-.14-.07l-.43-.36a1.58,1.58,0,0,0-.23-.22c-.31-.19-.38-.58-.63-.77S1.11,13,.85,13c0,0,0-.11,0-.16a2.53,2.53,0,0,0-.12-.23s0,0-.06,0C.56,12.27.5,12,.4,11.73a4.91,4.91,0,0,1-.23-1.26A1.78,1.78,0,0,0,0,10Z"/><path d="M13.7,3.65c.33.35.23.73.24,1.1V6c0,.41-.11.52-.52.52H9.16c0-.13,0-.23,0-.33V.51c0-.35.16-.5.5-.5h.47s0,0,0,.06a6.94,6.94,0,0,0,.25,1.22c.08.18.07.45.31.56a.1.1,0,0,1,0,.08c0,.25.19.38.37.52s.14.15.21.21a6,6,0,0,0,.66.58,3.9,3.9,0,0,0,.63.23.87.87,0,0,1,.18.11.49.49,0,0,0,.19.07C13.23,3.66,13.48,3.65,13.7,3.65Z"/><path d="M12.45,2.43l-.38-.36c-.11-.12-.21-.24-.32-.35s-.13-.24-.23-.28-.13-.21-.17-.33a1.78,1.78,0,0,1-.2-.88,1.33,1.33,0,0,0,0-.2H13.7c.35.35.23.77.24,1.17s0,.81,0,1.21-.22.55-.43.4-.6,0-.79-.33C12.67,2.43,12.51,2.44,12.45,2.43Z"/></g></g></g></svg>