<svg xmlns="http://www.w3.org/2000/svg" viewBox="0 0 52 34.67"><defs><style>.cls-1{fill:#fff;}</style></defs><title>icon_card_white</title><g id="Слой_2" data-name="Слой 2"><g id="Work"><path class="cls-1" d="M52,7.58h0V5.42A5.42,5.42,0,0,0,46.58,0H5.42A5.42,5.42,0,0,0,0,5.42V29.25a5.42,5.42,0,0,0,5.42,5.42H46.58A5.42,5.42,0,0,0,52,29.25V14.09h0ZM2.17,8.67H49.83V13H2.17Zm3.25-6.5H46.58a3.24,3.24,0,0,1,3.25,3.25V6.5H2.17V5.42A3.24,3.24,0,0,1,5.42,2.17ZM46.58,32.5H5.42a3.25,3.25,0,0,1-3.25-3.25V15.17H49.83V29.25h0A3.25,3.25,0,0,1,46.58,32.5Z"/><path class="cls-1" d="M20.58,21.67h-13a1.08,1.08,0,0,0,0,2.16h13a1.08,1.08,0,1,0,0-2.16Z"/><path class="cls-1" d="M20.58,26h-13a1.09,1.09,0,0,0,0,2.17h13a1.09,1.09,0,1,0,0-2.17Z"/><path class="cls-1" d="M42.25,19.5H40.08a3.26,3.26,0,0,0-3.25,3.25v2.17a3.26,3.26,0,0,0,3.25,3.25h2.17a3.26,3.26,0,0,0,3.25-3.25V22.75A3.26,3.26,0,0,0,42.25,19.5Zm1.08,5.42A1.08,1.08,0,0,1,42.25,26H40.08A1.09,1.09,0,0,1,39,24.92V22.75a1.08,1.08,0,0,1,1.08-1.08h2.17a1.08,1.08,0,0,1,1.08,1.08Z"/></g></g></svg>