<svg xmlns="http://www.w3.org/2000/svg" viewBox="0 0 53.21 53.21"><defs><style>.cls-1{fill:#fff;}</style></defs><title>icon_zcoin_white</title><g id="Слой_2" data-name="Слой 2"><g id="Work"><path class="cls-1" d="M43.15,14.7l-11.28,17h8.91l-5,8.1H19.71l6.55-10.11L36.85,13.37h5.26a20.38,20.38,0,0,0-32,25.14l11.28-17H12.42l5-8.1H33.49L27,23.48,16.36,39.84H11.1A20.38,20.38,0,0,0,43.15,14.7Z"/><path class="cls-1" d="M26.6,0A26.61,26.61,0,1,0,53.21,26.6,26.6,26.6,0,0,0,26.6,0Zm0,49.23A22.63,22.63,0,1,1,49.23,26.6,22.65,22.65,0,0,1,26.6,49.23Z"/></g></g></svg>