<svg xmlns="http://www.w3.org/2000/svg" viewBox="0 0 30 30"><defs><style>.cls-1{fill:#fff;}</style></defs><title>icon_socia_ok</title><g id="Слой_2" data-name="Слой 2"><g id="Menu"><path class="cls-1" d="M15,12.43a2.59,2.59,0,0,0,0-5.17,2.59,2.59,0,1,0,0,5.17Z"/><path class="cls-1" d="M15,0A15,15,0,1,0,30,15,15,15,0,0,0,15,0Zm0,4.56a5.29,5.29,0,1,1-5.3,5.27A5.28,5.28,0,0,1,15,4.56Zm5.92,12.65a6.3,6.3,0,0,1-2.29,1.47,10.72,10.72,0,0,1-2.59.59l.28.3c1.2,1.21,2.41,2.41,3.6,3.62a1.18,1.18,0,0,1,.27,1.4,1.42,1.42,0,0,1-1.33.84A1.37,1.37,0,0,1,18,25c-.91-.92-1.83-1.81-2.72-2.74-.26-.27-.38-.22-.61,0-.91.94-1.84,1.87-2.77,2.79a1.18,1.18,0,0,1-1.41.25A1.44,1.44,0,0,1,9.7,24a1.36,1.36,0,0,1,.44-.88c1.19-1.18,2.38-2.38,3.57-3.57l.26-.28a8,8,0,0,1-4.32-1.55,4.14,4.14,0,0,1-.46-.37,1.3,1.3,0,0,1,1.47-2.12,3.48,3.48,0,0,1,.36.22,7.09,7.09,0,0,0,7.86.07,2.18,2.18,0,0,1,.77-.4,1.2,1.2,0,0,1,1.37.55A1.18,1.18,0,0,1,20.94,17.21Z"/></g></g></svg>