<svg xmlns="http://www.w3.org/2000/svg" width="21.12" height="18.5" viewBox="0 0 21.12 18.5"><g id="b2532087-e0cf-4aa2-bbde-e94de8708518" data-name="Слой 2"><g id="a6e123d4-8693-4a83-ab54-3918b5ed3b29" data-name="Work"><path d="M20.35,15l-7.51-5.5a1.31,1.31,0,0,0-.41-1.61l-.55-.4c.19-.4.38-.81.55-1.22a1.25,1.25,0,0,0,1-.5l.17-.23a1.56,1.56,0,0,0,.27-1.13,1.46,1.46,0,0,0-.6-1L9,.29A1.52,1.52,0,0,0,7.83,0a1.44,1.44,0,0,0-1,.6L6.68.85a1.23,1.23,0,0,0-.2,1A18.19,18.19,0,0,0,1.41,8.83l-.15,0a1.25,1.25,0,0,0-.8.48l-.17.24h0a1.52,1.52,0,0,0,.33,2.11L4.88,14.8A1.49,1.49,0,0,0,6,15.08a1.56,1.56,0,0,0,1-.6l.17-.24a1.22,1.22,0,0,0,.19-1.06c.34-.28.67-.58,1-.89l.57.41a1.29,1.29,0,0,0,1,.24,1.25,1.25,0,0,0,.68-.33l7.51,5.5a2,2,0,0,0,1.19.39,1.82,1.82,0,0,0,1.55-.85A2,2,0,0,0,20.35,15Zm-8.2-4.52,1.48,1.08a.39.39,0,0,0,.1.08L19.64,16A.81.81,0,0,1,19.77,17a.58.58,0,0,1-.37.25.83.83,0,0,1-.63-.14l-7.49-5.49Zm-.39-1.55a.08.08,0,0,1,0,.08l-2,2.71a.05.05,0,0,1-.06,0,.11.11,0,0,1-.08,0l-.44-.33a17.71,17.71,0,0,0,2.12-2.87l.43.31A.1.1,0,0,1,11.76,8.92Zm-9.25.4A17,17,0,0,1,7.27,2.81l4.06,3a17,17,0,0,1-4.77,6.5ZM8.25,1.26l4.26,3.12a.32.32,0,0,1,.07.44l-.18.25L7.65,1.56l.16-.23a.34.34,0,0,1,.26-.13A.32.32,0,0,1,8.25,1.26ZM6.19,13.53,6,13.77a.3.3,0,0,1-.43.06L1.33,10.71a.31.31,0,0,1-.07-.43l.2-.24Z" style="fill:#ff4646"/></g></g></svg>