<svg width="24" height="24" viewBox="0 0 24 24" fill="none" xmlns="http://www.w3.org/2000/svg">
<path d="M9.33411 21.832C9.61025 21.832 9.83411 21.6082 9.83411 21.332C9.83411 21.0559 9.61025 20.832 9.33411 20.832V21.832ZM6.28711 21.332V21.832V21.332ZM3.28711 18.332H2.78711H3.28711ZM3.28711 5.66602H3.78711H3.28711ZM6.28711 2.66602V3.16602V2.66602ZM9.33411 3.16602C9.61025 3.16602 9.83411 2.94216 9.83411 2.66602C9.83411 2.38987 9.61025 2.16602 9.33411 2.16602V3.16602ZM15.9647 5.96746C15.7694 5.7722 15.4528 5.7722 15.2576 5.96746C15.0623 6.16272 15.0623 6.47931 15.2576 6.67457L15.9647 5.96746ZM21.3241 12.034L21.6777 12.3876C21.7714 12.2938 21.8241 12.1666 21.8241 12.034C21.8241 11.9014 21.7714 11.7742 21.6777 11.6805L21.3241 12.034ZM15.2576 17.3935C15.0623 17.5887 15.0623 17.9053 15.2576 18.1006C15.4528 18.2958 15.7694 18.2958 15.9647 18.1006L15.2576 17.3935ZM8.01111 11.534C7.73497 11.534 7.51111 11.7579 7.51111 12.034C7.51111 12.3102 7.73497 12.534 8.01111 12.534V11.534ZM21.3081 12.534C21.5843 12.534 21.8081 12.3102 21.8081 12.034C21.8081 11.7579 21.5843 11.534 21.3081 11.534V12.534ZM9.33411 20.832H6.28711V21.832H9.33411V20.832ZM6.28711 20.832C4.90625 20.832 3.78711 19.7129 3.78711 18.332H2.78711C2.78711 20.2652 4.35397 21.832 6.28711 21.832V20.832ZM3.78711 18.332L3.78711 5.66602H2.78711L2.78711 18.332H3.78711ZM3.78711 5.66602C3.78711 4.28516 4.90625 3.16602 6.28711 3.16602V2.16602C4.35397 2.16602 2.78711 3.73287 2.78711 5.66602H3.78711ZM6.28711 3.16602L9.33411 3.16602V2.16602L6.28711 2.16602V3.16602ZM15.2576 6.67457L20.9706 12.3876L21.6777 11.6805L15.9647 5.96746L15.2576 6.67457ZM20.9706 11.6805L15.2576 17.3935L15.9647 18.1006L21.6777 12.3876L20.9706 11.6805ZM8.01111 12.534H21.3081V11.534H8.01111V12.534Z" fill="#FF7643"/>
</svg>
