<svg xmlns="http://www.w3.org/2000/svg" viewBox="0 0 207.54 51.51"><defs><style>.cls-1{fill:#fff;}</style></defs><title>logo_white</title><g id="Слой_2" data-name="Слой 2"><g id="Work"><path class="cls-1" d="M69.65,15.76l6.77,9.49L83,15.76h4.17v20h-4.1V22.15h-.13L77,30.65H75.49l-5.94-8.53h-.13V35.75H65.49v-20Z"/><path class="cls-1" d="M105.9,15.76l8.87,20h-4.3l-1.64-3.56h-10l-1.6,3.56H93l8.86-20Zm-5.57,12.79h7l-3.43-8.7h-.3Z"/><path class="cls-1" d="M137,27.12a7,7,0,0,1-2.83,2.5l3.76,6.13h-4.6l-3.16-5.3h-5.54v5.3h-4v-20h9.53a7.84,7.84,0,0,1,5.8,2.16,7.41,7.41,0,0,1,1.07,9.2Zm-12.37-.3H130a4,4,0,0,0,3-1.1,3.77,3.77,0,0,0,1-2.57,3.69,3.69,0,0,0-.93-2.56A3.75,3.75,0,0,0,130,19.42h-5.4Z"/><path class="cls-1" d="M148.07,15.76v7.53h3.67l5.16-7.53h4.67l-6.4,9.16L162,35.75h-4.6l-5.6-8.9h-3.73v8.9h-4v-20Z"/><path class="cls-1" d="M167.65,15.76h15.67v3.66H171.69v4.07h10.4v3.63h-10.4v5h12.1v3.63H167.65Z"/><path class="cls-1" d="M189.24,15.76h18.3v3.59h-7.2v16.4h-3.9V19.35h-7.2Z"/><path class="cls-1" d="M46.48,0H5A5,5,0,0,0,0,5V46.48a5,5,0,0,0,5,5H46.48a5,5,0,0,0,5-5V5A5,5,0,0,0,46.48,0ZM10.23,37.54,21.06,21.18H13.13L17.56,14H31.89l-5.83,9L16.63,37.54Zm28.15-7.21L34,37.54H19.62l5.82-9L34.88,14h6.39L30.45,30.33Z"/></g></g></svg>