<svg xmlns="http://www.w3.org/2000/svg" viewBox="0 0 60 60"><defs><style>.cls-1{fill:none;}.cls-2{fill:#fff;}</style></defs><title>icon_grapg_circle</title><g id="Слой_2" data-name="Слой 2"><g id="Work"><g id="Group_1182" data-name="Group 1182"><g id="Ellipse_184" data-name="Ellipse 184"><circle class="cls-1" cx="30" cy="30" r="30"/><path class="cls-2" d="M30,60A30,30,0,1,1,60,30,30.08,30.08,0,0,1,30,60ZM30,2A28,28,0,1,0,58,30,28,28,0,0,0,30,2Z"/></g><path id="line-chart" class="cls-2" d="M44.06,21.94H38.63a1,1,0,1,1,0-1.94H46.4a1,1,0,0,1,1,1v7.77a1,1,0,0,1-1.94,0V23.31l-10,10a.93.93,0,0,1-1.37,0l-5.15-5.14-7.08,7.09a1,1,0,0,1-1.43-1.32l.06,0,7.77-7.78a.93.93,0,0,1,1.37,0l5.14,5.15ZM46.4,41.37a1,1,0,1,1,0,1.94H17.26a4.85,4.85,0,0,1-4.86-4.85V21a1,1,0,0,1,1.94,0V38.46a2.93,2.93,0,0,0,2.92,2.91Z"/></g></g></g></svg>