<?xml version="1.0" encoding="utf-8"?>
<!-- Generator: Adobe Illustrator 24.0.3, SVG Export Plug-In . SVG Version: 6.00 Build 0)  -->
<svg version="1.1" id="Слой_1" xmlns="http://www.w3.org/2000/svg" xmlns:xlink="http://www.w3.org/1999/xlink" x="0px" y="0px"
	 viewBox="0 0 18 18" style="enable-background:new 0 0 18 18;" xml:space="preserve">
<style type="text/css">
	.st0{fill:#FFFFFF;}
</style>
<g id="b3a96059-fbce-4021-a86e-49a05f3f6110">
	<g id="a59d6984-10ad-468a-9901-0e3978533d5a">
		<path class="st0" d="M10.7,4.5c0-0.7-0.5-1.3-1.2-1.3c0,0,0,0,0,0H8.5c-0.7,0-1.3,0.6-1.3,1.2c0,0,0,0,0,0v1.6h3.4V4.5z"/>
		<path class="st0" d="M12.2,8.8c0,0.4-0.3,0.8-0.8,0.8s-0.8-0.3-0.8-0.8V7.6H5.1l0.7,5.7c0,0.4,0.4,0.7,0.8,0.7H12
			c0.4,0,0.7-0.3,0.8-0.7l0.7-5.7h-1.3L12.2,8.8z"/>
		<path class="st0" d="M9,0C4,0,0,4,0,9s4,9,9,9s9-4,9-9S14,0,9,0z M14.3,13.5c-0.1,1.1-1.1,2-2.2,2H6.5c-1.1,0-2.1-0.9-2.2-2
			L3.4,6.1h2.4V4.5C5.8,3,7,1.8,8.5,1.8h0.9c1.5,0,2.8,1.2,2.8,2.8v1.6h3L14.3,13.5z"/>
	</g>
</g>
</svg>
