<svg xmlns="http://www.w3.org/2000/svg" width="18" height="18" viewBox="0 0 18 18"><g id="b3a96059-fbce-4021-a86e-49a05f3f6110" data-name="Слой 2"><g id="a59d6984-10ad-468a-9901-0e3978533d5a" data-name="Menu"><path d="M10.68,4.51A1.25,1.25,0,0,0,9.43,3.25H8.52A1.25,1.25,0,0,0,7.27,4.51V6.13h3.41Z" style="fill:#00a193"/><path d="M12.18,8.8a.75.75,0,0,1-1.5,0V7.63H5.08l.68,5.7a.76.76,0,0,0,.75.67h5.54a.76.76,0,0,0,.75-.67l.68-5.7h-1.3Z" style="fill:#00a193"/><path d="M9,0a9,9,0,1,0,9,9A9,9,0,0,0,9,0Zm5.29,13.51a2.26,2.26,0,0,1-2.24,2H6.51a2.26,2.26,0,0,1-2.24-2L3.38,6.13H5.77V4.51A2.76,2.76,0,0,1,8.52,1.75h.91a2.76,2.76,0,0,1,2.75,2.76V6.13h3Z" style="fill:#00a193"/></g></g></svg>