<svg xmlns="http://www.w3.org/2000/svg" viewBox="0 0 30 30"><defs><style>.cls-1{fill:#fff;}</style></defs><title>icon_socia_yotube</title><g id="Слой_2" data-name="Слой 2"><g id="Menu"><path class="cls-1" d="M13.13,17.81,18,15l-4.88-2.81ZM15,0A15,15,0,1,0,30,15,15,15,0,0,0,15,0Zm9.37,15a25,25,0,0,1-.38,4.5,2.36,2.36,0,0,1-1.66,1.66,57.8,57.8,0,0,1-7.33.38,55.09,55.09,0,0,1-7.33-.4A2.36,2.36,0,0,1,6,19.51,25,25,0,0,1,5.63,15,25.16,25.16,0,0,1,6,10.49,2.43,2.43,0,0,1,7.67,8.82,57.8,57.8,0,0,1,15,8.44a54.94,54.94,0,0,1,7.33.4A2.36,2.36,0,0,1,24,10.49,23.52,23.52,0,0,1,24.37,15Z"/></g></g></svg>