<svg xmlns="http://www.w3.org/2000/svg" viewBox="0 0 60 60"><defs><style>.cls-1{fill:none;}.cls-2{fill:#fff;}</style></defs><title>icon_marketing_circle</title><g id="Слой_2" data-name="Слой 2"><g id="Work"><g id="Group_1184" data-name="Group 1184"><g id="Ellipse_200" data-name="Ellipse 200"><circle class="cls-1" cx="30" cy="30" r="30"/><path class="cls-2" d="M30,60A30,30,0,1,1,60,30,30.08,30.08,0,0,1,30,60ZM30,2A28,28,0,1,0,58,30,28,28,0,0,0,30,2Z"/></g><path id="bull-horn" class="cls-2" d="M16.46,32.57A5.82,5.82,0,0,1,18.4,21.26h8.74c3.66,0,8.69-1.89,15-5.72a1,1,0,0,1,1.32.35.86.86,0,0,1,.11.51v5a4.83,4.83,0,0,1,3.89,4.74v1.95A4.83,4.83,0,0,1,43.6,32.8v5a1,1,0,0,1-1,1,1.67,1.67,0,0,1-.52-.11c-6.34-3.83-11.37-5.72-15-5.72H24.57a1.63,1.63,0,0,0-.4,1c0-.12.06-.12.46.11,1.08.51,1.48.91,1.48,1.83a2.06,2.06,0,0,1-.68,1.6l-.06.06c-.17.22-.23.22-.23.4,0-.06,0-.06.35,0l.05.06c1,.4,1.49.74,1.49,1.71a3.85,3.85,0,0,1-1.26,2.63c-3,3-5.6,3.43-7.31.8-1.26-2-1.95-5.54-2-10.57Zm1.94.34c.06,4.46.69,7.55,1.77,9.15.86,1.31,2.12,1.08,4.34-1.15a1.94,1.94,0,0,0,.69-1.2c0,.12-.06.12-.29,0l-.05-.05c-1.09-.4-1.6-.86-1.6-1.83A2.47,2.47,0,0,1,24,36.06l.06-.06c.17-.17.17-.17.17-.23,0,.12-.06.06-.46-.11-1.08-.52-1.48-.92-1.48-1.83a2.54,2.54,0,0,1,.17-1Zm25.26-9.54V30.8a2.91,2.91,0,0,0,1.94-2.74V26.11a2.91,2.91,0,0,0-1.94-2.74Zm-15.55-.23V31c3.66.29,8.18,1.94,13.6,5.09v-18c-5.42,3.14-10,4.85-13.6,5.08ZM26.17,31V23.2H18.4A3.89,3.89,0,1,0,18.17,31h8Z"/></g></g></g></svg>