<svg xmlns="http://www.w3.org/2000/svg" width="20.2" height="18" viewBox="0 0 20.2 18"><g id="a4cc1765-5b41-4182-86e7-41507a44f459" data-name="Слой 2"><g id="a2b4b7f8-21ba-46ee-8342-909350c599aa" data-name="Work"><path d="M18.11,1.53H16.84v-1a.53.53,0,1,0-1.06,0v1H10.63v-1A.53.53,0,0,0,10.1,0a.52.52,0,0,0-.52.53v1H4.37v-1a.53.53,0,0,0-1.06,0v1H2.1A2.13,2.13,0,0,0,0,3.66V15.9A2.1,2.1,0,0,0,2.1,18h16a2.1,2.1,0,0,0,2.1-2.1V3.66A2.12,2.12,0,0,0,18.11,1.53Zm1,14.37a1.05,1.05,0,0,1-1,1H2.1a1,1,0,0,1-1-1h0V3.66A1.08,1.08,0,0,1,2.1,2.58H3.31v.77a.53.53,0,0,0,1.06,0V2.58H9.58v.77a.52.52,0,0,0,.52.52.52.52,0,0,0,.53-.52V2.58h5.15v.77a.53.53,0,0,0,1.06,0V2.58h1.27a1.07,1.07,0,0,1,1,1.08Z" style="fill:#00a193"/><path d="M8.72,6H7.8a.53.53,0,1,0,0,1.06h.92A.53.53,0,0,0,8.72,6Z" style="fill:#00a193"/><path d="M12.38,6h-.92a.53.53,0,1,0,0,1.06h.92a.53.53,0,0,0,.53-.53A.53.53,0,0,0,12.38,6Z" style="fill:#00a193"/><path d="M16.07,6h-.92a.53.53,0,0,0,0,1.06h.92a.53.53,0,1,0,0-1.06Z" style="fill:#00a193"/><path d="M8.72,9.63H7.8a.53.53,0,0,0,0,1.06h.92a.53.53,0,0,0,0-1.06Z" style="fill:#00a193"/><path d="M5,9.63H4.1a.53.53,0,0,0,0,1.06H5a.53.53,0,0,0,.53-.53A.52.52,0,0,0,5,9.63Z" style="fill:#00a193"/><path d="M12.38,9.63h-.92a.53.53,0,1,0,0,1.06h.92a.53.53,0,0,0,.53-.53A.53.53,0,0,0,12.38,9.63Z" style="fill:#00a193"/><path d="M16.07,9.63h-.92a.53.53,0,0,0,0,1.06h.92a.53.53,0,0,0,0-1.06Z" style="fill:#00a193"/><path d="M8.72,13.21H7.8a.53.53,0,0,0-.53.53.52.52,0,0,0,.53.52h.92a.52.52,0,0,0,.52-.52A.52.52,0,0,0,8.72,13.21Z" style="fill:#00a193"/><path d="M5,13.21H4.1a.52.52,0,0,0-.52.53.52.52,0,0,0,.52.52H5a.53.53,0,1,0,0-1Z" style="fill:#00a193"/><path d="M12.38,13.21h-.92a.53.53,0,0,0-.53.53.52.52,0,0,0,.53.52h.92a.53.53,0,1,0,0-1Z" style="fill:#00a193"/></g></g></svg>