<svg xmlns="http://www.w3.org/2000/svg" viewBox="0 0 105.09 26.07"><defs><style>.cls-1{fill:#fff;}</style></defs><title>Ресурс 2</title><g id="Слой_2" data-name="Слой 2"><g id="Work"><path class="cls-1" d="M96.59,0H90c-7.29,3.09-9.6,6.68-8.83,13.68.64,5.78,4.39,9.72,9.89,10.37,6.07.72,11-2.2,13-7.7C106.72,9,104.26,3.64,96.59,0Zm2.69,11.73a15.16,15.16,0,0,1-1.5,6c-2.11,4.22-7.33,4.31-9.6.17-1-1.84-1.31-4-1.94-6.1C86.65,6.5,89,3.32,92.85,3.27S99.54,6.71,99.28,11.73Z"/><path class="cls-1" d="M4.22,5.93C0,11.45,2.35,16.82,4.64,22.28a25.83,25.83,0,0,1-2.87-5.07c-.39-.94-.55-1.77-1.77-.9v3.81a36.57,36.57,0,0,0,2.42,3.22c2.55,2.75,6.39,3.52,9.05,1.87C3.77,20.69,3.67,13.46,4.22,5.93Z"/><path class="cls-1" d="M77.81,4.21c-.06-1.51.17-3.32-2-3.6-2-.26-4-.34-5,2.13-1.26,3-2.84,5.78-4.53,9.16-1.88-3.62-3.52-6.71-5.09-9.83C60.12,0,58.22.43,56.59.67a2.74,2.74,0,0,0-1.85,1.87q-.48,9.48-.55,19c0,.63,1.23,1.85,1.79,1.79a3.94,3.94,0,0,0,2.32-1.69c.35-.49.11-1.4.11-2.13,0-3.52,0-7,0-10.57a47.1,47.1,0,0,1,4.47,6.55c.69,1.05,1.82,2.47,2.78,2.5s2.08-1.43,2.72-2.49c1.47-2.4,2.69-5,4-7.46l.75.17c0,4.06,0,8.11,0,12.16,0,1.8.34,3.2,2.73,3.15s2.58-1.52,2.51-3.29C78.18,14.88,78,9.54,77.81,4.21Z"/><path class="cls-1" d="M47.11.52c-2,0-2.51,1.1-2.5,2.79,0,3.62,0,7.24,0,10.86s-1.69,5.47-4.67,5.49-4.65-1.75-4.69-5.39,0-7.42,0-11.13c0-1.77-.85-2.62-2.72-2.62s-2.79.69-2.78,2.54c0,2.08,0,4.16,0,6.24h.09c0,2.17-.13,4.35,0,6.51.37,5.1,3.62,8.08,8.77,8.2.92,0,1.84,0,2.75,0,4.73-.13,8-2.67,8.4-7.3s.31-9,.36-13.55C50.13,1.25,49.06.47,47.11.52Z"/><path class="cls-1" d="M19.7,1.51V9.1H9.84c.38-2.8.72-5.34,1.06-7.9-4.49.26-5.64,6.23-5.35,11.2.34,6,3,10.57,6.2,11.14-.66-3.35-1.35-6.79-2.08-10.48h8.92a12.16,12.16,0,0,1,1.29.17c0,2.68,0,5.29,0,7.89a2,2,0,0,0,2.39,2.27c1.38-.05,3.05.19,3.07-1.78.07-6,.2-11.95-.12-17.9C25.06.63,21.92-.28,19.7,1.51Z"/></g></g></svg>