<svg xmlns="http://www.w3.org/2000/svg" viewBox="0 0 18 17.69"><defs><style>.cls-1{fill:#fff;}</style></defs><title>icon_call_center_white</title><g id="Слой_2" data-name="Слой 2"><g id="Main"><path class="cls-1" d="M16.72,7.46A2.78,2.78,0,0,0,15.21,7h-.75a.53.53,0,0,0-.53.53v5.6a.53.53,0,0,0,.53.53h.75A2.79,2.79,0,0,0,18,10.88V9.8A2.77,2.77,0,0,0,16.72,7.46Z"/><path class="cls-1" d="M15.09,14.71H15a3.5,3.5,0,0,1-3.11,1.92.53.53,0,0,0,0,1.06,4.54,4.54,0,0,0,4.31-3.13A3.79,3.79,0,0,1,15.09,14.71Z"/><path class="cls-1" d="M9,0A7.39,7.39,0,0,0,1.72,6.16,3.8,3.8,0,0,1,2.83,6,6.33,6.33,0,0,1,15.17,6a3.8,3.8,0,0,1,1.11.19A7.39,7.39,0,0,0,9,0Z"/><path class="cls-1" d="M3.54,7H2.79a2.78,2.78,0,0,0-1.51.45A2.77,2.77,0,0,0,0,9.8v1.08a2.79,2.79,0,0,0,2.79,2.79h.75a.53.53,0,0,0,.53-.53V7.54A.53.53,0,0,0,3.54,7Z"/></g></g></svg>