<svg xmlns="http://www.w3.org/2000/svg" viewBox="0 0 36 63.53"><defs><style>.cls-1{fill:#fff;}</style></defs><title>icon_phone_white</title><g id="Слой_2" data-name="Слой 2"><g id="Work"><path class="cls-1" d="M12.71,5.29H23.29a1.06,1.06,0,1,0,0-2.11H12.71a1.06,1.06,0,1,0,0,2.11Z"/><path class="cls-1" d="M29.65,5.29h1.06a1.06,1.06,0,0,0,0-2.11H29.65a1.06,1.06,0,1,0,0,2.11Z"/><path class="cls-1" d="M19.32,54H16.69a2.93,2.93,0,0,0-2.93,2.92v.51a2.93,2.93,0,0,0,2.92,2.92h2.63a2.93,2.93,0,0,0,2.93-2.92v-.51A2.93,2.93,0,0,0,19.32,54Zm.8,3.43a.8.8,0,0,1-.8.81H16.69a.81.81,0,0,1-.81-.81v-.51a.8.8,0,0,1,.81-.8h2.62a.8.8,0,0,1,.81.8Z"/><path class="cls-1" d="M36,7.41h0V3.83A3.84,3.84,0,0,0,32.17,0H3.83A3.84,3.84,0,0,0,0,3.83V59.7a3.84,3.84,0,0,0,3.83,3.83H32.17A3.84,3.84,0,0,0,36,59.7V51.88h0ZM2.12,8.47H33.88V50.82H2.12ZM3.83,2.12H32.17a1.71,1.71,0,0,1,1.71,1.71V6.35H2.12V3.83A1.71,1.71,0,0,1,3.83,2.12ZM32.17,61.41H3.83A1.71,1.71,0,0,1,2.12,59.7V52.94H33.88V59.7h0A1.71,1.71,0,0,1,32.17,61.41Z"/></g></g></svg>