<svg xmlns="http://www.w3.org/2000/svg" width="142.34" height="142.34" viewBox="0 0 142.34 142.34"><g id="edd62392-36a9-4e10-b50d-9757c1052b93" data-name="Слой 2"><g id="b37d9707-b618-4ad0-8174-5de39c9b11af" data-name="Work"><path d="M13.63,142.34H128.7a67.08,67.08,0,0,0-115.07,0Z" style="fill:#e6e6e6"/><path d="M9.87,115.44A86.54,86.54,0,0,1,37.28,96.91a51.37,51.37,0,1,1,67.75,0,86.87,86.87,0,0,1,37.31,30.32V8a8,8,0,0,0-8-8H8A8,8,0,0,0,0,8V127.27A87.21,87.21,0,0,1,9.87,115.44Z" style="fill:#e6e6e6"/><path d="M102.88,58.34A31.71,31.71,0,1,0,71.17,90.05,31.75,31.75,0,0,0,102.88,58.34Z" style="fill:#e6e6e6"/></g></g></svg>