<?xml version="1.0" encoding="utf-8"?>
<!-- Generator: Adobe Illustrator 24.0.3, SVG Export Plug-In . SVG Version: 6.00 Build 0)  -->
<svg version="1.1" id="Capa_1" xmlns="http://www.w3.org/2000/svg" xmlns:xlink="http://www.w3.org/1999/xlink" x="0px" y="0px"
	 viewBox="0 0 512 512" style="enable-background:new 0 0 512 512;" xml:space="preserve">
<style type="text/css">
	.st0{fill:#00A193;}
</style>
<g>
	<g>
		<path class="st0" d="M256,0C115,0,0,115,0,256c0,141,115,256,256,256c141,0,256-115,256-256C512,115,397,0,256,0z M179.6,43.3
			c-17.6,22.3-30.3,49.9-39.2,76.7H75.6C101.9,85.3,137.9,58.3,179.6,43.3z M56.5,149.9H132c-6.8,28.4-10.8,59.3-11.8,91.1H30.5
			C32.7,208.3,41.8,177.4,56.5,149.9z M56.5,362c-14.6-27.5-23.8-58.3-25.9-91h89.7c1,31.8,5,62.6,11.8,91H56.5z M75.6,392h64.9
			c8.8,26.8,21.6,54.4,39.2,76.7C137.9,453.7,101.9,426.7,75.6,392z M241,479.5c-33.5-11.3-56.6-54.3-68.8-87.5H241V479.5z M241,362
			h-78.1c-7.3-28-11.6-58.9-12.6-91H241V362z M241,241h-90.8c1-32.1,5.3-63,12.6-91H241V241z M241,120h-68.8
			c12.2-33.2,35.3-76.2,68.8-87.5V120z M455.5,150c14.6,27.5,23.8,58.3,25.9,91h-89.7c-1-31.8-5-62.6-11.8-91H455.5z M436.4,120
			h-64.9c-8.8-26.8-21.6-54.4-39.2-76.7C374.1,58.3,410.1,85.3,436.4,120z M271,32.5c33.5,11.3,56.6,54.3,68.8,87.5H271V32.5z
			 M271,150h78.1c7.3,28,11.6,58.9,12.6,91H271V150z M271,270.9h90.8c-1,32.1-5.3,63.1-12.6,91.1H271V270.9z M271,479.5v-87.6h68.8
			C327.6,425.1,304.5,468.2,271,479.5z M332.4,468.7c17.6-22.3,30.3-50,39.2-76.8h64.9C410.1,426.6,374.1,453.7,332.4,468.7z
			 M455.5,362H380c6.8-28.4,10.8-59.3,11.8-91.1h89.7C479.3,303.6,470.2,334.5,455.5,362z"/>
	</g>
</g>
</svg>
