<svg xmlns="http://www.w3.org/2000/svg" viewBox="0 0 18 18"><defs><style>.cls-1{fill:#fff;}</style></defs><title>icon_help_white</title><g id="Слой_2" data-name="Слой 2"><g id="Main"><path class="cls-1" d="M9.65,6.06A1.2,1.2,0,0,0,8.37,4.78a2,2,0,0,0-1.52.76L6.23,5A3,3,0,0,1,8.5,3.88,2,2,0,0,1,10.71,6c0,1.74-2.13,2.44-1.92,4.29H7.84C7.55,8.22,9.65,7.46,9.65,6.06ZM7.56,12.24a.8.8,0,0,1,.78-.85.84.84,0,0,1,0,1.67A.79.79,0,0,1,7.56,12.24Z"/><path class="cls-1" d="M9,18a9,9,0,1,1,9-9A9,9,0,0,1,9,18ZM9,1a8,8,0,1,0,8,8A8,8,0,0,0,9,1Z"/></g></g></svg>