<svg xmlns="http://www.w3.org/2000/svg" viewBox="0 0 29.02 29.02"><defs><style>.cls-1{fill:#fff;}</style></defs><title>icon_socia_vk</title><g id="Слой_2" data-name="Слой 2"><g id="Menu"><path class="cls-1" d="M14.51,0A14.51,14.51,0,1,0,29,14.51,14.51,14.51,0,0,0,14.51,0Zm7.12,17.55a8.75,8.75,0,0,1,1.89,2.19c.63,1.05-.7,1.13-.7,1.13l-2.54,0A1.79,1.79,0,0,1,19,20.52c-1-.65-1.85-2.35-2.55-2.13s-.68,1.75-.68,1.75a.85.85,0,0,1-.16.5,1,1,0,0,1-.52.23H14a6.53,6.53,0,0,1-4.72-2.15c-2.42-2.51-4.55-7.5-4.55-7.5s-.12-.33,0-.48.56-.19.56-.19l2.72,0a1.09,1.09,0,0,1,.44.18.89.89,0,0,1,.24.32,18.8,18.8,0,0,0,1,2.12c1.14,2,1.67,2.39,2.05,2.18.57-.31.4-2.78.4-2.78a2.75,2.75,0,0,0-.28-1.29,1.33,1.33,0,0,0-.85-.43c-.15,0,.1-.38.42-.54a6.22,6.22,0,0,1,2.38-.24,5.26,5.26,0,0,1,1.34.13c.94.23.62,1.11.62,3.21,0,.67-.12,1.61.36,1.93.21.13.72,0,2-2.15a17,17,0,0,0,1.05-2.23.77.77,0,0,1,.26-.31.71.71,0,0,1,.37-.07h2.86s.86-.11,1,.28-.32,1.36-1.49,2.92C20.25,16.31,20,16.07,21.63,17.55Z"/></g></g></svg>