<svg xmlns="http://www.w3.org/2000/svg" viewBox="0 0 36 52.95"><defs><style>.cls-1{fill:#fff;}</style></defs><title>icon_passport_white</title><g id="Слой_2" data-name="Слой 2"><g id="Work"><path class="cls-1" d="M18,37A10.56,10.56,0,1,0,7.45,26.48,10.56,10.56,0,0,0,18,37Zm1.82-4.22C19.28,34.12,18.57,35,18,35s-1.28-.84-1.82-2.15a12.15,12.15,0,0,1-.61-1.93h4.86A12.15,12.15,0,0,1,19.82,32.81Zm1.64,1.41c.09-.2.19-.4.28-.62a15.28,15.28,0,0,0,.8-2.72h2.71A8.59,8.59,0,0,1,21.46,34.22Zm4.69-10.07a8.39,8.39,0,0,1,0,4.66h-3.3A22.29,22.29,0,0,0,23,26.48a22,22,0,0,0-.12-2.33Zm-.9-2.07H22.54a15.15,15.15,0,0,0-.8-2.73c-.09-.21-.19-.42-.28-.62A8.55,8.55,0,0,1,25.25,22.08Zm-9.07-1.94C16.72,18.84,17.43,18,18,18s1.28.85,1.82,2.15a12,12,0,0,1,.61,1.94H15.57A12,12,0,0,1,16.18,20.14Zm-.95,4h5.54a22,22,0,0,1,.13,2.33,22,22,0,0,1-.13,2.33H15.23a20.95,20.95,0,0,1,0-4.66Zm-4.48,6.73h2.71a15.28,15.28,0,0,0,.8,2.72c.09.22.19.42.28.62A8.59,8.59,0,0,1,10.75,30.88Zm3.79-12.15c-.09.2-.19.41-.28.62a15.15,15.15,0,0,0-.8,2.73H10.75A8.55,8.55,0,0,1,14.54,18.73Zm-5,7.75a8.15,8.15,0,0,1,.33-2.33h3.3A22,22,0,0,0,13,26.48a22.29,22.29,0,0,0,.12,2.33H9.85A8.15,8.15,0,0,1,9.52,26.48Z"/><path class="cls-1" d="M28.69,38.12l0,0L28.59,38h0a.05.05,0,0,0,0,0l0,0h0a1.31,1.31,0,0,0-.27-.12h0l-.08,0a.75.75,0,0,0-.21,0H8.07a1,1,0,1,0,0,2.06H27.93a.76.76,0,0,0,.21,0h.09a1,1,0,0,0,.73-.89s0-.06,0-.1,0-.07,0-.1A1,1,0,0,0,28.69,38.12Z"/><path class="cls-1" d="M22,42.3H14a1,1,0,1,0,0,2.07h8a1,1,0,1,0,0-2.07Z"/><path class="cls-1" d="M32.93,6V3.9A3.89,3.89,0,0,0,28.27.08L.83,5.59H.76a1,1,0,0,0-.76,1V51.92a1,1,0,0,0,1,1h29.8A5.18,5.18,0,0,0,36,47.78V23.21h0V10.75A5.18,5.18,0,0,0,32.93,6ZM28.67,2.11A1.82,1.82,0,0,1,30.86,3.9V5.58H11.43Zm5.26,19.23h0V47.78a3.1,3.1,0,0,1-3.1,3.1H2.07V7.64H30.83a3.11,3.11,0,0,1,3.1,3.11Z"/></g></g></svg>