<svg xmlns="http://www.w3.org/2000/svg" viewBox="0 0 60 60"><defs><style>.cls-1{fill:none;}.cls-2{fill:#fff;}</style></defs><title>icon_world_circle</title><g id="Слой_2" data-name="Слой 2"><g id="Work"><g id="Group_1186" data-name="Group 1186"><g id="Ellipse_201" data-name="Ellipse 201"><circle class="cls-1" cx="30" cy="30" r="30"/><path class="cls-2" d="M30,60A30,30,0,1,1,60,30,30.08,30.08,0,0,1,30,60ZM30,2A28,28,0,1,0,58,30,28,28,0,0,0,30,2Z"/></g><path id="earth" class="cls-2" d="M29.14,44.51v-2l-3.08-3.09a.73.73,0,0,1-.23-.57V34.17L24.4,32.74a.73.73,0,0,1-.23-.57V30.51a.78.78,0,0,1,.8-.8h8.29a2.44,2.44,0,0,1,2.45,2.46v1.66a.78.78,0,0,0,.8.8h0A2.43,2.43,0,0,1,39,37.09h0a.78.78,0,0,0,.8.8h3.32A14.91,14.91,0,0,0,39,17.2a13.69,13.69,0,0,0-3.31-1.66V17.2a4.09,4.09,0,0,1-4.12,4.11H29.89a.78.78,0,0,0-.8.8v1.66a2.45,2.45,0,0,1-2.46,2.46H24.17V27a.83.83,0,0,1-.23.57l-1.65,1.66a.78.78,0,0,1-1.15,0L16.69,24.8a15,15,0,0,0,9.48,18.86A7.75,7.75,0,0,0,29.14,44.51Zm1.66.12a14.92,14.92,0,0,0,11.09-5h-2a2.44,2.44,0,0,1-2.46-2.46h0a.78.78,0,0,0-.8-.8h0a2.45,2.45,0,0,1-2.46-2.46h0V32.29a.78.78,0,0,0-.8-.8H25.94v.45l1.43,1.43a.73.73,0,0,1,.23.57v4.63l3.09,3.09a.72.72,0,0,1,.22.57Zm-.69,1.6h-.4a17.13,17.13,0,1,1,1.09,0A2.66,2.66,0,0,1,30.11,46.23ZM17.31,23.31l4.35,4.35.8-.8V25.54a.78.78,0,0,1,.8-.8h3.31a.78.78,0,0,0,.8-.8V22.29a2.44,2.44,0,0,1,2.46-2.46h1.66a2.44,2.44,0,0,0,2.45-2.46V15.26a14.69,14.69,0,0,0-16.63,8Z"/></g></g></g></svg>