<svg xmlns="http://www.w3.org/2000/svg" viewBox="0 0 16 16">
    <defs>
        <style>.cls-1{fill:#FF7643;}</style>
    </defs>
    <title>icon_call_green_circle</title>
    <g id="Слой_2" data-name="Слой 2">
        <g id="Work">
            <path class="cls-1"
                  d="M8,0a8,8,0,1,0,8,8A8,8,0,0,0,8,0Zm4.22,11.67-.64.64a1.1,1.1,0,0,1-.46.19A7.55,7.55,0,0,1,3.5,4.86a1.1,1.1,0,0,1,.19-.44l.64-.64a1.07,1.07,0,0,1,1-.24l.13,0a1.21,1.21,0,0,1,.73.77l.33,1.18a1.16,1.16,0,0,1-.27,1L5.82,7A4.54,4.54,0,0,0,9,10.18l.43-.43a1.16,1.16,0,0,1,1-.27l1.18.33a1.28,1.28,0,0,1,.78.73l0,.13A1.07,1.07,0,0,1,12.22,11.67Z"/>
        </g>
    </g>
</svg>
