<svg xmlns="http://www.w3.org/2000/svg" viewBox="0 0 29.02 29.02"><defs><style>.cls-1{fill:#fff;}</style></defs><title>icon_social_inst</title><g id="Слой_2" data-name="Слой 2"><g id="Menu"><path class="cls-1" d="M17.29,14.51a2.78,2.78,0,1,1-2.78-2.78A2.79,2.79,0,0,1,17.29,14.51Z"/><path class="cls-1" d="M21,9.6a2.45,2.45,0,0,0-.62-1,2.67,2.67,0,0,0-1-.63,4.52,4.52,0,0,0-1.54-.28c-.88,0-1.15-.05-3.37-.05s-2.49,0-3.37.05A4.52,4.52,0,0,0,9.6,8,2.83,2.83,0,0,0,8,9.6a4.52,4.52,0,0,0-.28,1.54c0,.88-.05,1.14-.05,3.37s0,2.49.05,3.37A4.52,4.52,0,0,0,8,19.42a2.67,2.67,0,0,0,.63,1,2.49,2.49,0,0,0,.95.62,4.59,4.59,0,0,0,1.55.29c.88,0,1.14.05,3.37.05s2.49,0,3.36-.05A4.47,4.47,0,0,0,19.42,21,2.73,2.73,0,0,0,21,19.42a4.45,4.45,0,0,0,.29-1.54c0-.88.05-1.15.05-3.37s0-2.49-.05-3.37A4.45,4.45,0,0,0,21,9.6Zm-6.49,9.19a4.28,4.28,0,1,1,4.28-4.28A4.28,4.28,0,0,1,14.51,18.79ZM19,11.06a1,1,0,1,1,1-1A1,1,0,0,1,19,11.06Z"/><path class="cls-1" d="M14.51,0A14.51,14.51,0,1,0,29,14.51,14.51,14.51,0,0,0,14.51,0Zm8.28,17.94a6,6,0,0,1-.39,2A4.27,4.27,0,0,1,20,22.4a6,6,0,0,1-2,.39c-.88,0-1.17.05-3.43.05s-2.55,0-3.44-.05a6,6,0,0,1-2-.39,4,4,0,0,1-1.47-1,3.87,3.87,0,0,1-1-1.47,6,6,0,0,1-.39-2c0-.89-.05-1.17-.05-3.43s0-2.55.05-3.44a6.3,6.3,0,0,1,.38-2,4,4,0,0,1,1-1.47,4,4,0,0,1,1.47-1,6.3,6.3,0,0,1,2-.38c.89,0,1.18-.05,3.44-.05s2.54,0,3.43.05a6.32,6.32,0,0,1,2,.38A4.33,4.33,0,0,1,22.4,9.05a6,6,0,0,1,.39,2c0,.89.05,1.18.05,3.44S22.83,17.05,22.79,17.94Z"/></g></g></svg>