<svg width="106" height="29" viewBox="0 0 106 29" fill="none" xmlns="http://www.w3.org/2000/svg">
<path fill-rule="evenodd" clip-rule="evenodd" d="M105.156 14.1197C105.622 14.1197 106 13.738 106 13.267V10.8119C106 10.3409 105.622 9.95912 105.156 9.95912H103.307V7.44316C103.307 6.87152 102.762 6.46175 102.22 6.62666L99.6104 7.42127C99.254 7.52976 99.0102 7.86154 99.0102 8.23788V9.95912H97.9123C97.4464 9.95912 97.0686 10.3409 97.0686 10.8119V13.267C97.0686 13.738 97.4464 14.1197 97.9123 14.1197H99.0102V18.0186C99.0102 20.0946 99.528 21.5338 100.563 22.3363C101.511 23.0433 103.075 23.3045 105.255 23.1201C105.68 23.0842 106 22.7183 106 22.2868V20.0174C106 19.5285 105.593 19.1458 105.11 19.1378C104.596 19.1293 104.202 19.079 103.929 18.9868C103.514 18.8473 103.307 18.4897 103.307 17.914V14.1197H105.156H105.156ZM68.298 11.0582C67.435 10.0812 66.253 9.5928 64.7516 9.5928C63.1465 9.5928 61.8955 10.151 60.998 11.2675C60.2732 10.151 59.1687 9.5928 57.6845 9.5928C56.1486 9.5928 54.9837 10.1249 54.19 11.189V10.8119C54.19 10.3409 53.8122 9.95912 53.3463 9.95912H50.7365C50.2703 9.95912 49.8929 10.3409 49.8929 10.8119V22.19C49.8929 22.661 50.2703 23.0428 50.7365 23.0428H53.3463C53.8122 23.0428 54.19 22.661 54.19 22.19V15.8991C54.19 15.2188 54.3365 14.6867 54.6298 14.3028C54.9406 13.9017 55.3894 13.701 55.9761 13.701C57.0633 13.701 57.6069 14.3117 57.6069 15.5328V22.19C57.6069 22.661 57.9847 23.0428 58.4505 23.0428H61.0603C61.5262 23.0428 61.904 22.661 61.904 22.19V15.8991C61.904 15.2188 62.0508 14.6867 62.3442 14.3028C62.6547 13.9017 63.1034 13.701 63.6901 13.701C64.7601 13.701 65.295 14.3117 65.295 15.5328V22.19C65.295 22.661 65.6727 23.0428 66.1389 23.0428H68.7744C69.2405 23.0428 69.618 22.661 69.618 22.19V15.0356C69.618 13.3434 69.1781 12.0176 68.298 11.0582V11.0582ZM81.8929 9.95912C81.427 9.95912 81.0492 10.3409 81.0492 10.8119V11.1629C80.1691 10.1161 78.9438 9.5928 77.3734 9.5928C75.6477 9.5928 74.1979 10.2557 73.0245 11.5815C71.868 12.8899 71.2901 14.5296 71.2901 16.501C71.2901 18.4722 71.868 20.1208 73.0245 21.4466C74.1979 22.755 75.6477 23.4091 77.3734 23.4091C78.9438 23.4091 80.1691 22.8858 81.0492 21.8391V22.19C81.0492 22.661 81.427 23.0428 81.8929 23.0428H84.5027C84.9685 23.0428 85.3463 22.661 85.3463 22.19V10.8119C85.3463 10.3409 84.9685 9.95912 84.5027 9.95912H81.8929ZM78.3311 19.3532C77.5199 19.3532 76.8642 19.0915 76.3639 18.5681C75.8632 18.0449 75.6132 17.3558 75.6132 16.501C75.6132 15.6461 75.8632 14.957 76.3639 14.4338C76.8642 13.9104 77.5199 13.6487 78.3311 13.6487C79.1422 13.6487 79.798 13.9104 80.2986 14.4338C80.7989 14.957 81.0492 15.6461 81.0492 16.501C81.0492 17.3558 80.7989 18.0449 80.2986 18.5681C79.798 19.0915 79.1422 19.3532 78.3311 19.3532ZM92.1346 12.3927C92.3761 11.5379 92.8594 10.875 93.5845 10.404C94.076 10.0845 94.6071 9.8734 95.1782 9.77057C95.6369 9.68801 96.0175 10.0793 96.0175 10.5503V13.5142C96.0175 14.0383 95.5503 14.428 95.0336 14.4709C94.4269 14.5215 93.8575 14.7184 93.3255 15.0617C92.5315 15.5851 92.1346 16.44 92.1346 17.6261V22.19C92.1346 22.661 91.7569 23.0428 91.291 23.0428H88.6812C88.2153 23.0428 87.8375 22.661 87.8375 22.19V10.8119C87.8375 10.3409 88.2153 9.95912 88.6812 9.95912H91.291C91.7569 9.95912 92.1346 10.3409 92.1346 10.8119V12.3927V12.3927ZM29.5969 9.95912C29.131 9.95912 28.7533 10.341 28.7533 10.812V11.1629C27.8732 10.1162 26.6479 9.5928 25.0775 9.5928C23.3518 9.5928 21.9021 10.2557 20.7286 11.5816C19.5724 12.8899 18.9941 14.5297 18.9941 16.5011C18.9941 18.4723 19.5724 20.1209 20.7286 21.4466C21.9021 22.755 23.3518 23.4092 25.0775 23.4092C26.6479 23.4092 27.8732 22.8858 28.7533 21.8392V22.19C28.7533 22.661 29.131 23.0429 29.5969 23.0429H32.2067C32.6729 23.0429 33.0507 22.661 33.0507 22.19V10.812C33.0507 10.341 32.6729 9.95912 32.2067 9.95912H29.5969V9.95912ZM26.0353 19.3533C25.2241 19.3533 24.5683 19.0915 24.0679 18.5682C23.5674 18.0449 23.3172 17.3558 23.3172 16.5011C23.3172 15.6462 23.5674 14.9572 24.0679 14.4338C24.5683 13.9105 25.2241 13.6487 26.0353 13.6487C26.8464 13.6487 27.5022 13.9105 28.0026 14.4338C28.5031 14.9572 28.7533 15.6462 28.7533 16.5011C28.7533 17.3558 28.5031 18.0449 28.0026 18.5682C27.5022 19.0915 26.8464 19.3533 26.0353 19.3533ZM44.3943 9.95912C44.0129 9.95912 43.6787 10.218 43.5798 10.5904L41.7286 17.5477L39.3113 10.5315C39.1932 10.1888 38.8733 9.95912 38.5144 9.95912H35.5607C34.9597 9.95912 34.5515 10.5762 34.7809 11.1377L39.4763 22.6242C39.1829 23.2173 38.8035 23.6273 38.3374 23.8541C38.0275 24.0049 37.618 24.1057 37.1091 24.1561C36.6455 24.2022 36.2666 24.576 36.2666 25.047V27.4595C36.2666 27.9162 36.623 28.2958 37.0746 28.285C38.7117 28.2459 40.0733 27.8505 41.1589 27.0987C42.4188 26.2266 43.3939 24.8048 44.0842 22.8335L48.1213 11.0919C48.3117 10.5378 47.9048 9.95912 47.3244 9.95912H44.3943Z" fill="#1E1E1E"/>
<path fill-rule="evenodd" clip-rule="evenodd" d="M3.41544 1.27396e-06C1.52917 1.27396e-06 0 1.54576 0 3.45261V15.2744V19.4251V20.0996C0 20.6341 0.142345 21.1365 0.390509 21.5702C0.504514 18.0737 3.34421 15.2744 6.83098 15.2744H11.6643C15.8808 15.2744 19.299 11.9974 19.299 7.73514C19.299 3.47277 15.8808 0.0174278 11.6643 0.0174278H3.76026C3.6469 0.00588314 3.53192 0 3.41544 0V1.27396e-06Z" fill="#FF7643"/>
<path fill-rule="evenodd" clip-rule="evenodd" d="M0.390625 21.5703C0.896968 22.455 1.84382 23.0536 2.92225 23.0536H3.90897C5.51615 23.0536 6.8311 21.7243 6.8311 20.0996V15.2744C3.34433 15.2744 0.50463 18.0737 0.390625 21.5703Z" fill="#1E1E1E"/>
</svg>
